<svg width="178" height="26" viewBox="0 0 178 26" fill="none" xmlns="http://www.w3.org/2000/svg">
<g clip-path="url(#clip0_16641_70104)">
<path d="M58.0752 5.06641L53.6068 22.0689H50.707L46.9372 10.3644L43.1279 22.0689H40.2281L35.7598 5.06641H38.765L41.9153 17.2865L45.3687 5.06641H48.4662L51.9197 17.2865L55.0699 5.06641H58.0752Z" fill="black"/>
<path d="M59.4473 13.5737C59.4473 8.10815 61.8989 4.70508 66.7495 4.70508C71.6001 4.70508 74.0254 8.10815 74.0254 13.5737C74.0254 19.0392 71.5606 22.4294 66.7495 22.4294C61.9385 22.4294 59.4473 19.0392 59.4473 13.5737ZM71.0202 13.5737C71.0202 11.4339 70.5457 7.42496 66.7495 7.42496C62.9534 7.42496 62.4525 11.4339 62.4525 13.5737C62.4525 15.7135 62.9534 19.7095 66.7495 19.7095C70.5457 19.7095 71.0202 15.7006 71.0202 13.5737Z" fill="black"/>
<path d="M86.2702 22.0689L82.8826 15.1209H79.9037V22.0689H76.8984V5.06641H83.0144C87.2324 5.06641 89.5654 6.35545 89.5654 10.0034C89.5654 12.7233 88.3528 14.1799 86.0856 14.7858L89.5918 22.0689H86.2702ZM79.9037 12.3753H82.8826C85.4397 12.3753 86.6129 11.7437 86.6129 10.0937C86.6129 8.4437 85.3738 7.81207 82.8826 7.81207H79.9037V12.3753Z" fill="black"/>
<path d="M92.7422 5.06641H95.7474V19.2717H104.341V22.0689H92.7422V5.06641Z" fill="black"/>
<path d="M107.176 5.06641H112.119C117.325 5.06641 120.686 8.39214 120.686 13.6128C120.686 18.8334 117.325 22.0689 112.119 22.0689H107.176V5.06641ZM112.343 19.2717C115.638 19.2717 117.681 16.9514 117.681 13.6128C117.681 10.2741 115.546 7.86363 112.343 7.86363H110.181V19.2717H112.343Z" fill="black"/>
<path d="M123.189 13.521C123.189 8.24878 126.195 4.78125 130.861 4.78125C134.182 4.78125 137.016 6.54724 137.913 9.87297L135.105 10.7237C134.538 9.12533 133.721 7.56558 130.861 7.56558C128.001 7.56558 126.195 10.0663 126.195 13.521C126.195 16.9756 127.908 19.5666 130.861 19.5666C133.813 19.5666 134.762 17.8393 135.131 16.3311L137.913 17.1818C137.095 20.4689 134.406 22.3638 130.861 22.3638C126.195 22.3638 123.189 18.8576 123.189 13.521Z" fill="black"/>
<path d="M140.326 13.5737C140.326 8.10815 142.778 4.70508 147.615 4.70508C152.453 4.70508 154.891 8.10815 154.891 13.5737C154.891 19.0392 152.44 22.4294 147.615 22.4294C142.791 22.4294 140.326 19.0392 140.326 13.5737ZM151.899 13.5737C151.899 11.4339 151.425 7.42496 147.615 7.42496C143.806 7.42496 143.331 11.4339 143.331 13.5737C143.331 15.7135 143.819 19.7095 147.615 19.7095C151.411 19.7095 151.899 15.7006 151.899 13.5737V13.5737Z" fill="black"/>
<path d="M158.277 5.06641H161.283V22.0689H158.277V5.06641Z" fill="black"/>
<path d="M177.667 5.06641V22.0689H174.662L167.913 10.996V22.0689H164.908V5.06641H167.913L174.662 16.5389V5.06641H177.667Z" fill="black"/>
<path d="M22.1566 12.09C23.2638 10.4529 26.3614 6.46976 23.6065 4.40729C21.234 2.69287 16.2515 7.82326 15.7507 9.88573C15.7361 9.94875 15.7368 10.0143 15.7528 10.0769C15.7689 10.1396 15.7997 10.1978 15.8429 10.2467V10.2467C15.9114 10.3214 16.0054 10.3692 16.1073 10.3811C16.2092 10.393 16.312 10.3681 16.3965 10.3111C17.1874 9.76971 18.4659 8.89316 19.9159 8.00372C21.8007 9.6537 22.1566 12.09 22.1566 12.09Z" fill="black"/>
<path d="M20.0086 19.2574C22.0121 19.077 27.1264 18.9738 27.0605 15.5836C26.955 12.6962 19.745 12.0903 17.781 12.9798C17.7221 13.008 17.671 13.0496 17.6319 13.1012C17.5929 13.1528 17.5672 13.2129 17.557 13.2763C17.5365 13.3751 17.555 13.4779 17.6088 13.564C17.6626 13.65 17.7476 13.713 17.8469 13.7403C18.7696 14.011 20.2722 14.4493 21.8803 15.0036C21.7353 17.4656 20.0086 19.2574 20.0086 19.2574Z" fill="black"/>
<path d="M12.9297 22.0815C14.3137 23.4994 17.5826 27.3536 20.2583 25.1881C22.5123 23.3061 18.5053 17.4022 16.5676 16.4741C16.5115 16.4425 16.4479 16.4258 16.3831 16.4258C16.3183 16.4258 16.2547 16.4425 16.1986 16.4741C16.1065 16.5212 16.0353 16.5998 15.9989 16.695C15.9624 16.7901 15.9631 16.8951 16.0009 16.9898C16.3567 17.8663 16.9499 19.2842 17.5035 20.8698C15.4473 22.2877 12.9297 22.0815 12.9297 22.0815Z" fill="black"/>
<path d="M6.274 18.4069C5.9972 20.3662 4.94272 25.2646 8.3566 25.9607C11.2432 26.515 13.484 19.7733 13.0227 17.7108C13.0091 17.6485 12.9805 17.5902 12.9392 17.5409C12.898 17.4915 12.8452 17.4526 12.7854 17.4272V17.4272C12.6921 17.3852 12.586 17.3791 12.4883 17.4102C12.3906 17.4412 12.3084 17.5072 12.2582 17.5948C11.7837 18.4198 11.006 19.7475 10.0965 21.1654C7.67119 20.4694 6.274 18.4069 6.274 18.4069Z" fill="black"/>
<path d="M5.06095 11.0352C3.33424 12.0406 -1.25274 14.2964 0.315794 17.3257C1.67344 19.8909 8.46165 17.403 9.83247 15.7659C9.87314 15.7158 9.90044 15.6566 9.91194 15.5936C9.92345 15.5306 9.91879 15.4658 9.89838 15.405V15.405C9.87332 15.3081 9.81204 15.2239 9.72665 15.1691C9.64125 15.1142 9.53792 15.0926 9.43704 15.1085C8.48801 15.2632 6.93266 15.4952 5.23231 15.6757C4.28328 13.3812 5.06095 11.0352 5.06095 11.0352Z" fill="black"/>
<path d="M10.2158 5.51757C8.33088 4.82149 3.67799 2.72035 2.2149 5.80116C1.01543 8.4437 7.22368 12.0788 9.38536 12.1175C9.45178 12.117 9.51719 12.1016 9.5766 12.0726C9.636 12.0435 9.68781 12.0016 9.72806 11.9499V11.9499C9.79164 11.8678 9.82149 11.7653 9.81173 11.6627C9.80197 11.5602 9.75332 11.4649 9.67534 11.3956C8.96357 10.764 7.80364 9.73274 6.60417 8.54682C7.84318 6.38123 10.2158 5.51757 10.2158 5.51757Z" fill="black"/>
<path d="M17.8337 6.02007C17.2142 4.15095 16.0015 -0.721629 12.6272 0.0904684C9.7669 0.812333 10.7291 7.82473 12.034 9.50048C12.0762 9.54909 12.1287 9.58811 12.1879 9.61483C12.2471 9.64154 12.3115 9.65531 12.3767 9.65517V9.65517C12.4819 9.65215 12.5821 9.61082 12.6577 9.53927C12.7333 9.46773 12.7788 9.37113 12.7853 9.26845C12.8513 8.34034 12.9699 6.80638 13.1676 5.14351C15.6588 4.7568 17.8337 6.02007 17.8337 6.02007Z" fill="black"/>
</g>
<defs>
<clipPath id="clip0_16641_70104">
<rect width="177.667" height="26" fill="white"/>
</clipPath>
</defs>
</svg>
