<svg xmlns="http://www.w3.org/2000/svg" width="666" height="418" fill="none"><g clip-path="url(#a)"><path fill="#080092" d="m474.777 353.645-6.131 3.525v7.049l6.111 3.524 6.117-3.541v-7.046l-6.097-3.511Z"/><path fill="#7068FA" d="m570.932 41.78-3.914 2.252.003 4.498 3.898 2.25 3.904-2.26v-4.495l-3.891-2.244ZM209.427 317.286l-6.13 3.525v7.049l6.11 3.524 6.117-3.541v-7.042l-6.097-3.515Z"/><path fill="#BAB6FF" d="m168.72 20.717-6.13 3.524.003 7.05 6.107 3.524 6.117-3.541V24.23l-6.097-3.514Z"/><path fill="#7068FA" d="m171.734 38.673-3.63 2.087.003 4.172 3.614 2.087 3.621-2.097v-4.168l-3.608-2.081Z"/><path fill="url(#b)" d="M325.679 330.824 144.031 226.199c-12.301-7.086-12.315-24.822-.024-31.924L325.592 89.346a18.46 18.46 0 0 1 18.469 0l181.705 104.939c12.297 7.102 12.284 24.842-.02 31.927L344.104 330.827a18.456 18.456 0 0 1-18.425 0v-.003Z" opacity=".5"/><path fill="#010101" d="m522.249 148.716-37.897 21.788.013 43.564 37.757 21.784 37.808-21.891v-43.527l-37.681-21.718ZM428.445 95.061l-37.48 21.548.017 43.088 37.34 21.54 37.39-21.647v-43.051l-37.267-21.478ZM334.831 41.01l-37.477 21.547.013 43.085 37.34 21.544 37.39-21.647V62.487L334.831 41.01ZM241.223 95.218l-37.477 21.547.013 43.085 37.341 21.544 37.39-21.647v-43.052l-37.267-21.477ZM147.631 149.236l-37.477 21.548.014 43.084 37.34 21.544 37.39-21.647v-43.051l-37.267-21.478ZM241.225 203.292l-37.481 21.547.017 43.084 37.34 21.544 37.387-21.647v-43.051l-37.263-21.477ZM334.937 257.276l-37.48 21.547.017 43.085 37.34 21.543 37.387-21.65v-43.048l-37.264-21.477ZM428.61 203.221l-37.477 21.547.013 43.088 37.34 21.541 37.391-21.648v-43.051l-37.267-21.477ZM334.924 149.21l-37.481 21.547.017 43.085 37.34 21.543 37.387-21.65v-43.048l-37.263-21.477Z"/><path fill="#7068FA" d="m490.9 210.3 31.227 18.02v-36.042l-31.24-18.007.013 36.029Z"/><path fill="#080092" d="m522.127 228.32 31.27-18.106v-36.002l-31.27 18.066v36.042Z"/><path fill="#BAB6FF" d="m490.887 174.272 31.343-18.023 31.166 17.963-31.269 18.066-31.24-18.006Z"/><path fill="#7068FA" d="m397.363 264.109 31.226 18.016-.003-36.039-31.236-18.009.013 36.032Z"/><path fill="#080092" d="m428.589 282.125 31.27-18.103V228.02l-31.273 18.066.003 36.039Z"/><path fill="#BAB6FF" d="m397.35 228.076 31.343-18.019 31.166 17.963-31.273 18.066-31.236-18.01Z"/><path fill="#7068FA" d="m303.711 318.16 31.226 18.019-.003-36.042-31.237-18.006.014 36.029Z"/><path fill="#080092" d="m334.937 336.179 31.266-18.106v-36.002l-31.269 18.066.003 36.042Z"/><path fill="#BAB6FF" d="m303.697 282.131 31.343-18.023 31.163 17.963-31.269 18.066-31.237-18.006Z"/><path fill="#7068FA" d="m210.006 264.192 31.226 18.016v-36.042l-31.24-18.006.014 36.032Z"/><path fill="#080092" d="m241.232 282.208 31.27-18.106V228.1l-31.27 18.066v36.042Z"/><path fill="#BAB6FF" d="m209.992 228.16 31.343-18.019 31.167 17.959-31.27 18.066-31.24-18.006Z"/><path fill="#7068FA" d="m397.321 156.286 31.229 18.016-.003-36.042-31.236-18.006.01 36.032Z"/><path fill="#080092" d="m428.55 174.302 31.267-18.106v-36.002l-31.27 18.066.003 36.042Z"/><path fill="#BAB6FF" d="m397.311 120.254 31.343-18.02 31.163 17.96-31.27 18.066-31.236-18.006Z"/><path fill="#7068FA" d="m303.607 210.077 31.227 18.016v-36.042l-31.24-18.006.013 36.032Z"/><path fill="#080092" d="m334.834 228.093 31.27-18.106v-36.002l-31.27 18.066v36.042Z"/><path fill="#BAB6FF" d="m303.594 174.045 31.343-18.02 31.166 17.96-31.269 18.066-31.24-18.006Z"/><path fill="#7068FA" d="m209.838 156.169 31.226 18.016v-36.042l-31.24-18.006.014 36.032Z"/><path fill="#080092" d="m241.064 174.185 31.27-18.106v-35.998l-31.27 18.062v36.042Z"/><path fill="#BAB6FF" d="m209.824 120.137 31.343-18.019 31.167 17.962-31.27 18.063-31.24-18.006Z"/><path fill="#7068FA" d="m116.363 210.247 31.226 18.016v-36.042l-31.239-18.006.013 36.032Z"/><path fill="#080092" d="m147.59 228.263 31.27-18.106v-36.002l-31.27 18.066v36.042Z"/><path fill="#BAB6FF" d="m116.35 174.215 31.343-18.019 31.166 17.959-31.27 18.066-31.239-18.006Z"/><path fill="#7068FA" d="m303.551 102.068 30.723 17.996.503-36.022-31.236-18.006.01 36.032Z"/><path fill="#080092" d="m334.273 120.064 31.524-17.66.507-35.998-31.52 17.622-.511 36.036Z"/><path fill="#BAB6FF" d="m303.541 66.035 31.343-18.019 31.42 18.39-31.527 17.635-31.236-18.005Z"/><path fill="#BAB6FF" d="m594.363 43.038 6.137 3.541v-7.086l-6.141-3.54.004 7.085Z" opacity=".72"/><path fill="#fff" d="m600.506 39.476 6.14 3.545v-7.086l-6.14-3.541v7.082Z" opacity=".72"/><path fill="#fff" d="m600.506 32.394 6.16-3.544 6.128 3.53-6.148 3.555-6.14-3.54Z"/><path fill="#7068FA" d="M606.647 35.942v-7.086l-6.144-3.541.004 7.086-6.148 3.55 6.141 3.542 6.15-3.551h-.003Z"/><path fill="#080092" d="M612.794 32.38v-7.075l-6.147 3.551v7.086l-6.147 3.551v7.086l6.15-3.558v-.003l6.144-3.558v-7.08Z"/><path fill="#BAB6FF" d="m600.506 25.315 6.16-3.541 6.128 3.531-6.148 3.551-6.14-3.54Z"/><path fill="#E9E8FF" d="m81.476 344.245 9.154 5.282V338.96l-9.157-5.278.003 10.563Z"/><path fill="#fff" d="m90.64 338.937 9.154 5.282v-10.567l-9.157-5.278.003 10.563Z" opacity=".72"/><path fill="#fff" d="m90.637 328.373 9.187-5.285 9.137 5.269-9.167 5.295-9.157-5.279Z"/><path fill="#7068FA" d="M99.794 333.662v-10.564l-9.157-5.278.003 10.563-9.167 5.299 9.157 5.278 9.167-5.298h-.003Z"/><path fill="#080092" d="M108.962 328.357v-10.554l-9.167 5.295v10.567l-9.164 5.295v10.567l9.167-5.308v-.004l9.164-5.305v-10.553Z"/><path fill="#E9E8FF" d="m90.637 317.82 9.187-5.285 9.137 5.268-9.167 5.295-9.157-5.278Z"/><path fill="#fff" d="m549.26 355.446 9.197-5.289 9.147 5.272-9.177 5.302-9.167-5.285Z"/><path fill="#BAB6FF" d="M558.427 360.751v-10.577l-9.167-5.285.003 10.56-.003-.003.003 10.577 9.164 5.285v-10.557Z"/><path fill="#fff" d="m558.433 350.158 9.164 5.288v-10.577l-9.167-5.285.003 10.574Z" opacity=".72"/><path fill="#080092" d="m576.776 339.567-9.178 5.302v.007l-9.17 5.298v21.134l9.177-5.312v-10.553l9.171-5.312v-10.564Z"/><path fill="#E9E8FF" d="m576.775 339.567-9.147-5.272-9.198 5.289.231.133-.204-.116-9.197 5.288 9.167 5.285 9.177-5.302-.006-.003 9.177-5.302Z"/><path fill="#fff" d="m42.652 45.285 9.632-5.538 9.577 5.518-9.607 5.552-9.602-5.532Z"/><path fill="#BAB6FF" d="M52.254 50.837V39.763l-9.602-5.535.004 11.057h-.004l.004 11.07 9.598 5.539V50.837Z"/><path fill="#fff" d="m52.261 39.747 9.595 5.535V34.208l-9.598-5.535.003 11.074Z" opacity=".72"/><path fill="#080092" d="m71.463 28.656-9.608 5.552v.007l-9.601 5.548v22.131l9.608-5.565v-11.05l9.601-5.559V28.656Z"/><path fill="#E9E8FF" d="m71.463 28.656-9.575-5.518-9.631 5.535.24.14-.213-.123-9.632 5.538 9.602 5.535 9.607-5.552-.006-.003 9.608-5.552Z"/><path stroke="#080092" stroke-linecap="round" stroke-linejoin="round" stroke-width="2" d="m173.062 221.291 12.101 6.802 56.166-32.498 31.013-3.401M260.428 170.277l11.723 6.989 31.961-17.759-6.431-25.319 13.049-7.559M297.798 293.092l-19.409-10.921 6.781-10.92 56.539-32.578M391.46 239.24l-25.253-14.875 49.751-28.623-37.313-21.654.377-36.342-6.785-3.765M278.822 232.058l13.176-7.743 18.017 10.647"/><path fill="#080092" d="M272.999 193.648a1.434 1.434 0 1 0 .002-2.868 1.434 1.434 0 0 0-.002 2.868ZM310.287 236.766a1.435 1.435 0 1 0 0-2.87 1.435 1.435 0 0 0 0 2.87ZM341.708 240.107a1.434 1.434 0 1 0 .002-2.868 1.434 1.434 0 0 0-.002 2.868ZM311.14 127.826a1.434 1.434 0 1 0 .002-2.868 1.434 1.434 0 0 0-.002 2.868ZM372.533 135.228a1.434 1.434 0 1 0-1.435-1.433c0 .792.642 1.433 1.435 1.433Z"/><path fill="#E9E8FF" d="M148.283 174.492c1.913-7.59 4.966-14.852 8.994-21.558 3.968-6.605 8.847-12.637 14.414-17.962a90.797 90.797 0 0 1 18.334-13.568c7.212-4.045 15.098-7.303 23.234-8.897 8.667-1.697 18.208-.903 25.387 4.682.834.65 1.618 1.361 2.359 2.114.741.754 1.936-.413 1.181-1.18-6.461-6.586-15.948-8.82-24.912-7.893-4.983.514-9.838 1.841-14.54 3.538a90.647 90.647 0 0 0-10.673 4.648 92.493 92.493 0 0 0-19.219 13.225c-5.877 5.245-11.083 11.257-15.381 17.859-4.355 6.685-7.766 14.005-10.005 21.664-.28.957-.541 1.92-.784 2.891-.264 1.043 1.348 1.487 1.611.443v-.006ZM335.334 282.418c1.913-7.589 4.966-14.852 8.994-21.557 3.968-6.606 8.847-12.638 14.414-17.963a90.77 90.77 0 0 1 18.334-13.568c7.212-4.045 15.098-7.302 23.234-8.896 8.667-1.697 18.208-.904 25.386 4.681a24.152 24.152 0 0 1 2.36 2.114c.741.754 1.935-.413 1.181-1.18-6.461-6.586-15.948-8.82-24.912-7.893-4.983.514-9.838 1.841-14.541 3.538a90.705 90.705 0 0 0-10.672 4.648 92.493 92.493 0 0 0-19.219 13.225c-5.877 5.245-11.083 11.257-15.381 17.859-4.299 6.602-7.766 14.005-10.005 21.664a76.486 76.486 0 0 0-.785 2.891c-.263 1.044 1.349 1.487 1.612.444v-.007ZM335.646 173.411c1.919-7.496 4.992-14.651 9.034-21.25 3.994-6.522 8.904-12.461 14.48-17.689a90.686 90.686 0 0 1 18.418-13.335 88.648 88.648 0 0 1 10.175-4.775c4.232-1.66 8.604-3.051 13.076-3.891 8.613-1.614 18.077-.78 25.216 4.731a23.27 23.27 0 0 1 2.249 1.994c.754.754 1.926-.413 1.171-1.17-6.42-6.432-15.778-8.623-24.618-7.783-4.999.477-9.882 1.771-14.607 3.435a91.001 91.001 0 0 0-10.586 4.501 92.598 92.598 0 0 0-19.306 12.985c-5.857 5.111-11.123 11.063-15.455 17.579-4.331 6.515-7.799 13.785-10.051 21.354-.284.95-.548 1.907-.791 2.867-.264 1.031 1.331 1.474 1.595.441v.006Z"/><path fill="#E9E8FF" d="M242.56 118.97c1.919-7.496 4.993-14.652 9.034-21.25 4.041-6.6 8.904-12.462 14.48-17.69a90.691 90.691 0 0 1 18.418-13.334 88.63 88.63 0 0 1 10.175-4.775c4.232-1.66 8.604-3.051 13.076-3.892 8.613-1.614 18.077-.78 25.216 4.732a23.162 23.162 0 0 1 2.249 1.994c.754.754 1.926-.413 1.171-1.17-6.42-6.433-15.778-8.623-24.618-7.783-4.999.477-9.882 1.77-14.607 3.434a90.85 90.85 0 0 0-10.586 4.502 92.598 92.598 0 0 0-19.306 12.984c-5.857 5.112-11.123 11.064-15.455 17.58-4.331 6.515-7.799 13.784-10.051 21.353a70.393 70.393 0 0 0-.791 2.868c-.264 1.03 1.331 1.474 1.595.44v.007ZM241.582 229.02c1.913-7.589 4.966-14.852 8.994-21.557 3.968-6.606 8.847-12.638 14.414-17.963a90.362 90.362 0 0 1 18.334-13.568c7.212-4.045 15.098-7.302 23.234-8.896 8.667-1.697 18.208-.904 25.386 4.681a24.152 24.152 0 0 1 2.36 2.114c.741.754 1.935-.413 1.181-1.18-6.461-6.586-15.948-8.82-24.912-7.893-4.983.514-9.838 1.841-14.541 3.538a90.872 90.872 0 0 0-10.672 4.648 92.493 92.493 0 0 0-19.219 13.225c-5.877 5.245-11.083 11.257-15.381 17.859-4.299 6.602-7.766 14.005-10.005 21.664a76.486 76.486 0 0 0-.785 2.891c-.263 1.044 1.349 1.487 1.612.444v-.007ZM429.392 226.819c1.919-7.495 4.993-14.651 9.034-21.25 3.995-6.522 8.904-12.461 14.48-17.689a90.713 90.713 0 0 1 18.418-13.335 88.752 88.752 0 0 1 10.176-4.775c4.231-1.66 8.603-3.051 13.075-3.891 8.613-1.614 18.078-.78 25.216 4.732a23.004 23.004 0 0 1 2.249 1.994c.754.753 1.926-.414 1.171-1.171-6.42-6.432-15.778-8.623-24.618-7.782-4.999.476-9.882 1.77-14.607 3.434a90.835 90.835 0 0 0-10.586 4.502 92.554 92.554 0 0 0-19.306 12.984c-5.893 5.145-11.123 11.064-15.454 17.579-4.369 6.572-7.8 13.785-10.052 21.354-.284.95-.548 1.907-.791 2.868-.264 1.03 1.331 1.473 1.595.44v.006Z"/><path fill="#E9E8FF" d="M241.524 229.197c5.046-6.499 12.271-10.964 20.147-13.198 8.053-2.288 16.626-2.248 24.672.03 8.367 2.367 16.009 6.946 22.4 12.797 6.801 6.229 12.11 13.862 16.038 22.178 4.192 8.876 6.802 18.449 8.367 28.116.19 1.184.367 2.374.53 3.561.06.444.631.687 1.021.58.481-.133.641-.573.581-1.02-1.348-9.92-3.734-19.72-7.659-28.946-3.724-8.757-8.893-16.926-15.641-23.672-6.304-6.302-13.913-11.363-22.356-14.301-8.19-2.848-17.017-3.461-25.507-1.641-8.206 1.758-16.042 5.802-21.775 11.991a36.279 36.279 0 0 0-1.993 2.351c-.273.353-.343.83 0 1.174.287.286.898.356 1.175 0ZM335.567 173.691c5.073-6.488 12.331-10.927 20.22-13.137 7.89-2.211 16.583-2.208 24.616.053 8.032 2.261 15.965 6.876 22.352 12.681 6.818 6.199 12.155 13.808 16.096 22.111 4.178 8.799 6.781 18.296 8.343 27.889.194 1.184.367 2.367.531 3.554.06.444.627.684 1.017.577.478-.13.641-.573.578-1.017-1.355-9.896-3.755-19.67-7.703-28.866-3.717-8.666-8.873-16.736-15.574-23.401-6.328-6.292-13.963-11.337-22.427-14.252-8.176-2.817-16.976-3.417-25.443-1.62-8.219 1.747-16.078 5.775-21.828 11.964a35.774 35.774 0 0 0-1.953 2.294c-.273.353-.343.827 0 1.17.287.287.895.354 1.172 0h.003ZM429.481 119.053c5.093-6.502 12.374-10.947 20.287-13.161 8.069-2.258 16.639-2.211 24.699.053 8.363 2.351 16.015 6.886 22.426 12.705 6.841 6.208 12.191 13.827 16.149 22.15 4.191 8.813 6.804 18.326 8.373 27.94.193 1.183.37 2.37.534 3.561.06.443.631.687 1.021.58.481-.13.641-.574.581-1.02-1.359-9.914-3.768-19.707-7.726-28.917-3.731-8.683-8.907-16.769-15.628-23.444-6.351-6.306-14.013-11.361-22.5-14.278-8.203-2.821-17.033-3.425-25.526-1.621-8.493 1.804-16.132 5.782-21.902 11.987a34.273 34.273 0 0 0-1.959 2.298c-.277.353-.344.83 0 1.174.287.286.897.353 1.174 0l-.003-.007Z"/><path fill="#E9E8FF" d="M242.366 119.3c5.046-6.499 12.271-10.964 20.147-13.198 8.053-2.287 16.626-2.247 24.672.03 8.046 2.278 16.009 6.946 22.399 12.798 6.802 6.229 12.111 13.861 16.039 22.177 4.192 8.877 6.801 18.45 8.366 28.117.191 1.183.368 2.374.531 3.561.06.443.631.687 1.021.58.481-.133.641-.574.581-1.02-1.348-9.92-3.734-19.72-7.659-28.947-3.724-8.756-8.894-16.925-15.642-23.671-6.304-6.302-13.912-11.364-22.356-14.302-8.189-2.847-17.016-3.461-25.506-1.64-8.49 1.821-16.042 5.802-21.775 11.991a35.995 35.995 0 0 0-1.993 2.35c-.273.354-.343.831 0 1.174.287.287.898.357 1.175 0ZM336.279 64.562c5.016-6.466 12.198-10.914 20.03-13.141 7.833-2.228 16.529-2.238 24.532.03 8.323 2.357 15.919 6.915 22.273 12.74 6.764 6.203 12.041 13.802 15.948 22.078 4.169 8.836 6.762 18.369 8.317 27.993.19 1.18.364 2.364.527 3.547.06.444.627.684 1.018.577.477-.13.637-.573.577-1.017-1.341-9.873-3.711-19.633-7.615-28.82-3.705-8.716-8.841-16.845-15.555-23.564-6.264-6.272-13.833-11.314-22.229-14.238-8.397-2.924-16.92-3.444-25.36-1.634-8.163 1.75-15.952 5.779-21.649 11.938a36.056 36.056 0 0 0-1.982 2.34c-.273.354-.344.824 0 1.167.284.284.895.354 1.168 0v.004ZM148.323 174.708c5.053-6.525 12.301-11.013 20.207-13.237 7.906-2.224 16.566-2.194 24.579.103 8.309 2.384 15.891 6.959 22.229 12.794 6.794 6.252 12.087 13.915 15.998 22.251 4.152 8.853 6.735 18.393 8.287 28.023.19 1.18.364 2.364.524 3.551.06.443.63.687 1.021.58.48-.13.641-.573.581-1.02-1.345-9.937-3.728-19.757-7.656-29-3.694-8.7-8.807-16.816-15.488-23.538-6.281-6.322-13.873-11.41-22.309-14.365-8.153-2.851-16.94-3.477-25.397-1.674-8.209 1.751-16.045 5.806-21.765 12.008a34.748 34.748 0 0 0-1.986 2.351c-.273.353-.343.827 0 1.173.287.287.898.357 1.175 0Z"/></g><defs><linearGradient id="b" x1="95.421" x2="733.925" y1="380.474" y2="-74.203" gradientUnits="userSpaceOnUse"><stop offset=".14" stop-color="#7068FA" stop-opacity=".99"/><stop offset=".22" stop-color="#7068FA" stop-opacity=".72"/><stop offset=".31" stop-color="#7068FA" stop-opacity=".5"/><stop offset=".4" stop-color="#7068FA" stop-opacity=".32"/><stop offset=".51" stop-color="#7068FA" stop-opacity=".18"/><stop offset=".62" stop-color="#7068FA" stop-opacity=".08"/><stop offset=".76" stop-color="#7068FA" stop-opacity=".02"/><stop offset="1" stop-color="#7068FA" stop-opacity="0"/></linearGradient><clipPath id="a"><path fill="#fff" d="M0 0h666v418H0z"/></clipPath></defs></svg>