<svg xmlns="http://www.w3.org/2000/svg" width="858" height="912" fill="none"><path fill="url(#a)" fill-rule="evenodd" d="m66.053 216.359-57.63-99.818a10.44 10.44 0 0 1 0-10.441l57.63-99.817a10.441 10.441 0 0 1 9.043-5.221h115.259c3.73 0 7.178 1.99 9.043 5.22l57.629 99.818a10.437 10.437 0 0 1 0 10.441l-57.629 99.818a10.443 10.443 0 0 1-9.043 5.221H75.096c-3.73 0-7.177-1.991-9.043-5.221Zm9.043 6.282c-4.11 0-7.907-2.192-9.962-5.751l-57.63-99.818a11.503 11.503 0 0 1 0-11.503l57.63-99.817A11.503 11.503 0 0 1 75.096 0h115.259c4.11 0 7.907 2.193 9.962 5.752l57.63 99.817a11.502 11.502 0 0 1 0 11.503l-57.63 99.818a11.503 11.503 0 0 1-9.962 5.751H75.096Zm133.784 9.944 57.63 99.817a10.44 10.44 0 0 0 9.043 5.221h115.259c3.73 0 7.177-1.99 9.042-5.221l57.63-99.817a10.442 10.442 0 0 0 0-10.441l-57.63-99.818a10.441 10.441 0 0 0-9.042-5.22H275.553c-3.731 0-7.178 1.99-9.043 5.22l-57.63 99.818a10.442 10.442 0 0 0 0 10.441Zm56.71 100.348a11.505 11.505 0 0 0 9.963 5.752h115.259c4.109 0 7.907-2.193 9.962-5.752l57.629-99.817a11.502 11.502 0 0 0 0-11.503l-57.629-99.818a11.504 11.504 0 0 0-9.962-5.751H275.553c-4.11 0-7.908 2.192-9.963 5.751l-57.629 99.818a11.502 11.502 0 0 0 0 11.503l57.629 99.817Zm-202.333 113.3-57.63-99.817a10.442 10.442 0 0 1 0-10.442l57.63-99.817a10.44 10.44 0 0 1 9.043-5.221h115.259c3.73 0 7.178 1.99 9.043 5.221l57.629 99.817a10.439 10.439 0 0 1 0 10.442l-57.629 99.817a10.442 10.442 0 0 1-9.043 5.221H72.3a10.44 10.44 0 0 1-9.043-5.221Zm9.043 6.283c-4.11 0-7.907-2.193-9.962-5.752l-57.63-99.817a11.505 11.505 0 0 1 0-11.504l57.63-99.817a11.504 11.504 0 0 1 9.962-5.752h115.259c4.11 0 7.907 2.193 9.962 5.752l57.63 99.817a11.504 11.504 0 0 1 0 11.504l-57.63 99.817a11.504 11.504 0 0 1-9.962 5.752H72.3Zm133.077 9.224 57.63 99.818a10.442 10.442 0 0 0 9.042 5.221h115.259c3.731 0 7.178-1.991 9.043-5.221l57.63-99.818a10.442 10.442 0 0 0 0-10.441l-57.63-99.818a10.442 10.442 0 0 0-9.043-5.22H272.049c-3.73 0-7.177 1.99-9.042 5.22l-57.63 99.818a10.442 10.442 0 0 0 0 10.441Zm56.71 100.349a11.504 11.504 0 0 0 9.962 5.751h115.259c4.11 0 7.908-2.192 9.963-5.751l57.629-99.818a11.502 11.502 0 0 0 0-11.503l-57.629-99.817a11.505 11.505 0 0 0-9.963-5.752H272.049a11.503 11.503 0 0 0-9.962 5.752l-57.629 99.817a11.502 11.502 0 0 0 0 11.503l57.629 99.818Zm200.667 114.793-57.63-99.817a10.443 10.443 0 0 1 0-10.442l57.63-99.817a10.44 10.44 0 0 1 9.042-5.221h115.259a10.44 10.44 0 0 1 9.043 5.221l57.63 99.817a10.443 10.443 0 0 1 0 10.442l-57.63 99.817a10.44 10.44 0 0 1-9.043 5.221H471.796a10.44 10.44 0 0 1-9.042-5.221Zm9.042 6.282c-4.11 0-7.907-2.192-9.962-5.751l-57.629-99.817a11.504 11.504 0 0 1 0-11.504l57.629-99.817a11.504 11.504 0 0 1 9.962-5.752h115.259c4.11 0 7.908 2.193 9.962 5.752l57.63 99.817a11.504 11.504 0 0 1 0 11.504l-57.63 99.817a11.501 11.501 0 0 1-9.962 5.751H471.796ZM60.09 905.414 2.46 805.597a10.442 10.442 0 0 1 0-10.442l57.63-99.817a10.44 10.44 0 0 1 9.043-5.221h115.259c3.73 0 7.177 1.99 9.043 5.221l57.629 99.817a10.443 10.443 0 0 1 0 10.442l-57.629 99.817a10.443 10.443 0 0 1-9.043 5.221H69.132c-3.73 0-7.177-1.99-9.042-5.221Zm9.043 6.282c-4.11 0-7.907-2.192-9.962-5.751L1.54 806.127a11.503 11.503 0 0 1 0-11.503l57.63-99.817a11.504 11.504 0 0 1 9.962-5.752h115.259c4.11 0 7.907 2.193 9.962 5.752l57.63 99.817a11.507 11.507 0 0 1 0 11.503l-57.63 99.818a11.503 11.503 0 0 1-9.962 5.751H69.132Zm135.644-221.325 57.63 99.818a10.441 10.441 0 0 0 9.042 5.22h115.259c3.731 0 7.178-1.99 9.043-5.22l57.63-99.818a10.442 10.442 0 0 0 0-10.441l-57.63-99.818a10.442 10.442 0 0 0-9.043-5.22H271.449c-3.73 0-7.177 1.99-9.042 5.22l-57.63 99.818a10.442 10.442 0 0 0 0 10.441Zm56.71 100.348a11.503 11.503 0 0 0 9.962 5.752h115.259c4.11 0 7.908-2.192 9.963-5.752l57.629-99.817a11.502 11.502 0 0 0 0-11.503l-57.629-99.818a11.504 11.504 0 0 0-9.963-5.751H271.449a11.504 11.504 0 0 0-9.962 5.751l-57.629 99.818a11.502 11.502 0 0 0 0 11.503l57.629 99.817ZM61.222 675.587 3.592 575.77a10.442 10.442 0 0 1 0-10.442l57.63-99.817a10.441 10.441 0 0 1 9.043-5.221h115.259c3.73 0 7.177 1.991 9.043 5.221l57.629 99.817a10.443 10.443 0 0 1 0 10.442l-57.629 99.817a10.443 10.443 0 0 1-9.043 5.221H70.264a10.44 10.44 0 0 1-9.042-5.221Zm9.043 6.283c-4.11 0-7.907-2.193-9.962-5.752l-57.63-99.817a11.503 11.503 0 0 1 0-11.503l57.63-99.818a11.503 11.503 0 0 1 9.962-5.751h115.259c4.11 0 7.907 2.192 9.962 5.751l57.63 99.818a11.507 11.507 0 0 1 0 11.503l-57.63 99.817a11.504 11.504 0 0 1-9.962 5.752H70.264Zm536.671-218.636 57.63 99.817a10.44 10.44 0 0 0 9.043 5.221h115.259c3.73 0 7.177-1.99 9.042-5.221l57.63-99.817a10.443 10.443 0 0 0 0-10.442l-57.629-99.817a10.443 10.443 0 0 0-9.043-5.221H673.609a10.44 10.44 0 0 0-9.043 5.221l-57.63 99.817a10.443 10.443 0 0 0 0 10.442Zm56.711 100.348a11.502 11.502 0 0 0 9.962 5.752h115.259c4.11 0 7.907-2.193 9.962-5.752l57.629-99.817a11.504 11.504 0 0 0 0-11.504l-57.629-99.817a11.503 11.503 0 0 0-9.962-5.751H673.609c-4.11 0-7.908 2.192-9.962 5.751l-57.63 99.817a11.504 11.504 0 0 0 0 11.504l57.63 99.817ZM464.103 447.008l-57.63-99.818a10.442 10.442 0 0 1 0-10.441l57.63-99.817a10.44 10.44 0 0 1 9.042-5.221h115.259a10.44 10.44 0 0 1 9.043 5.221l57.63 99.817a10.443 10.443 0 0 1 0 10.442l-57.63 99.817a10.443 10.443 0 0 1-9.043 5.221H473.145c-3.73 0-7.177-1.991-9.042-5.221Zm9.042 6.282c-4.11 0-7.907-2.192-9.962-5.751l-57.629-99.818a11.502 11.502 0 0 1 0-11.503l57.629-99.817a11.505 11.505 0 0 1 9.962-5.752h115.259c4.11 0 7.908 2.193 9.962 5.752l57.63 99.817a11.502 11.502 0 0 1 0 11.503l-57.63 99.818a11.501 11.501 0 0 1-9.962 5.751H473.145Z" clip-rule="evenodd" opacity=".5"/><defs><radialGradient id="a" cx="0" cy="0" r="1" gradientTransform="matrix(426.00027 -215.50001 190.96519 377.49985 201.5 534.5)" gradientUnits="userSpaceOnUse"><stop stop-color="#8E87FF"/><stop offset="1" stop-color="#8E87FF" stop-opacity="0"/></radialGradient></defs></svg>