<svg xmlns="http://www.w3.org/2000/svg" fill="none" viewBox="0 0 20 20">
  <path fill="#8C8C92" d="M16.87 4.32c-1.27-.58-2.62-1-4.04-1.25-.02 0-.05 0-.06.03-.18.31-.37.72-.5 1.03a15.09 15.09 0 0 0-4.53 0c-.14-.32-.34-.72-.52-1.03a.06.06 0 0 0-.06-.03A16.3 16.3 0 0 0 3.1 4.35 16.73 16.73 0 0 0 .2 15.67c1.7 1.25 3.33 2 4.95 2.5.02.01.05 0 .07-.02.38-.52.72-1.07 1-1.65a.06.06 0 0 0-.03-.08c-.54-.2-1.05-.46-1.54-.74a.06.06 0 0 1 0-.1l.3-.25a.06.06 0 0 1 .06 0 11.72 11.72 0 0 0 9.96 0c.02-.02.05-.01.07 0l.3.24c.04.03.04.09 0 .11-.5.29-1 .53-1.55.74a.06.06 0 0 0-.03.08c.3.58.64 1.13 1.01 1.65.02.02.04.03.07.02a16.38 16.38 0 0 0 4.98-2.54 16.62 16.62 0 0 0-2.95-11.3ZM6.7 13.37c-.97 0-1.78-.9-1.78-2s.79-2 1.78-2c1 0 1.8.91 1.78 2 0 1.1-.79 2-1.78 2Zm6.59 0c-.98 0-1.78-.9-1.78-2s.79-2 1.78-2c1 0 1.8.91 1.78 2 0 1.1-.78 2-1.78 2Z"/>
</svg>
