<svg xmlns="http://www.w3.org/2000/svg" fill="none" viewBox="0 0 20 20">
  <path fill="#8C8C92" fill-rule="evenodd" d="M10 .5A9.97 9.97 0 0 0 .2 8.8a9.84 9.84 0 0 0 6.65 10.96c.5.09.68-.22.68-.48l-.01-1.84c-2.76.6-3.35-1.16-3.35-1.16-.45-1.15-1.1-1.45-1.1-1.45-.9-.61.07-.6.07-.6 1 .07 1.52 1.02 1.52 1.02.89 1.5 2.33 1.07 2.9.82a2.1 2.1 0 0 1 .62-1.33c-2.2-.24-4.53-1.1-4.53-4.88a3.81 3.81 0 0 1 1.03-2.65c-.1-.25-.44-1.25.1-2.62 0 0 .83-.26 2.73 1.02a9.48 9.48 0 0 1 4.97 0c1.9-1.28 2.73-1.02 2.73-1.02.55 1.36.2 2.37.1 2.62a3.8 3.8 0 0 1 1.03 2.66c0 3.79-2.33 4.63-4.54 4.87.36.3.67.9.67 1.83v2.71c0 .27.17.57.68.48A9.93 9.93 0 0 0 19.8 8.8 9.97 9.97 0 0 0 10 .5h-.01Z" clip-rule="evenodd"/>
  <path fill="#8C8C92" d="M3.82 14.69c-.02.05-.1.06-.16.03-.07-.04-.11-.1-.1-.15.03-.05.1-.07.17-.03.07.03.12.1.1.15ZM4.23 15.13a.17.17 0 0 1-.2-.04c-.07-.07-.08-.17-.04-.2.05-.05.14-.03.2.04.07.07.09.16.04.2ZM4.62 15.7c-.06.05-.17 0-.23-.08a.16.16 0 0 1 0-.24c.07-.04.17 0 .23.09.05.08.06.2 0 .23ZM5.15 16.25c-.06.06-.17.04-.26-.04s-.11-.19-.06-.25c.06-.06.17-.04.26.04.1.08.11.2.06.25ZM5.9 16.57c-.03.08-.14.11-.26.08-.1-.03-.18-.12-.16-.2.02-.08.14-.12.25-.08.11.04.18.12.16.2ZM6.7 16.63c0 .08-.08.15-.2.15-.12 0-.22-.06-.22-.15 0-.08.1-.14.21-.15.12 0 .22.07.22.15ZM7.46 16.5c.02.08-.06.17-.18.19-.12.02-.22-.03-.24-.11-.01-.08.07-.16.19-.18.11-.03.22.02.23.1Z"/>
</svg>
