<svg xmlns="http://www.w3.org/2000/svg" fill="none" viewBox="0 0 20 20">
  <g fill="#8C8C92" clip-path="url(#a)">
    <path d="M10 1.8c2.67 0 2.99.01 4.04.06.98.05 1.5.2 1.86.35.47.18.8.4 1.15.74.35.35.57.69.75 1.15.13.36.3.89.34 1.86.05 1.06.06 1.37.06 4.04 0 2.68-.01 2.99-.06 4.05-.04.97-.2 1.5-.34 1.85-.19.47-.4.8-.75 1.15-.35.35-.68.57-1.15.75-.35.14-.88.3-1.86.35-1.05.04-1.37.06-4.04.06s-2.99-.02-4.04-.06c-.98-.05-1.5-.21-1.86-.35a3.1 3.1 0 0 1-1.15-.75 3.06 3.06 0 0 1-.75-1.15c-.13-.35-.3-.88-.34-1.85A69.4 69.4 0 0 1 1.8 10c0-2.67.01-2.98.06-4.04.04-.97.2-1.5.34-1.86.19-.46.4-.8.75-1.15.35-.35.68-.56 1.15-.74.35-.14.88-.3 1.86-.35C7 1.81 7.33 1.8 10 1.8ZM10 0C7.28 0 6.94.01 5.88.06a7.33 7.33 0 0 0-2.43.46c-.66.26-1.21.6-1.77 1.16-.56.56-.9 1.11-1.16 1.77a7.33 7.33 0 0 0-.46 2.43C.01 6.94 0 7.28 0 10s.01 3.06.06 4.12c.05 1.07.22 1.8.46 2.43.26.66.6 1.22 1.16 1.77.56.56 1.11.9 1.77 1.16.63.25 1.36.42 2.43.46C6.95 20 7.28 20 10 20s3.06 0 4.13-.06a7.38 7.38 0 0 0 2.43-.46c.66-.25 1.21-.6 1.77-1.16.55-.55.9-1.11 1.15-1.77.25-.63.42-1.36.47-2.43.05-1.06.06-1.4.06-4.12s-.01-3.06-.06-4.12a7.38 7.38 0 0 0-.47-2.43 4.87 4.87 0 0 0-1.15-1.77A4.96 4.96 0 0 0 16.56.52a7.34 7.34 0 0 0-2.43-.46A78.7 78.7 0 0 0 10 0Z"/>
    <path d="M10 4.87a5.14 5.14 0 1 0 0 10.27 5.14 5.14 0 0 0 0-10.27Zm0 8.46a3.33 3.33 0 1 1 0-6.66 3.33 3.33 0 0 1 0 6.66ZM15.34 5.86a1.2 1.2 0 1 0 0-2.4 1.2 1.2 0 0 0 0 2.4Z"/>
  </g>
  <defs>
    <clipPath id="a">
      <path fill="#fff" d="M0 0h20v20H0z"/>
    </clipPath>
  </defs>
</svg>
