<svg xmlns="http://www.w3.org/2000/svg" fill="none" viewBox="0 0 18 17">
  <path fill="#8C8C92" d="M16.67 0H1.33C.98 0 .63.13.39.37.14.6 0 .92 0 1.25v14.5c0 .33.14.65.39.88.25.24.59.37.94.37h15.34c.35 0 .7-.13.94-.37.25-.23.39-.55.39-.88V1.25c0-.33-.14-.65-.39-.88a1.37 1.37 0 0 0-.94-.37ZM5.37 14.48H2.66V6.36h2.7v8.12ZM4 5.24c-.3 0-.6-.1-.86-.25-.26-.17-.45-.4-.57-.66a1.4 1.4 0 0 1 .34-1.6 1.64 1.64 0 0 1 1.7-.31c.28.1.52.3.7.54a1.41 1.41 0 0 1 .14 1.38 1.54 1.54 0 0 1-1.45.9Zm11.33 9.25h-2.7v-4.44c0-1.3-.6-1.7-1.35-1.7-.8 0-1.6.56-1.6 1.74v4.4H7V6.37h2.6v1.12h.04a2.98 2.98 0 0 1 2.57-1.35c1.51 0 3.14.85 3.14 3.33v5.02Z"/>
</svg>
