<svg xmlns="http://www.w3.org/2000/svg" fill="none" viewBox="0 0 27 26">
  <path fill="#000" fill-rule="evenodd" d="M12.326 9.54a.414.414 0 0 1-.275.114.368.368 0 0 1-.325-.147C10.437 7.83 9.518.81 12.298.09c3.107-.767 4.368 3.71 4.95 5.778l.094.328a8.161 8.161 0 0 0-4.506-1.093 73.251 73.251 0 0 0-.381 4.169.417.417 0 0 1-.129.269Zm3.1.71a.403.403 0 0 0 .537.068 79.366 79.366 0 0 1 3.475-2.331 8.32 8.32 0 0 1 1.984 4.213l.2-.287c1.238-1.761 3.9-5.55 1.347-7.498-2.31-1.723-7.152 3.425-7.633 5.475a.395.395 0 0 0 .09.36Zm1.882 2.738a.416.416 0 0 0-.14.627c.05.065.118.113.196.14.896.27 2.41.731 3.979 1.284a8.263 8.263 0 0 1-2.051 4.19l.388-.025c2.16-.135 6.714-.419 6.65-3.614-.1-2.883-7.117-3.492-9.022-2.602Zm-1.373 3.45c.064 0 .127.014.185.042 1.883.935 5.772 6.838 3.598 8.72-2.467 2.042-5.543-1.411-6.973-3.016l-.234-.262s2.185.281 4.528-.992A70.395 70.395 0 0 0 15.559 17a.42.42 0 0 1 .19-.519.423.423 0 0 1 .186-.042Zm-3.267 1.27a.395.395 0 0 0-.235-.282.402.402 0 0 0-.516.18 88.272 88.272 0 0 1-2.14 3.605 8.214 8.214 0 0 1-3.599-2.951l-.056.34c-.359 2.124-1.132 6.705 1.995 7.365 2.825.552 4.988-6.184 4.551-8.257Zm-3.03-2.11a.417.417 0 0 1-.075.172c-1.334 1.634-7.936 4.112-9.259 1.555-1.444-2.88 2.622-5.125 4.494-6.158l.292-.162a8.353 8.353 0 0 0-.056 4.664 86.05 86.05 0 0 0 4.136-.563.402.402 0 0 1 .46.304c.017.061.02.125.008.188Zm-.502-3.489a.38.38 0 0 0 .325-.169.395.395 0 0 0-.045-.54 72.96 72.96 0 0 1-3.015-2.907 8.21 8.21 0 0 1 3.666-2.861 55.206 55.206 0 0 1-.346-.143C7.73 4.66 3.493 2.896 2.153 5.8.987 8.437 7.04 12.075 9.136 12.109Z" clip-rule="evenodd"/>
</svg>
