<svg width="1000" height="172" viewBox="0 0 1000 172" fill="none" xmlns="http://www.w3.org/2000/svg">
<path fill-rule="evenodd" clip-rule="evenodd" d="M81.0999 63.3005C80.6167 63.7907 79.9834 64.1091 79.3001 64.1989C78.4641 64.1657 77.6743 63.8083 77.0999 63.1989C68.7 52.0993 62.6001 6.1989 80.8999 1.49968C101.004 -3.36164 109.304 25.0856 113.322 38.8591C113.601 39.8161 113.86 40.7009 114.1 41.4997C105.097 36.2048 94.7268 33.6989 84.3001 34.3005C83.0999 45.0993 82.3001 55.4997 81.8999 61.5993C81.7984 62.2302 81.521 62.82 81.0999 63.3005ZM101.4 67.9997C101.106 67.693 100.899 67.3122 100.8 66.9001C100.698 66.4723 100.698 66.027 100.8 65.5993C104 52.0993 133.1 16.3005 151 29.8005C167.788 42.4626 150.622 67.0856 142.485 78.7575C141.947 79.5309 141.447 80.2477 141 80.9001C139.266 70.6071 134.734 60.9899 127.9 53.0993C120.475 57.7594 113.611 62.4841 108.59 65.9391C107.255 66.8571 106.05 67.6852 105 68.4001L104.875 68.4802C104.787 68.5329 104.697 68.5817 104.605 68.6247C104.534 68.6579 104.462 68.6891 104.389 68.7145L104.313 68.7438C103.927 68.8766 103.514 68.9313 103.1 68.9001C102.999 68.8805 102.9 68.8571 102.802 68.8298L102.677 68.7927C102.55 68.7497 102.427 68.7009 102.307 68.6442C101.971 68.4841 101.664 68.2673 101.4 67.9997ZM342.2 88.3005C342.2 56.9997 356 37.4997 383.1 37.4997C410.2 37.4997 423.7 56.9997 423.7 88.3005C423.7 119.599 410 138.9 383.1 138.9C356.2 138.9 342.2 119.599 342.2 88.3005ZM359 88.3005C359 100.5 361.8 123.199 383.1 123.199C404.4 123.199 407 100.599 407 88.3005C407 75.9997 404.2 53.0993 383.1 53.0993C362 53.0993 359 76.0993 359 88.3005ZM280.9 39.4997L300.2 109.4L317.9 39.4997H334.5L309.6 136.9H293.4L272.3 69.8005L251 136.9H234.7L209.8 39.4997H226.5L244.2 109.4L263.5 39.4997H280.9ZM510.6 67.8005C510.6 46.9001 497.6 39.4997 474.1 39.4997H439.8V136.9H456.6V97.0993H473.3L492.2 136.9H510.8L491.2 95.0993C503.8 91.6989 510.6 83.3005 510.6 67.8005ZM473.3 81.4997H456.6V55.3005H473.3C487.1 55.3005 494.2 58.9997 494.2 68.4001C494.2 77.8005 487.5 81.4997 473.3 81.4997ZM528.5 39.4997H545.2V120.8H593.2V136.9H528.5V39.4997ZM636.7 39.4997H609V136.9H636.7C665.9 136.9 684.5 118.4 684.5 88.4997C684.5 58.5993 665.9 39.4997 636.7 39.4997ZM638 120.8H625.9V55.4997H638C655.8 55.4997 667.9 69.4001 667.9 88.4997C667.9 107.599 656.4 120.8 638 120.8ZM765.3 71.9997C762 62.8005 757.4 53.9001 741.6 53.9001C725.7 53.9001 715.5 68.1989 715.5 87.9001C715.5 107.599 725.2 122.4 741.6 122.4C758 122.4 763.3 112.599 765.5 103.9L780.9 109C776.5 127.599 761.4 138.5 741.6 138.5C715.5 138.5 698.6 118 698.6 87.9001C698.6 57.8005 715.5 37.9001 741.6 37.9001C760.2 37.9001 775.9 48.0993 780.9 66.9997L765.3 71.9997ZM832 37.4997C804.9 37.4997 791 56.9997 791 88.3005C791 119.599 805.1 138.9 832 138.9C858.9 138.9 872.6 119.599 872.6 88.3005C872.6 56.9997 859.1 37.4997 832 37.4997ZM832 123.199C810.7 123.199 807.9 100.5 807.9 88.3005C807.9 76.0993 810.9 53.0993 832 53.0993C853.1 53.0993 855.9 75.9997 855.9 88.3005C855.9 100.599 853.3 123.199 832 123.199ZM890.2 39.4997H907.1V136.89H890.2V39.4997ZM983.1 39.4997V105.199L945.4 39.4997H928.7V136.9H945.4V73.4001L983.1 136.9H1000V39.4997H983.1ZM113.9 85.9001L112.8 86.6989L112.2 87.9001C112.191 87.9919 112.187 88.0837 112.186 88.1755L112.189 88.3395C112.211 88.8473 112.351 89.3493 112.6 89.8005C113.01 90.3649 113.616 90.7575 114.3 90.9001L117.224 91.8024L117.389 91.8552C123.306 93.6735 131.747 96.2731 140.4 99.3005C138.64 109.515 133.95 119 126.9 126.599C127.614 126.554 128.396 126.509 129.235 126.463C143.325 125.666 173.666 123.945 173.1 102.9C172.5 84.0993 126.3 79.9997 113.9 85.9001ZM105.474 108.586C105.56 108.609 105.644 108.638 105.727 108.672C105.82 108.709 105.912 108.752 106 108.8C118.5 114.8 147 151.599 129.7 165.8C113.412 179.17 93.3135 156.638 83.9234 146.113C83.3396 145.459 82.7974 144.851 82.3001 144.3C92.6053 145.007 102.901 142.789 112 137.9C108.584 127.937 104.988 118.783 102.749 113.09L102.732 113.043L102.4 112.199C102.177 111.713 102.105 111.175 102.187 110.654C102.211 110.5 102.249 110.347 102.3 110.199L102.357 110.058L102.408 109.953L102.476 109.826C102.53 109.732 102.59 109.64 102.656 109.554C102.902 109.232 103.225 108.972 103.6 108.8C103.971 108.609 104.382 108.506 104.8 108.5C105.029 108.496 105.255 108.525 105.474 108.586ZM83.3001 116.8C83.2408 116.552 83.1426 116.318 83.0105 116.101C82.9219 115.957 82.8179 115.822 82.7 115.699C82.5525 115.49 82.3633 115.316 82.146 115.187C82.0076 115.105 81.8577 115.043 81.7 115C81.0913 114.75 80.4087 114.75 79.8001 115C79.1651 115.193 78.6284 115.623 78.3001 116.199C75.3001 121.4 70.1001 130.4 64.3001 139.699C54.7434 135.711 46.5711 128.998 40.8001 120.4L40.5374 121.89L40.4361 122.461C37.9605 136.351 32.5994 166.429 53.3999 170.8C71.8999 174.4 86.1001 130.199 83.3001 116.8ZM63.5 103C63.3606 103.396 63.158 103.767 62.9002 104.099C54 114.8 10.6001 131.099 2.00003 114.4C-7.51535 95.4645 19.458 80.693 31.7439 73.9645C32.3697 73.6227 32.9573 73.3005 33.5 72.9997C30.5208 82.9294 30.3821 93.4958 33.1001 103.5C44 102.3 54.2 100.699 60.4002 99.6989C61.0716 99.6481 61.7408 99.8239 62.3001 100.199C62.8767 100.529 63.3062 101.064 63.5 101.699C63.6021 102.127 63.6021 102.572 63.5 103ZM60 80.1989C60.4434 80.2907 60.9043 80.2184 61.3001 79.9997C61.6971 79.7692 62.0117 79.4196 62.2 78.9997C62.3994 78.7477 62.5464 78.4587 62.6324 78.1501C62.7183 77.8415 62.7412 77.5173 62.7 77.1989C62.6548 76.861 62.5545 76.5348 62.4051 76.2341C62.3286 76.0798 62.2395 75.9313 62.1385 75.7907C62.0374 75.652 61.9243 75.5212 61.8001 75.4001C57.3999 71.4001 49.8001 64.4001 42.2 56.5993C48.1968 48.111 56.5869 41.5993 66.3001 37.9001L64.5362 37.154C51.5955 31.654 23.0757 19.5348 14.3001 38.9001C6.60013 56.1989 46.2 79.9997 60 80.1989Z" fill="black"/>
</svg>
