<svg xmlns="http://www.w3.org/2000/svg" fill="none" viewBox="0 0 20 20">
  <path fill="#8C8C92" fill-rule="evenodd" d="M1.7 9.41c5.17-2.25 8.61-3.73 10.34-4.45 4.92-2.05 5.94-2.4 6.61-2.42.15 0 .47.04.69.2.18.15.23.35.25.49.02.14.05.45.03.7-.27 2.8-1.42 9.6-2.01 12.74-.25 1.33-.74 1.78-1.21 1.82-1.03.1-1.81-.68-2.81-1.33-1.56-1.03-2.44-1.66-3.96-2.66-1.75-1.16-.61-1.79.39-2.82.26-.28 4.8-4.4 4.88-4.78.01-.04.02-.22-.08-.31-.1-.1-.26-.06-.37-.04-.16.04-2.65 1.69-7.48 4.95-.7.48-1.34.72-1.92.7-.63 0-1.85-.35-2.75-.64-1.11-.37-2-.56-1.92-1.17.04-.32.48-.64 1.32-.98Z" clip-rule="evenodd"/>
</svg>
