<svg xmlns="http://www.w3.org/2000/svg" fill="none" viewBox="0 0 20 20">
  <g fill="#8C8C92" clip-path="url(#a)">
    <path d="M14.33 7.22a7.8 7.8 0 0 0 4.56 1.47V5.4a4.6 4.6 0 0 1-.96-.1v2.59a7.8 7.8 0 0 1-4.56-1.47v6.7a6.06 6.06 0 0 1-9.42 5.05 6.06 6.06 0 0 0 10.38-4.25v-6.7ZM15.5 3.9a4.59 4.59 0 0 1-1.18-2.68V.8h-.91a4.6 4.6 0 0 0 2.09 3.1ZM6.06 15.6a2.77 2.77 0 0 1 3.04-4.33V7.9a6.08 6.08 0 0 0-.95-.06v2.62a2.76 2.76 0 0 0-3.61 2.65c0 1.08.62 2.02 1.52 2.48Z"/>
    <path d="M13.37 6.42a7.8 7.8 0 0 0 4.56 1.47v-2.6c-.95-.2-1.8-.7-2.42-1.39A4.6 4.6 0 0 1 13.4.8h-2.38v13.13a2.77 2.77 0 0 1-4.97 1.67 2.78 2.78 0 0 1 2.08-5.13V7.85a6.06 6.06 0 0 0-4.2 10.32 6.06 6.06 0 0 0 9.42-5.05v-6.7Z"/>
  </g>
  <defs>
    <clipPath id="a">
      <path fill="#fff" d="M0 0h20v20H0z"/>
    </clipPath>
  </defs>
</svg>
