<svg xmlns="http://www.w3.org/2000/svg" fill="none" viewBox="0 0 20 20">
  <path fill="#8C8C92" d="M17.55 5.98v.52c.01 5.34-3.9 11.5-11.08 11.5A10.8 10.8 0 0 1 .5 16.18a7.64 7.64 0 0 0 5.76-1.68 3.92 3.92 0 0 1-3.64-2.8c.59.12 1.2.1 1.76-.08a4 4 0 0 1-3.12-3.95v-.05c.54.32 1.15.5 1.76.5a4.14 4.14 0 0 1-1.2-5.38 10.96 10.96 0 0 0 8.03 4.22 4.15 4.15 0 0 1 1.13-3.86 3.81 3.81 0 0 1 5.52.17 7.58 7.58 0 0 0 2.48-.98c-.3.93-.9 1.73-1.72 2.23a7.8 7.8 0 0 0 2.24-.63 8.14 8.14 0 0 1-1.95 2.1Z"/>
</svg>
