<svg viewBox="0 0 21 20" fill="none" xmlns="http://www.w3.org/2000/svg">
<g clip-path="url(#clip0_3787_5948)">
<path fill-rule="evenodd" clip-rule="evenodd" d="M19.5305 4.06973C19.8395 4.37875 20.0622 4.76332 20.1764 5.18515C20.5879 6.74893 20.5879 10.0082 20.5879 10.0082C20.5879 10.0082 20.5879 13.251 20.1764 14.8148C20.0622 15.2366 19.8395 15.6212 19.5305 15.9302C19.2215 16.2392 18.8369 16.4619 18.4151 16.5761C16.8513 17.0041 10.5961 17.0041 10.5961 17.0041C10.5961 17.0041 4.34098 17.0041 2.77719 16.5761C2.35536 16.4619 1.97079 16.2392 1.66178 15.9302C1.35276 15.6212 1.13007 15.2366 1.01587 14.8148C0.587891 13.251 0.587891 10.0082 0.587891 10.0082C0.587891 10.0082 0.587891 6.74893 1.01587 5.18515C1.13007 4.76332 1.35276 4.37875 1.66178 4.06973C1.97079 3.76072 2.35536 3.53803 2.77719 3.42383C4.34098 2.99585 10.5961 2.99585 10.5961 2.99585C10.5961 2.99585 16.8513 2.99585 18.4151 3.42383C18.8369 3.53803 19.2215 3.76072 19.5305 4.06973ZM13.7897 9.99174L8.58801 12.9876V6.99586L13.7897 9.99174Z" fill="#8C8C92"/>
</g>
<defs>
<clipPath id="clip0_3787_5948">
<rect width="20" height="20" fill="white" transform="translate(0.587891)"/>
</clipPath>
</defs>
</svg>
