<svg fill="none" height="611" viewBox="0 0 628 611" width="628" xmlns="http://www.w3.org/2000/svg" xmlns:xlink="http://www.w3.org/1999/xlink"><clipPath id="a"><path d="m.5 0h627v611h-627z"/></clipPath><g clip-path="url(#a)"><path d="m313.999 263.221c32.935-25.721 74.335-40.969 119.274-40.969 24.933 0 48.788 4.774 70.642 13.246 2.77-13.246 4.309-26.954 4.309-41.124 0-107.3523-86.955-194.374-194.225-194.374s-194.226 87.0217-194.226 194.374c0 14.016 1.539 27.878 4.31 41.124 21.854-8.626 45.709-13.246 70.641-13.246 44.94 0 86.34 15.248 119.275 40.969z" fill="#ffb900"/><path d="m239.049 416.626c0-14.016 1.544-27.724 4.314-40.97-60.022-23.411-105.428-76.086-119.279-140.312-72.3344 28.339-123.584 98.881-123.584 181.282 0 107.352 86.9551 194.374 194.225 194.374 44.94 0 86.34-15.248 119.275-40.969-45.555-35.579-74.951-91.027-74.951-153.405z" fill="#09f"/><path d="m243.357 375.502c9.696-45.282 35.243-84.865 70.641-112.435-32.935-25.721-74.335-40.969-119.275-40.969-24.932 0-48.787 4.774-70.641 13.246 13.851 64.38 59.407 116.747 119.275 140.158z" fill="#ffb317"/><path d="m243.363 375.656c9.947-45.51 35.666-84.872 70.65-112.447-32.935-25.722-74.35-41.111-119.29-41.111-24.932 0-48.787 4.774-70.641 13.246 13.851 64.38 57.796 116.439 119.281 140.312z" fill="#ff7c2e"/><path d="m503.918 235.498c-13.852 64.226-59.253 116.593-119.275 140.158 2.77 13.246 4.309 26.954 4.309 41.124 0 62.378-29.397 117.669-74.952 153.247 32.935 25.722 74.336 41.127 119.276 41.127 107.27 0 194.225-87.022 194.225-194.374 0-82.555-51.249-153.097-123.583-181.282z" fill="#00b979"/><path d="m314 263.221c35.244 27.57 60.792 66.999 70.641 112.435 60.022-23.411 105.424-75.932 119.275-140.158-21.854-8.626-45.709-13.246-70.641-13.246-44.94 0-86.34 15.248-119.275 40.969z" fill="#ffb317"/><path d="m314 263.221c35.244 27.57 60.792 66.999 70.641 112.435 60.022-23.411 105.424-75.932 119.275-140.158-21.854-8.626-45.709-13.246-70.641-13.246-44.94 0-86.34 15.248-119.275 40.969z" fill="#090"/><path d="m388.952 416.626c0-14.016-1.539-27.878-4.309-41.124-21.854 8.626-45.709 13.246-70.642 13.246-24.932 0-48.784-4.626-70.638-13.097-2.77 13.246-4.312 26.805-4.312 40.975 0 62.378 29.395 117.826 74.95 153.404 45.71-35.578 74.951-91.026 74.951-153.404z" fill="#006fe7"/><path d="m388.951 416.626c0-14.016-1.539-27.878-4.309-41.124-21.854 8.626-45.709 13.246-70.642 13.246-24.932 0-48.778-4.615-70.632-13.086-2.771 13.246-4.345 26.805-4.345 40.975 0 62.378 29.422 117.815 74.977 153.393 45.709-35.578 74.951-89.717 74.951-153.404z" fill="#056499"/><path d="m314.001 263.221c-35.244 27.57-60.792 66.999-70.642 112.435 21.855 8.626 45.709 13.246 70.642 13.246 24.932 0 48.787-4.774 70.641-13.246-9.696-45.436-35.244-85.019-70.641-112.435z" fill="#ffb317"/><path d="m314.001 263.221c-35.244 27.57-60.792 66.999-70.642 112.435 21.855 8.626 45.709 13.246 70.642 13.246 24.932 0 48.787-4.774 70.641-13.246-9.696-45.436-35.244-85.019-70.641-112.435z" fill="#006fe7"/><path d="m314.001 263.221c-35.244 27.57-60.792 66.999-70.642 112.435 21.855 8.626 45.71 13.246 70.642 13.246s48.787-4.774 70.641-13.246c-9.696-45.436-35.244-85.019-70.641-112.435z" fill="#013d01"/><g fill="#fff"><path d="m239.263 162.408c-1.728 0-3.192-.376-4.392-1.128-1.2-.768-2.096-1.824-2.688-3.168s-.888-2.896-.888-4.656c0-1.776.312-3.328.936-4.656.64-1.344 1.56-2.384 2.76-3.12 1.2-.752 2.64-1.128 4.32-1.128 2.08 0 3.728.544 4.944 1.632s1.944 2.56 2.184 4.416l-3.168.456c-.144-1.232-.568-2.2-1.272-2.904s-1.632-1.056-2.784-1.056c-1.488 0-2.648.576-3.48 1.728-.832 1.136-1.248 2.672-1.248 4.608 0 1.92.416 3.464 1.248 4.632.848 1.168 2.032 1.752 3.552 1.752 1.088 0 1.984-.336 2.688-1.008.72-.688 1.192-1.64 1.416-2.856l3.072.624c-.384 1.792-1.184 3.216-2.4 4.272-1.2 1.04-2.8 1.56-4.8 1.56zm14.974-.12c-1.152 0-2.176-.248-3.072-.744-.88-.496-1.568-1.216-2.064-2.16-.496-.96-.744-2.096-.744-3.408s.248-2.44.744-3.384 1.184-1.656 2.064-2.136c.896-.496 1.92-.744 3.072-.744s2.168.248 3.048.744c.896.48 1.592 1.192 2.088 2.136s.744 2.072.744 3.384-.248 2.448-.744 3.408c-.496.944-1.192 1.664-2.088 2.16-.88.496-1.896.744-3.048.744zm-2.952-6.312c0 1.344.256 2.368.768 3.072s1.24 1.056 2.184 1.056c.928 0 1.648-.344 2.16-1.032.512-.704.768-1.736.768-3.096 0-1.344-.256-2.36-.768-3.048-.496-.688-1.216-1.032-2.16-1.032s-1.672.344-2.184 1.032-.768 1.704-.768 3.048zm14.41-5.976v2.112c.72-1.6 1.904-2.4 3.552-2.4 1.696 0 2.832.808 3.408 2.424.816-1.616 2.064-2.424 3.744-2.424 1.152 0 2.048.392 2.688 1.176.656.768.984 1.856.984 3.264v7.848h-2.88v-7.392c0-1.728-.656-2.592-1.968-2.592-.736 0-1.304.256-1.704.768-.384.512-.576 1.248-.576 2.208v7.008h-2.88v-7.464c0-.832-.168-1.456-.504-1.872-.32-.432-.8-.648-1.44-.648-.72 0-1.28.272-1.68.816-.4.528-.6 1.272-.6 2.232v6.936h-2.88v-12zm17.913 0h2.736v2.088c.368-.768.88-1.352 1.536-1.752.672-.416 1.44-.624 2.304-.624.96 0 1.8.264 2.52.792.736.512 1.304 1.24 1.704 2.184s.6 2.04.6 3.288c0 1.264-.208 2.376-.624 3.336s-1 1.696-1.752 2.208-1.616.768-2.592.768c-.816 0-1.528-.176-2.136-.528-.608-.368-1.08-.864-1.416-1.488v6.408h-2.88zm2.808 6.312c0 1.152.248 2.072.744 2.76.512.672 1.192 1.008 2.04 1.008.864 0 1.544-.36 2.04-1.08.512-.736.768-1.744.768-3.024s-.248-2.272-.744-2.976c-.48-.72-1.16-1.08-2.04-1.08s-1.568.336-2.064 1.008c-.496.656-.744 1.584-.744 2.784zm15.21 5.976c-2.704 0-4.056-1.528-4.056-4.584v-7.704h2.88v7.272c0 .88.176 1.552.528 2.016.368.464.896.696 1.584.696.8 0 1.44-.304 1.92-.912s.72-1.416.72-2.424v-6.648h2.904v12h-2.736v-2.232c-.288.752-.776 1.36-1.464 1.824-.672.464-1.432.696-2.28.696zm8.638-12.288h2.16v-3.024l2.88-1.152v4.176h2.928v2.088h-2.928v5.736c0 .64.144 1.12.432 1.44.288.304.728.456 1.32.456.272 0 .664-.048 1.176-.144v2.424c-.688.144-1.344.216-1.968.216-1.376 0-2.36-.336-2.952-1.008s-.888-1.648-.888-2.928v-6.192h-2.16zm13.634 12.288c-1.232 0-2.224-.32-2.976-.96-.752-.656-1.128-1.52-1.128-2.592 0-.576.12-1.096.36-1.56.256-.464.624-.848 1.104-1.152.432-.256.952-.464 1.56-.624.608-.176 1.392-.328 2.352-.456l2.544-.312v-.312c0-.896-.184-1.544-.552-1.944-.352-.416-.912-.624-1.68-.624-.704 0-1.264.184-1.68.552-.4.352-.624.872-.672 1.56h-2.952c.096-1.28.616-2.288 1.56-3.024.944-.752 2.192-1.128 3.744-1.128 1.776 0 3.072.4 3.888 1.2.832.784 1.248 2.048 1.248 3.792v3.576c0 1.632.12 2.872.36 3.72h-2.88c-.112-.656-.176-1.344-.192-2.064-.288.736-.792 1.312-1.512 1.728-.704.416-1.536.624-2.496.624zm-1.128-3.696c0 .512.176.92.528 1.224.368.288.872.432 1.512.432.896 0 1.616-.288 2.16-.864.544-.592.816-1.36.816-2.304v-.768l-2.712.408c-.8.128-1.384.344-1.752.648s-.552.712-.552 1.224zm9.619-8.592h2.16v-3.024l2.88-1.152v4.176h2.928v2.088h-2.928v5.736c0 .64.144 1.12.432 1.44.288.304.728.456 1.32.456.272 0 .664-.048 1.176-.144v2.424c-.688.144-1.344.216-1.968.216-1.376 0-2.36-.336-2.952-1.008s-.888-1.648-.888-2.928v-6.192h-2.16zm10.609 0h2.88v12h-2.88zm-.12-4.992h3.12v3h-3.12zm11.695 17.28c-1.152 0-2.176-.248-3.072-.744-.88-.496-1.568-1.216-2.064-2.16-.496-.96-.744-2.096-.744-3.408s.248-2.44.744-3.384 1.184-1.656 2.064-2.136c.896-.496 1.92-.744 3.072-.744s2.168.248 3.048.744c.896.48 1.592 1.192 2.088 2.136s.744 2.072.744 3.384-.248 2.448-.744 3.408c-.496.944-1.192 1.664-2.088 2.16-.88.496-1.896.744-3.048.744zm-2.952-6.312c0 1.344.256 2.368.768 3.072s1.24 1.056 2.184 1.056c.928 0 1.648-.344 2.16-1.032.512-.704.768-1.736.768-3.096 0-1.344-.256-2.36-.768-3.048-.496-.688-1.216-1.032-2.16-1.032s-1.672.344-2.184 1.032-.768 1.704-.768 3.048zm11.674-5.976h2.736v2.328c.816-1.744 2.144-2.616 3.984-2.616 1.312 0 2.304.408 2.976 1.224s1.008 2.024 1.008 3.624v7.44h-2.88v-7.152c0-1.888-.752-2.832-2.256-2.832-.848 0-1.512.32-1.992.96-.464.64-.696 1.528-.696 2.664v6.36h-2.88zm17.275 12.288c-1.232 0-2.224-.32-2.976-.96-.752-.656-1.128-1.52-1.128-2.592 0-.576.12-1.096.36-1.56.256-.464.624-.848 1.104-1.152.432-.256.952-.464 1.56-.624.608-.176 1.392-.328 2.352-.456l2.544-.312v-.312c0-.896-.184-1.544-.552-1.944-.352-.416-.912-.624-1.68-.624-.704 0-1.264.184-1.68.552-.4.352-.624.872-.672 1.56h-2.952c.096-1.28.616-2.288 1.56-3.024.944-.752 2.192-1.128 3.744-1.128 1.776 0 3.072.4 3.888 1.2.832.784 1.248 2.048 1.248 3.792v3.576c0 1.632.12 2.872.36 3.72h-2.88c-.112-.656-.176-1.344-.192-2.064-.288.736-.792 1.312-1.512 1.728-.704.416-1.536.624-2.496.624zm-1.128-3.696c0 .512.176.92.528 1.224.368.288.872.432 1.512.432.896 0 1.616-.288 2.16-.864.544-.592.816-1.36.816-2.304v-.768l-2.712.408c-.8.128-1.384.344-1.752.648s-.552.712-.552 1.224zm14.272 3.408h-2.88v-17.4h2.88zm-125.641 30v-17.04h3.096v17.04zm7.12-12h2.736v2.328c.816-1.744 2.144-2.616 3.984-2.616 1.312 0 2.304.408 2.976 1.224s1.008 2.024 1.008 3.624v7.44h-2.88v-7.152c0-1.888-.752-2.832-2.256-2.832-.848 0-1.512.32-1.992.96-.464.64-.696 1.528-.696 2.664v6.36h-2.88zm12.337 0h2.16v-3.024l2.88-1.152v4.176h2.928v2.088h-2.928v5.736c0 .64.144 1.12.432 1.44.288.304.728.456 1.32.456.272 0 .664-.048 1.176-.144v2.424c-.688.144-1.344.216-1.968.216-1.376 0-2.36-.336-2.952-1.008s-.888-1.648-.888-2.928v-6.192h-2.16zm15.364 12.288c-1.84 0-3.28-.536-4.32-1.608-1.04-1.088-1.56-2.608-1.56-4.56 0-1.984.504-3.544 1.512-4.68 1.024-1.152 2.432-1.728 4.224-1.728 1.744 0 3.088.496 4.032 1.488.96.976 1.44 2.376 1.44 4.2v1.32h-8.424c.016 1.008.312 1.816.888 2.424.592.592 1.36.888 2.304.888.688 0 1.28-.168 1.776-.504s.88-.832 1.152-1.488l2.208 1.008c-.448 1.04-1.128 1.84-2.04 2.4-.896.56-1.96.84-3.192.84zm2.496-7.464v-.192c0-.976-.232-1.72-.696-2.232s-1.128-.768-1.992-.768c-.912 0-1.616.28-2.112.84s-.76 1.344-.792 2.352zm10.032 12.144c-1.952 0-3.384-.288-4.296-.864-.896-.56-1.344-1.304-1.344-2.232 0-.544.168-1.024.504-1.44.352-.4.856-.704 1.512-.912-1.024-.416-1.536-1.136-1.536-2.16 0-.608.16-1.12.48-1.536.336-.432.808-.768 1.416-1.008-.464-.368-.824-.816-1.08-1.344s-.384-1.104-.384-1.728c0-1.2.44-2.168 1.32-2.904.896-.752 2.096-1.128 3.6-1.128.96 0 1.808.16 2.544.48.192-.688.552-1.224 1.08-1.608.544-.4 1.232-.6 2.064-.6.208 0 .432.024.672.072v2.16c-.352-.08-.68-.12-.984-.12-.8 0-1.368.256-1.704.768.848.752 1.272 1.712 1.272 2.88 0 .8-.2 1.512-.6 2.136-.4.608-.976 1.088-1.728 1.44-.736.352-1.608.528-2.616.528-.928 0-1.728-.144-2.4-.432-.4.208-.6.512-.6.912 0 .736.608 1.104 1.824 1.104h3.144c1.392 0 2.448.296 3.168.888s1.08 1.448 1.08 2.568c0 1.264-.544 2.256-1.632 2.976-1.072.736-2.664 1.104-4.776 1.104zm-3.24-3.624c0 1.168 1.144 1.752 3.432 1.752 2.4 0 3.6-.576 3.6-1.728 0-.976-.688-1.464-2.064-1.464l-3.12-.024c-.256 0-.576-.016-.96-.048-.592.336-.888.84-.888 1.512zm1.224-9.6c0 .688.2 1.256.6 1.704.4.432.936.648 1.608.648.656 0 1.184-.216 1.584-.648.416-.432.624-.992.624-1.68s-.2-1.24-.6-1.656c-.4-.432-.936-.648-1.608-.648s-1.208.216-1.608.648c-.4.416-.6.96-.6 1.632zm13.577-.84c.32-.992.8-1.768 1.44-2.328.64-.576 1.432-.864 2.376-.864.144 0 .256.008.336.024v2.76l-.384-.024c-1.056 0-1.888.288-2.496.864-.432.416-.72.928-.864 1.536-.144.592-.216 1.288-.216 2.088v5.04h-2.88v-12h2.688zm6.523-2.904h2.88v12h-2.88zm-.12-4.992h3.12v3h-3.12zm5.167 4.992h2.16v-3.024l2.88-1.152v4.176h2.928v2.088h-2.928v5.736c0 .64.144 1.12.432 1.44.288.304.728.456 1.32.456.272 0 .664-.048 1.176-.144v2.424c-.688.144-1.344.216-1.968.216-1.376 0-2.36-.336-2.952-1.008s-.888-1.648-.888-2.928v-6.192h-2.16zm11.51 16.8c-.32 0-.76-.04-1.32-.12v-2.28c.384.064.72.096 1.008.096.704 0 1.256-.152 1.656-.456.416-.288.736-.768.96-1.44l.24-.72-4.68-11.88h3.168l2.616 7.848c.176.496.288.968.336 1.416h.048c.048-.208.168-.68.36-1.416l2.4-7.848h2.976l-4.488 12.648c-.528 1.504-1.216 2.568-2.064 3.192-.832.64-1.904.96-3.216.96z"/><path d="m126.901 428v-17.04h6.744c1.2 0 2.248.216 3.144.648.896.416 1.584 1.016 2.064 1.8.496.784.744 1.696.744 2.736 0 1.616-.536 2.896-1.608 3.84s-2.528 1.416-4.368 1.416h-3.624v6.6zm6.168-8.952c1.008 0 1.8-.256 2.376-.768.592-.512.888-1.208.888-2.088s-.296-1.576-.888-2.088c-.576-.512-1.368-.768-2.376-.768h-3.072v5.712zm11.703-.144c.32-.992.8-1.768 1.44-2.328.64-.576 1.432-.864 2.376-.864.144 0 .256.008.336.024v2.76l-.384-.024c-1.056 0-1.888.288-2.496.864-.432.416-.72.928-.864 1.536-.144.592-.216 1.288-.216 2.088v5.04h-2.88v-12h2.688zm6.523-2.904h2.88v12h-2.88zm-.12-4.992h3.12v3h-3.12zm5.119 4.992h3.024l2.328 7.608c.192.608.336 1.2.432 1.776h.072c.096-.576.24-1.168.432-1.776l2.352-7.608h3.024l-4.272 12h-3.12zm16.612 12.288c-1.232 0-2.224-.32-2.976-.96-.752-.656-1.128-1.52-1.128-2.592 0-.576.12-1.096.36-1.56.256-.464.624-.848 1.104-1.152.432-.256.952-.464 1.56-.624.608-.176 1.392-.328 2.352-.456l2.544-.312v-.312c0-.896-.184-1.544-.552-1.944-.352-.416-.912-.624-1.68-.624-.704 0-1.264.184-1.68.552-.4.352-.624.872-.672 1.56h-2.952c.096-1.28.616-2.288 1.56-3.024.944-.752 2.192-1.128 3.744-1.128 1.776 0 3.072.4 3.888 1.2.832.784 1.248 2.048 1.248 3.792v3.576c0 1.632.12 2.872.36 3.72h-2.88c-.112-.656-.176-1.344-.192-2.064-.288.736-.792 1.312-1.512 1.728-.704.416-1.536.624-2.496.624zm-1.128-3.696c0 .512.176.92.528 1.224.368.288.872.432 1.512.432.896 0 1.616-.288 2.16-.864.544-.592.816-1.36.816-2.304v-.768l-2.712.408c-.8.128-1.384.344-1.752.648s-.552.712-.552 1.224zm16.17 3.696c-1.184 0-2.224-.256-3.12-.768-.88-.528-1.56-1.264-2.04-2.208s-.72-2.048-.72-3.312c0-1.952.528-3.488 1.584-4.608s2.496-1.68 4.32-1.68c1.488 0 2.696.384 3.624 1.152.928.752 1.48 1.808 1.656 3.168l-2.808.456c-.096-.816-.368-1.44-.816-1.872-.432-.432-1.008-.648-1.728-.648-.896 0-1.6.352-2.112 1.056s-.768 1.672-.768 2.904c0 1.296.256 2.304.768 3.024.512.704 1.232 1.056 2.16 1.056.72 0 1.296-.216 1.728-.648.448-.432.736-1.072.864-1.92l2.712.552c-.208 1.328-.792 2.376-1.752 3.144-.944.768-2.128 1.152-3.552 1.152zm8.287 4.512c-.32 0-.76-.04-1.32-.12v-2.28c.384.064.72.096 1.008.096.704 0 1.256-.152 1.656-.456.416-.288.736-.768.96-1.44l.24-.72-4.68-11.88h3.168l2.616 7.848c.176.496.288.968.336 1.416h.048c.048-.208.168-.68.36-1.416l2.4-7.848h2.976l-4.488 12.648c-.528 1.504-1.216 2.568-2.064 3.192-.832.64-1.904.96-3.216.96z"/><path d="m444.401 423h-3.096v-7.44h-7.656v7.44h-3.096v-17.04h3.096v7.128h7.656v-7.128h3.096zm8.903.288c-1.84 0-3.28-.536-4.32-1.608-1.04-1.088-1.56-2.608-1.56-4.56 0-1.984.504-3.544 1.512-4.68 1.024-1.152 2.432-1.728 4.224-1.728 1.744 0 3.088.496 4.032 1.488.96.976 1.44 2.376 1.44 4.2v1.32h-8.424c.016 1.008.312 1.816.888 2.424.592.592 1.36.888 2.304.888.688 0 1.28-.168 1.776-.504s.88-.832 1.152-1.488l2.208 1.008c-.448 1.04-1.128 1.84-2.04 2.4-.896.56-1.96.84-3.192.84zm2.496-7.464v-.192c0-.976-.232-1.72-.696-2.232s-1.128-.768-1.992-.768c-.912 0-1.616.28-2.112.84s-.76 1.344-.792 2.352zm9.548 7.464c-2.704 0-4.056-1.528-4.056-4.584v-7.704h2.88v7.272c0 .88.176 1.552.528 2.016.368.464.896.696 1.584.696.8 0 1.44-.304 1.92-.912s.72-1.416.72-2.424v-6.648h2.904v12h-2.736v-2.232c-.288.752-.776 1.36-1.464 1.824-.672.464-1.432.696-2.28.696zm12.983-9.384c.32-.992.8-1.768 1.44-2.328.64-.576 1.432-.864 2.376-.864.144 0 .256.008.336.024v2.76l-.384-.024c-1.056 0-1.888.288-2.496.864-.432.416-.72.928-.864 1.536-.144.592-.216 1.288-.216 2.088v5.04h-2.88v-12h2.688zm6.523-2.904h2.88v12h-2.88zm-.12-4.992h3.12v3h-3.12zm11.215 17.28c-1.376 0-2.552-.28-3.528-.84-.96-.576-1.624-1.384-1.992-2.424l2.136-.96c.272.672.704 1.192 1.296 1.56s1.312.552 2.16.552c.72 0 1.272-.136 1.656-.408s.576-.632.576-1.08c0-.416-.136-.728-.408-.936-.256-.208-.688-.36-1.296-.456l-2.136-.384c-2.288-.416-3.432-1.584-3.432-3.504 0-1.104.44-1.992 1.32-2.664.88-.688 2.072-1.032 3.576-1.032 1.28 0 2.368.248 3.264.744.912.48 1.512 1.152 1.8 2.016l-2.016 1.08c-.304-.56-.728-.992-1.272-1.296-.528-.304-1.176-.456-1.944-.456-.672 0-1.192.128-1.56.384-.352.24-.528.592-.528 1.056 0 .4.128.704.384.912s.656.36 1.2.456l2.352.432c1.152.208 1.992.6 2.52 1.176.528.56.792 1.32.792 2.28 0 1.152-.432 2.072-1.296 2.76s-2.072 1.032-3.624 1.032zm6.256-12.288h2.16v-3.024l2.88-1.152v4.176h2.928v2.088h-2.928v5.736c0 .64.144 1.12.432 1.44.288.304.728.456 1.32.456.272 0 .664-.048 1.176-.144v2.424c-.688.144-1.344.216-1.968.216-1.376 0-2.36-.336-2.952-1.008s-.888-1.648-.888-2.928v-6.192h-2.16zm10.61 0h2.88v12h-2.88zm-.12-4.992h3.12v3h-3.12zm11.695 17.28c-1.184 0-2.224-.256-3.12-.768-.88-.528-1.56-1.264-2.04-2.208s-.72-2.048-.72-3.312c0-1.952.528-3.488 1.584-4.608s2.496-1.68 4.32-1.68c1.488 0 2.696.384 3.624 1.152.928.752 1.48 1.808 1.656 3.168l-2.808.456c-.096-.816-.368-1.44-.816-1.872-.432-.432-1.008-.648-1.728-.648-.896 0-1.6.352-2.112 1.056s-.768 1.672-.768 2.904c0 1.296.256 2.304.768 3.024.512.704 1.232 1.056 2.16 1.056.72 0 1.296-.216 1.728-.648.448-.432.736-1.072.864-1.92l2.712.552c-.208 1.328-.792 2.376-1.752 3.144-.944.768-2.128 1.152-3.552 1.152zm-107.305 30.12c-1.616 0-3.032-.36-4.248-1.08-1.216-.736-2.16-1.776-2.832-3.12-.656-1.36-.984-2.936-.984-4.728 0-1.824.328-3.408.984-4.752.672-1.344 1.608-2.376 2.808-3.096 1.216-.72 2.64-1.08 4.272-1.08s3.048.36 4.248 1.08c1.216.72 2.152 1.752 2.808 3.096.672 1.344 1.008 2.928 1.008 4.752 0 1.808-.336 3.384-1.008 4.728-.656 1.344-1.592 2.384-2.808 3.12-1.216.72-2.632 1.08-4.248 1.08zm-4.848-8.928c0 1.984.424 3.552 1.272 4.704.864 1.152 2.056 1.728 3.576 1.728 1.536 0 2.728-.568 3.576-1.704s1.272-2.712 1.272-4.728-.424-3.592-1.272-4.728-2.04-1.704-3.576-1.704c-1.52 0-2.712.568-3.576 1.704-.848 1.136-1.272 2.712-1.272 4.728zm15.746-3.48h2.736v2.088c.368-.768.88-1.352 1.536-1.752.672-.416 1.44-.624 2.304-.624.96 0 1.8.264 2.52.792.736.512 1.304 1.24 1.704 2.184s.6 2.04.6 3.288c0 1.264-.208 2.376-.624 3.336s-1 1.696-1.752 2.208-1.616.768-2.592.768c-.816 0-1.528-.176-2.136-.528-.608-.368-1.08-.864-1.416-1.488v6.408h-2.88zm2.808 6.312c0 1.152.248 2.072.744 2.76.512.672 1.192 1.008 2.04 1.008.864 0 1.544-.36 2.04-1.08.512-.736.768-1.744.768-3.024s-.248-2.272-.744-2.976c-.48-.72-1.16-1.08-2.04-1.08s-1.568.336-2.064 1.008c-.496.656-.744 1.584-.744 2.784zm9.739-6.312h2.16v-3.024l2.88-1.152v4.176h2.928v2.088h-2.928v5.736c0 .64.144 1.12.432 1.44.288.304.728.456 1.32.456.272 0 .664-.048 1.176-.144v2.424c-.688.144-1.344.216-1.968.216-1.376 0-2.36-.336-2.952-1.008s-.888-1.648-.888-2.928v-6.192h-2.16zm10.609 0h2.88v12h-2.88zm-.12-4.992h3.12v3h-3.12zm9.559 4.992v2.112c.72-1.6 1.904-2.4 3.552-2.4 1.696 0 2.832.808 3.408 2.424.816-1.616 2.064-2.424 3.744-2.424 1.152 0 2.048.392 2.688 1.176.656.768.984 1.856.984 3.264v7.848h-2.88v-7.392c0-1.728-.656-2.592-1.968-2.592-.736 0-1.304.256-1.704.768-.384.512-.576 1.248-.576 2.208v7.008h-2.88v-7.464c0-.832-.168-1.456-.504-1.872-.32-.432-.8-.648-1.44-.648-.72 0-1.28.272-1.68.816-.4.528-.6 1.272-.6 2.232v6.936h-2.88v-12zm17.912 0h2.88v12h-2.88zm-.12-4.992h3.12v3h-3.12zm11.767 7.176h-5.904v-2.184h9.288v1.824l-6.048 7.944h6.408v2.232h-9.912v-1.896zm9.05 10.104c-1.232 0-2.224-.32-2.976-.96-.752-.656-1.128-1.52-1.128-2.592 0-.576.12-1.096.36-1.56.256-.464.624-.848 1.104-1.152.432-.256.952-.464 1.56-.624.608-.176 1.392-.328 2.352-.456l2.544-.312v-.312c0-.896-.184-1.544-.552-1.944-.352-.416-.912-.624-1.68-.624-.704 0-1.264.184-1.68.552-.4.352-.624.872-.672 1.56h-2.952c.096-1.28.616-2.288 1.56-3.024.944-.752 2.192-1.128 3.744-1.128 1.776 0 3.072.4 3.888 1.2.832.784 1.248 2.048 1.248 3.792v3.576c0 1.632.12 2.872.36 3.72h-2.88c-.112-.656-.176-1.344-.192-2.064-.288.736-.792 1.312-1.512 1.728-.704.416-1.536.624-2.496.624zm-1.128-3.696c0 .512.176.92.528 1.224.368.288.872.432 1.512.432.896 0 1.616-.288 2.16-.864.544-.592.816-1.36.816-2.304v-.768l-2.712.408c-.8.128-1.384.344-1.752.648s-.552.712-.552 1.224zm9.619-8.592h2.16v-3.024l2.88-1.152v4.176h2.928v2.088h-2.928v5.736c0 .64.144 1.12.432 1.44.288.304.728.456 1.32.456.272 0 .664-.048 1.176-.144v2.424c-.688.144-1.344.216-1.968.216-1.376 0-2.36-.336-2.952-1.008s-.888-1.648-.888-2.928v-6.192h-2.16zm10.609 0h2.88v12h-2.88zm-.12-4.992h3.12v3h-3.12zm11.695 17.28c-1.152 0-2.176-.248-3.072-.744-.88-.496-1.568-1.216-2.064-2.16-.496-.96-.744-2.096-.744-3.408s.248-2.44.744-3.384 1.184-1.656 2.064-2.136c.896-.496 1.92-.744 3.072-.744s2.168.248 3.048.744c.896.48 1.592 1.192 2.088 2.136s.744 2.072.744 3.384-.248 2.448-.744 3.408c-.496.944-1.192 1.664-2.088 2.16-.88.496-1.896.744-3.048.744zm-2.952-6.312c0 1.344.256 2.368.768 3.072s1.24 1.056 2.184 1.056c.928 0 1.648-.344 2.16-1.032.512-.704.768-1.736.768-3.096 0-1.344-.256-2.36-.768-3.048-.496-.688-1.216-1.032-2.16-1.032s-1.672.344-2.184 1.032-.768 1.704-.768 3.048zm11.674-5.976h2.736v2.328c.816-1.744 2.144-2.616 3.984-2.616 1.312 0 2.304.408 2.976 1.224s1.008 2.024 1.008 3.624v7.44h-2.88v-7.152c0-1.888-.752-2.832-2.256-2.832-.848 0-1.512.32-1.992.96-.464.64-.696 1.528-.696 2.664v6.36h-2.88z"/><path d="m291.666 330.456h-8.592v-2.496h12.048v2.496l-8.928 12.072h9.288v2.472h-12.744v-2.496zm6.43-2.496h3.096v7.968l6.816-7.968h3.696l-6.144 6.864 6.576 10.176h-3.576l-5.112-7.992-2.256 2.568v5.424h-3.096zm16.571 0h4.32l3.864 11.856c.112.368.2.688.264.96.08.272.136.56.168.864h.048c.064-.496.208-1.112.432-1.848l3.816-11.832h4.344v17.04h-2.832v-12.432c0-.72.032-1.344.096-1.872h-.072c-.016.208-.072.488-.168.84-.08.352-.168.672-.264.96l-4.032 12.504h-2.76l-4.08-12.504c-.096-.24-.184-.544-.264-.912s-.136-.664-.168-.888h-.096c.064.512.096 1.136.096 1.872v12.432h-2.712zm21.468 0h3.096v14.496h7.44v2.544h-10.536z"/><path d="m366.555 266.96h3.288l3.648 11.808c.288.912.488 1.688.6 2.328h.096c.096-.592.288-1.368.576-2.328l3.648-11.808h3.312l-5.832 17.04h-3.528zm19.772 17.328c-1.232 0-2.224-.32-2.976-.96-.752-.656-1.128-1.52-1.128-2.592 0-.576.12-1.096.36-1.56.256-.464.624-.848 1.104-1.152.432-.256.952-.464 1.56-.624.608-.176 1.392-.328 2.352-.456l2.544-.312v-.312c0-.896-.184-1.544-.552-1.944-.352-.416-.912-.624-1.68-.624-.704 0-1.264.184-1.68.552-.4.352-.624.872-.672 1.56h-2.952c.096-1.28.616-2.288 1.56-3.024.944-.752 2.192-1.128 3.744-1.128 1.776 0 3.072.4 3.888 1.2.832.784 1.248 2.048 1.248 3.792v3.576c0 1.632.12 2.872.36 3.72h-2.88c-.112-.656-.176-1.344-.192-2.064-.288.736-.792 1.312-1.512 1.728-.704.416-1.536.624-2.496.624zm-1.128-3.696c0 .512.176.92.528 1.224.368.288.872.432 1.512.432.896 0 1.616-.288 2.16-.864.544-.592.816-1.36.816-2.304v-.768l-2.712.408c-.8.128-1.384.344-1.752.648s-.552.712-.552 1.224zm14.273 3.408h-2.88v-17.4h2.88zm3.823-12h2.88v12h-2.88zm-.12-4.992h3.12v3h-3.12zm10.687 17.28c-.96 0-1.808-.256-2.544-.768-.736-.528-1.304-1.264-1.704-2.208-.4-.96-.6-2.056-.6-3.288 0-1.248.208-2.344.624-3.288.432-.96 1.032-1.704 1.8-2.232s1.648-.792 2.64-.792c1.648 0 2.8.664 3.456 1.992v-7.104h2.88v17.4h-2.712v-2.16c-.336.768-.84 1.368-1.512 1.8-.656.432-1.432.648-2.328.648zm-1.848-6.312c0 1.28.248 2.288.744 3.024.512.72 1.208 1.08 2.088 1.08.848 0 1.52-.328 2.016-.984.496-.672.744-1.568.744-2.688v-.768c0-1.168-.248-2.08-.744-2.736s-1.176-.984-2.04-.984c-.88 0-1.568.36-2.064 1.08-.496.704-.744 1.696-.744 2.976zm12.234-5.976h2.88v12h-2.88zm-.12-4.992h3.12v3h-3.12zm5.167 4.992h2.16v-3.024l2.88-1.152v4.176h2.928v2.088h-2.928v5.736c0 .64.144 1.12.432 1.44.288.304.728.456 1.32.456.272 0 .664-.048 1.176-.144v2.424c-.688.144-1.344.216-1.968.216-1.376 0-2.36-.336-2.952-1.008s-.888-1.648-.888-2.928v-6.192h-2.16zm11.51 16.8c-.32 0-.76-.04-1.32-.12v-2.28c.384.064.72.096 1.008.096.704 0 1.256-.152 1.656-.456.416-.288.736-.768.96-1.44l.24-.72-4.68-11.88h3.168l2.616 7.848c.176.496.288.968.336 1.416h.048c.048-.208.168-.68.36-1.416l2.4-7.848h2.976l-4.488 12.648c-.528 1.504-1.216 2.568-2.064 3.192-.832.64-1.904.96-3.216.96zm-47.466 8.16h4.32l3.864 11.856c.112.368.2.688.264.96.08.272.136.56.168.864h.048c.064-.496.208-1.112.432-1.848l3.816-11.832h4.344v17.04h-2.832v-12.432c0-.72.032-1.344.096-1.872h-.072c-.016.208-.072.488-.168.84-.08.352-.168.672-.264.96l-4.032 12.504h-2.76l-4.08-12.504c-.096-.24-.184-.544-.264-.912s-.136-.664-.168-.888h-.096c.064.512.096 1.136.096 1.872v12.432h-2.712zm21.468 0h3.096v14.496h7.44v2.544h-10.536z"/><path d="m206.94 275.456h-8.592v-2.496h12.048v2.496l-8.928 12.072h9.288v2.472h-12.744v-2.496zm6.43-2.496h3.096v7.968l6.816-7.968h3.696l-6.144 6.864 6.576 10.176h-3.576l-5.112-7.992-2.256 2.568v5.424h-3.096z"/><path d="m275.889 452v-17.04h11.064v2.448h-7.968v4.728h7.56v2.448h-7.56v7.416zm27.934 0h-3.096v-7.44h-7.656v7.44h-3.096v-17.04h3.096v7.128h7.656v-7.128h3.096zm15.455-2.424v2.424h-11.232v-17.04h11.064v2.424h-7.968v4.68h7.56v2.4h-7.56v5.112zm3.51-14.616h4.32l3.864 11.856c.112.368.2.688.264.96.08.272.136.56.168.864h.048c.064-.496.208-1.112.432-1.848l3.816-11.832h4.344v17.04h-2.832v-12.432c0-.72.032-1.344.096-1.872h-.072c-.016.208-.072.488-.168.84-.08.352-.168.672-.264.96l-4.032 12.504h-2.76l-4.08-12.504c-.096-.24-.184-.544-.264-.912s-.136-.664-.168-.888h-.096c.064.512.096 1.136.096 1.872v12.432h-2.712zm21.469 0h3.096v14.496h7.44v2.544h-10.536z"/></g></g></svg>