<svg width="816" height="410" viewBox="0 0 816 410" fill="none" xmlns="http://www.w3.org/2000/svg">
<line y1="-0.55322" x2="64.159" y2="-0.55322" transform="matrix(0.707057 0.707157 -0.707057 0.707157 18.8086 114.26)" stroke="white" stroke-width="1.10644"/>
<line y1="-0.55322" x2="64.159" y2="-0.55322" transform="matrix(0.707057 0.707157 -0.707057 0.707157 153.797 249.264)" stroke="white" stroke-width="1.10644"/>
<line y1="-0.55322" x2="62.5942" y2="-0.55322" transform="matrix(0.707057 -0.707157 0.707057 0.707157 153.797 159.631)" stroke="white" stroke-width="1.10644"/>
<line y1="-0.55322" x2="62.5942" y2="-0.55322" transform="matrix(0.707057 -0.707157 0.707057 0.707157 19.918 293.527)" stroke="white" stroke-width="1.10644"/>
<line y1="-0.55322" x2="159.036" y2="-0.55322" transform="matrix(0.925306 0.379221 -0.379128 0.925344 334.699 114.26)" stroke="white" stroke-width="1.10644"/>
<line y1="-0.55322" x2="159.036" y2="-0.55322" transform="matrix(0.925306 0.379221 -0.379128 0.925344 334.699 234.879)" stroke="white" stroke-width="1.10644"/>
<line y1="-0.55322" x2="159.036" y2="-0.55322" transform="matrix(0.925306 0.379221 -0.379128 0.925344 334.699 174.568)" stroke="white" stroke-width="1.10644"/>
<line y1="-0.55322" x2="159.036" y2="-0.55322" transform="matrix(-0.925306 0.379221 -0.379128 -0.925344 481.855 114.26)" stroke="white" stroke-width="1.10644"/>
<line y1="-0.55322" x2="159.036" y2="-0.55322" transform="matrix(-0.925306 0.379221 -0.379128 -0.925344 481.855 233.219)" stroke="white" stroke-width="1.10644"/>
<line y1="-0.55322" x2="159.036" y2="-0.55322" transform="matrix(-0.925306 0.379221 -0.379128 -0.925344 481.855 174.568)" stroke="white" stroke-width="1.10644"/>
<line y1="-0.55322" x2="189.574" y2="-0.55322" transform="matrix(0.776249 0.630427 -0.630319 0.776336 334.699 114.812)" stroke="white" stroke-width="1.10644"/>
<line y1="-0.55322" x2="189.574" y2="-0.55322" transform="matrix(-0.772866 0.634569 -0.634461 -0.772955 481.531 114.42)" stroke="white" stroke-width="1.10644"/>
<line y1="-0.55322" x2="189.574" y2="-0.55322" transform="matrix(-0.772866 0.634569 -0.634461 -0.772955 481.766 175.121)" stroke="white" stroke-width="1.10644"/>
<line y1="-0.55322" x2="189.574" y2="-0.55322" transform="matrix(0.776249 0.630427 -0.630319 0.776336 334.699 175.121)" stroke="white" stroke-width="1.10644"/>
<line y1="-0.55322" x2="193.98" y2="-0.55322" transform="matrix(0.367901 0.929865 -0.929829 0.367991 671.609 114.26)" stroke="white" stroke-width="1.10644"/>
<line y1="-0.55322" x2="194.475" y2="-0.55322" transform="matrix(0.930214 0.367017 -0.366927 0.93025 616.84 169.035)" stroke="white" stroke-width="1.10644"/>
<line y1="-0.55322" x2="193.96" y2="-0.55322" transform="matrix(0.929829 -0.367991 0.367901 0.929865 616.84 240.412)" stroke="white" stroke-width="1.10644"/>
<line y1="-0.55322" x2="194.495" y2="-0.55322" transform="matrix(-0.366927 0.93025 -0.930214 -0.367017 742.973 114.26)" stroke="white" stroke-width="1.10644"/>
<rect x="19.3618" y="114.813" width="179.243" height="179.269" stroke="white" stroke-width="1.10644"/>
<rect x="64.1704" y="160.184" width="89.0685" height="89.0813" stroke="white" stroke-width="1.10644"/>
<ellipse cx="18.5329" cy="114.536" rx="18.5329" ry="18.5355" fill="#FF7C2E"/>
<ellipse cx="153.521" cy="250.094" rx="18.5329" ry="18.5355" fill="#FF7C2E"/>
<ellipse cx="153.521" cy="159.907" rx="18.5329" ry="18.5355" fill="#FF7C2E"/>
<ellipse cx="198.881" cy="114.536" rx="18.5329" ry="18.5355" fill="#00B979"/>
<ellipse cx="63.3454" cy="159.907" rx="18.5329" ry="18.5355" fill="#00B979"/>
<ellipse cx="63.3454" cy="250.094" rx="18.5329" ry="18.5355" fill="#00B979"/>
<ellipse cx="18.5329" cy="294.911" rx="18.5329" ry="18.5355" fill="#FF7C2E"/>
<ellipse cx="334.423" cy="114.536" rx="18.5329" ry="18.5355" fill="#FF7C2E"/>
<ellipse cx="334.423" cy="174.844" rx="18.5329" ry="18.5355" fill="#FF7C2E"/>
<ellipse cx="334.423" cy="235.155" rx="18.5329" ry="18.5355" fill="#FF7C2E"/>
<ellipse cx="334.423" cy="295.465" rx="18.5329" ry="18.5355" fill="#FF7C2E"/>
<ellipse cx="481.576" cy="114.536" rx="18.5329" ry="18.5355" fill="#00B979"/>
<ellipse cx="481.576" cy="174.844" rx="18.5329" ry="18.5355" fill="#00B979"/>
<ellipse cx="481.576" cy="235.155" rx="18.5329" ry="18.5355" fill="#00B979"/>
<ellipse cx="481.576" cy="295.465" rx="18.5329" ry="18.5355" fill="#00B979"/>
<ellipse cx="671.334" cy="114.536" rx="18.5329" ry="18.5355" fill="#FF7C2E"/>
<ellipse cx="671.334" cy="295.465" rx="18.5329" ry="18.5355" fill="#00B979"/>
<ellipse cx="742.697" cy="114.536" rx="18.5329" ry="18.5355" fill="#00B979"/>
<ellipse cx="742.697" cy="295.465" rx="18.5329" ry="18.5355" fill="#FF7C2E"/>
<ellipse cx="797.467" cy="169.313" rx="18.5355" ry="18.5329" transform="rotate(90 797.467 169.313)" fill="#FF7C2E"/>
<ellipse cx="616.565" cy="169.313" rx="18.5355" ry="18.5329" transform="rotate(90 616.565 169.313)" fill="#00B979"/>
<ellipse cx="797.467" cy="240.688" rx="18.5355" ry="18.5329" transform="rotate(90 797.467 240.688)" fill="#00B979"/>
<ellipse cx="616.565" cy="240.688" rx="18.5355" ry="18.5329" transform="rotate(90 616.565 240.688)" fill="#FF7C2E"/>
<ellipse cx="198.881" cy="294.911" rx="18.5329" ry="18.5355" fill="#00B979"/>
</svg>
