<?xml version="1.0" standalone="no"?>
<!DOCTYPE svg PUBLIC "-//W3C//DTD SVG 20010904//EN"
 "http://www.w3.org/TR/2001/REC-SVG-20010904/DTD/svg10.dtd">
<svg version="1.0" xmlns="http://www.w3.org/2000/svg"
 width="700.000000pt" height="700.000000pt" viewBox="0 0 700.000000 700.000000"
 preserveAspectRatio="xMidYMid meet">
<metadata>
Created by potrace 1.14, written by Peter Selinger 2001-2017
</metadata>
<g transform="translate(0.000000,700.000000) scale(0.100000,-0.100000)"
fill="#000000" stroke="none">
<path d="M3365 6894 c-11 -2 -45 -9 -75 -15 -195 -39 -349 -222 -426 -507 -24
-88 -24 -89 -43 -217 -26 -174 -29 -469 -6 -670 2 -22 7 -67 10 -100 3 -33 8
-71 11 -85 2 -14 6 -35 8 -46 3 -12 7 -39 10 -60 14 -90 18 -110 26 -139 5
-16 11 -41 14 -55 31 -182 157 -502 231 -586 25 -29 37 -35 71 -36 23 0 51 5
62 11 47 25 56 58 67 246 3 50 8 115 10 145 3 30 7 80 10 110 5 59 14 150 20
215 2 22 7 76 11 120 3 44 8 87 9 95 1 8 6 49 11 90 4 41 9 78 10 83 1 4 2 23
3 41 l1 35 158 -4 c86 -2 166 -6 177 -8 11 -2 47 -8 80 -11 196 -23 470 -111
672 -215 51 -26 93 -46 93 -43 0 15 -116 397 -155 512 -222 646 -489 994 -829
1080 -72 18 -186 25 -241 14z"/>
<path d="M5636 5819 c-264 -53 -599 -264 -921 -578 -302 -295 -537 -618 -625
-859 -28 -78 -30 -103 -8 -149 14 -29 70 -55 104 -49 27 5 43 15 164 100 83
59 634 428 722 484 l68 43 32 -37 c18 -20 39 -46 47 -58 8 -12 18 -23 21 -26
16 -14 104 -147 154 -234 96 -165 175 -357 221 -536 21 -81 20 -75 30 -135 5
-27 10 -53 11 -57 1 -5 2 -11 3 -14 3 -15 306 442 390 587 266 464 353 848
255 1121 -58 160 -184 306 -319 368 -104 48 -211 57 -349 29z"/>
<path d="M1260 5799 c-151 -13 -269 -47 -368 -106 -120 -71 -239 -214 -284
-341 -23 -64 -31 -183 -18 -255 69 -356 546 -818 1181 -1142 270 -138 545
-227 677 -220 61 3 102 46 102 107 0 47 11 35 -310 338 -96 91 -250 240 -342
331 l-168 166 37 49 c111 148 254 292 404 406 129 98 191 136 358 220 l154 78
-49 21 c-306 131 -717 272 -888 305 -12 2 -32 6 -46 9 -85 17 -175 28 -335 39
-16 1 -64 -1 -105 -5z"/>
<path d="M1320 3986 c-30 -18 -113 -66 -185 -106 -484 -273 -815 -552 -970
-818 -129 -222 -142 -452 -37 -672 76 -161 240 -267 459 -297 71 -9 293 -10
388 0 104 10 310 48 356 66 14 5 39 12 55 14 24 5 109 30 224 67 31 10 158 57
185 69 11 5 61 26 110 47 290 124 609 333 659 433 23 46 14 100 -22 132 -36
32 -54 34 -152 18 -36 -6 -76 -12 -90 -14 -14 -2 -121 -17 -237 -34 -117 -17
-234 -34 -260 -37 -27 -3 -59 -7 -73 -9 -21 -4 -227 -29 -327 -40 l-32 -3 -20
86 c-11 48 -22 105 -26 127 -3 23 -7 52 -10 65 -19 97 -26 372 -13 496 12 125
18 164 44 281 8 40 15 75 15 78 0 2 6 23 14 45 8 22 11 40 7 39 -4 0 -32 -15
-62 -33z"/>
<path d="M5228 3606 c-1 -2 -66 -6 -143 -10 -156 -7 -181 -10 -310 -36 -115
-23 -203 -58 -228 -91 -26 -35 -26 -92 0 -126 21 -29 39 -36 353 -133 201 -62
460 -147 587 -191 61 -21 115 -39 120 -39 33 -1 34 -17 8 -126 -65 -275 -163
-505 -307 -719 -53 -79 -149 -205 -185 -243 -20 -21 -17 -22 50 -17 34 3 100
7 147 10 256 15 495 46 700 90 399 87 674 238 813 448 86 129 126 311 103 462
-11 72 -66 181 -125 246 -168 187 -497 333 -936 414 -116 22 -341 46 -468 51
-84 3 -157 7 -164 9 -6 2 -13 2 -15 1z"/>
<path d="M4168 2583 c-30 -19 -48 -52 -48 -88 0 -14 33 -109 74 -212 41 -104
90 -228 109 -278 55 -141 207 -563 207 -573 0 -11 -152 -86 -259 -127 -256
-97 -490 -140 -763 -140 -82 0 -148 -3 -148 -7 0 -4 6 -13 13 -20 7 -7 51 -56
97 -108 117 -131 365 -382 458 -461 333 -285 607 -420 855 -422 133 0 199 15
321 77 150 75 255 206 284 355 9 48 9 265 -1 321 -6 39 -20 97 -57 241 -31
119 -166 408 -283 605 -186 312 -465 646 -652 779 -105 75 -156 89 -207 58z"/>
<path d="M3207 2330 c-14 -11 -67 -93 -118 -183 -51 -89 -133 -229 -182 -312
-49 -82 -97 -164 -107 -181 -27 -47 -171 -277 -183 -292 -12 -15 -230 96 -367
188 -195 131 -390 317 -526 503 -25 34 -47 63 -49 65 -3 3 -33 -161 -41 -223
-2 -22 -7 -51 -9 -65 -3 -14 -7 -45 -10 -70 -3 -25 -8 -54 -10 -65 -2 -11 -7
-49 -10 -85 -4 -36 -8 -76 -10 -90 -23 -136 -23 -533 -1 -660 3 -14 7 -41 10
-60 8 -53 44 -184 65 -238 92 -233 267 -391 496 -447 266 -65 541 116 784 517
50 83 160 303 191 383 13 33 26 65 30 70 14 20 110 324 139 440 84 333 109
650 61 766 -24 56 -105 77 -153 39z"/>
</g>
</svg>
