<?xml version="1.0" encoding="utf-8"?>
<!-- Generator: Adobe Illustrator 25.0.0, SVG Export Plug-In . SVG Version: 6.00 Build 0)  -->
<svg version="1.1" id="Layer_1" xmlns="http://www.w3.org/2000/svg" xmlns:xlink="http://www.w3.org/1999/xlink" x="0px" y="0px"
	 viewBox="0 0 800 770" enable-background="new 0 0 800 770" xml:space="preserve">
<rect fill="#FFFFFF" width="800" height="770"/>
<path fill="#FFB900" d="M400,334.2c32.9-25.7,74.3-41,119.3-41c24.9,0,48.8,4.8,70.6,13.2c2.8-13.2,4.3-27,4.3-41.1
	C594.2,158,507.3,71,400,71s-194.2,87-194.2,194.4c0,14,1.5,27.9,4.3,41.1c21.9-8.6,45.7-13.2,70.6-13.2
	C325.7,293.3,367.1,308.5,400,334.2z"/>
<path fill="#0099FF" d="M325,487.6c0-14,1.5-27.9,4.3-41.1c-60-23.4-105.4-75.9-119.3-140.2c-72.3,28.3-123.6,98.9-123.6,181.3
	c0,107.4,87,194.4,194.2,194.4c44.9,0,86.3-15.2,119.3-41C354.4,605.5,325,550,325,487.6z"/>
<path fill="#FFB317" d="M329.4,446.5c9.7-45.3,35.2-84.9,70.6-112.4c-32.9-25.7-74.3-41-119.3-41c-24.9,0-48.8,4.8-70.6,13.2
	C223.9,370.7,269.5,423.1,329.4,446.5z"/>
<path fill="#FF7C2E" d="M329.4,446.5c9.7-45.3,35.2-84.9,70.6-112.4c-32.9-25.7-74.3-41-119.3-41c-24.9,0-48.8,4.8-70.6,13.2
	C223.9,370.7,269.5,423.1,329.4,446.5z"/>
<path fill="#00B979" d="M589.9,306.5c-13.9,64.2-59.3,116.6-119.3,140.2c2.8,13.2,4.3,27,4.3,41.1c0,62.4-29.4,117.8-75,153.4
	c32.9,25.7,74.3,41,119.3,41c107.3,0,194.2-87,194.2-194.4C713.5,405.2,662.3,334.7,589.9,306.5z"/>
<path fill="#FFB317" d="M400,334.2c35.2,27.6,60.8,67,70.6,112.4c60-23.4,105.4-75.9,119.3-140.2c-21.9-8.6-45.7-13.2-70.6-13.2
	C474.3,293.3,432.9,308.5,400,334.2z"/>
<path fill="#009900" d="M400,334.2c35.2,27.6,60.8,67,70.6,112.4c60-23.4,105.4-75.9,119.3-140.2c-21.9-8.6-45.7-13.2-70.6-13.2
	C474.3,293.3,432.9,308.5,400,334.2z"/>
<path fill="#006FE7" d="M475,487.6c0-14-1.5-27.9-4.3-41.1c-21.9,8.6-45.7,13.2-70.6,13.2s-48.8-4.8-70.6-13.2
	c-2.8,13.2-4.3,27-4.3,41.1c0,62.4,29.4,117.8,75,153.4C445.7,605.5,475,550,475,487.6z"/>
<path fill="#056499" d="M475,487.6c0-14-1.5-27.9-4.3-41.1c-21.9,8.6-45.7,13.2-70.6,13.2s-48.8-4.8-70.6-13.2
	c-2.8,13.2-4.3,27-4.3,41.1c0,62.4,29.4,117.8,75,153.4C445.7,605.5,475,550,475,487.6z"/>
<path fill="#FFB317" d="M400,334.2c-35.2,27.6-60.8,67-70.6,112.4c21.9,8.6,45.7,13.2,70.6,13.2s48.8-4.8,70.6-13.2
	C460.9,401.2,435.4,361.6,400,334.2z"/>
<path fill="#006FE7" d="M400,334.2c-35.2,27.6-60.8,67-70.6,112.4c21.9,8.6,45.7,13.2,70.6,13.2s48.8-4.8,70.6-13.2
	C460.9,401.2,435.4,361.6,400,334.2z"/>
<path fill="#013D01" d="M400,334.2c-35.2,27.6-60.8,67-70.6,112.4c21.9,8.6,45.7,13.2,70.6,13.2c24.9,0,48.8-4.8,70.6-13.2
	C460.9,401.2,435.4,361.6,400,334.2z"/>
<path fill="#FFFFFF" d="M436.1,267.8c-0.3,0-0.8,0-1.3-0.1v-2.3c0.4,0.1,0.7,0.1,1,0.1c0.7,0,1.3-0.2,1.7-0.5c0.4-0.3,0.7-0.8,1-1.4
	l0.2-0.7l-4.7-11.9h3.2l2.6,7.8c0.2,0.5,0.3,1,0.3,1.4h0c0-0.2,0.2-0.7,0.4-1.4l2.4-7.8h3l-4.5,12.6c-0.5,1.5-1.2,2.6-2.1,3.2
	C438.4,267.5,437.4,267.8,436.1,267.8z M424.6,251h2.2v-3l2.9-1.2v4.2h2.9v2.1h-2.9v5.7c0,0.6,0.1,1.1,0.4,1.4
	c0.3,0.3,0.7,0.5,1.3,0.5c0.3,0,0.7,0,1.2-0.1v2.4c-0.7,0.1-1.3,0.2-2,0.2c-1.4,0-2.4-0.3-3-1c-0.6-0.7-0.9-1.6-0.9-2.9v-6.2h-2.2
	V251z M419.4,246h3.1v3h-3.1V246z M419.5,251h2.9v12h-2.9V251z M413,253.9c0.3-1,0.8-1.8,1.4-2.3c0.6-0.6,1.4-0.9,2.4-0.9
	c0.1,0,0.3,0,0.3,0v2.8l-0.4,0c-1.1,0-1.9,0.3-2.5,0.9c-0.4,0.4-0.7,0.9-0.9,1.5c-0.1,0.6-0.2,1.3-0.2,2.1v5h-2.9v-12h2.7V253.9z
	 M399.4,254.7c0,0.7,0.2,1.3,0.6,1.7c0.4,0.4,0.9,0.6,1.6,0.6c0.7,0,1.2-0.2,1.6-0.6c0.4-0.4,0.6-1,0.6-1.7c0-0.7-0.2-1.2-0.6-1.7
	c-0.4-0.4-0.9-0.6-1.6-0.6s-1.2,0.2-1.6,0.6C399.6,253.5,399.4,254.1,399.4,254.7z M398.2,264.3c0,1.2,1.1,1.8,3.4,1.8
	c2.4,0,3.6-0.6,3.6-1.7c0-1-0.7-1.5-2.1-1.5l-3.1,0c-0.3,0-0.6,0-1,0C398.5,263.2,398.2,263.7,398.2,264.3z M401.4,268
	c-2,0-3.4-0.3-4.3-0.9c-0.9-0.6-1.3-1.3-1.3-2.2c0-0.5,0.2-1,0.5-1.4c0.4-0.4,0.9-0.7,1.5-0.9c-1-0.4-1.5-1.1-1.5-2.2
	c0-0.6,0.2-1.1,0.5-1.5c0.3-0.4,0.8-0.8,1.4-1c-0.5-0.4-0.8-0.8-1.1-1.3c-0.3-0.5-0.4-1.1-0.4-1.7c0-1.2,0.4-2.2,1.3-2.9
	c0.9-0.8,2.1-1.1,3.6-1.1c1,0,1.8,0.2,2.5,0.5c0.2-0.7,0.6-1.2,1.1-1.6c0.5-0.4,1.2-0.6,2.1-0.6c0.2,0,0.4,0,0.7,0.1v2.2
	c-0.4-0.1-0.7-0.1-1-0.1c-0.8,0-1.4,0.3-1.7,0.8c0.8,0.8,1.3,1.7,1.3,2.9c0,0.8-0.2,1.5-0.6,2.1c-0.4,0.6-1,1.1-1.7,1.4
	c-0.7,0.4-1.6,0.5-2.6,0.5c-0.9,0-1.7-0.1-2.4-0.4c-0.4,0.2-0.6,0.5-0.6,0.9c0,0.7,0.6,1.1,1.8,1.1h3.1c1.4,0,2.4,0.3,3.2,0.9
	c0.7,0.6,1.1,1.4,1.1,2.6c0,1.3-0.5,2.3-1.6,3C405.1,267.6,403.5,268,401.4,268z M391.4,255.8v-0.2c0-1-0.2-1.7-0.7-2.2
	c-0.5-0.5-1.1-0.8-2-0.8c-0.9,0-1.6,0.3-2.1,0.8c-0.5,0.6-0.8,1.3-0.8,2.4H391.4z M388.9,263.3c-1.8,0-3.3-0.5-4.3-1.6
	c-1-1.1-1.6-2.6-1.6-4.6c0-2,0.5-3.5,1.5-4.7c1-1.2,2.4-1.7,4.2-1.7c1.7,0,3.1,0.5,4,1.5c1,1,1.4,2.4,1.4,4.2v1.3h-8.4
	c0,1,0.3,1.8,0.9,2.4c0.6,0.6,1.4,0.9,2.3,0.9c0.7,0,1.3-0.2,1.8-0.5c0.5-0.3,0.9-0.8,1.2-1.5l2.2,1c-0.4,1-1.1,1.8-2,2.4
	C391.2,263,390.1,263.3,388.9,263.3z M373.5,251h2.2v-3l2.9-1.2v4.2h2.9v2.1h-2.9v5.7c0,0.6,0.1,1.1,0.4,1.4
	c0.3,0.3,0.7,0.5,1.3,0.5c0.3,0,0.7,0,1.2-0.1v2.4c-0.7,0.1-1.3,0.2-2,0.2c-1.4,0-2.4-0.3-3-1c-0.6-0.7-0.9-1.6-0.9-2.9v-6.2h-2.2
	V251z M361.2,251h2.7v2.3c0.8-1.7,2.1-2.6,4-2.6c1.3,0,2.3,0.4,3,1.2s1,2,1,3.6v7.4H369v-7.2c0-1.9-0.8-2.8-2.3-2.8
	c-0.8,0-1.5,0.3-2,1c-0.5,0.6-0.7,1.5-0.7,2.7v6.4h-2.9V251z M354.1,263v-17h3.1v17H354.1z M479.7,233h-2.9v-17.4h2.9V233z
	 M465.4,229.6c0,0.5,0.2,0.9,0.5,1.2c0.4,0.3,0.9,0.4,1.5,0.4c0.9,0,1.6-0.3,2.2-0.9c0.5-0.6,0.8-1.4,0.8-2.3v-0.8l-2.7,0.4
	c-0.8,0.1-1.4,0.3-1.8,0.6C465.6,228.7,465.4,229.1,465.4,229.6z M466.6,233.3c-1.2,0-2.2-0.3-3-1c-0.8-0.7-1.1-1.5-1.1-2.6
	c0-0.6,0.1-1.1,0.4-1.6c0.3-0.5,0.6-0.8,1.1-1.2c0.4-0.3,1-0.5,1.6-0.6c0.6-0.2,1.4-0.3,2.4-0.5l2.5-0.3v-0.3c0-0.9-0.2-1.5-0.6-1.9
	c-0.4-0.4-0.9-0.6-1.7-0.6c-0.7,0-1.3,0.2-1.7,0.6c-0.4,0.4-0.6,0.9-0.7,1.6h-3c0.1-1.3,0.6-2.3,1.6-3c0.9-0.8,2.2-1.1,3.7-1.1
	c1.8,0,3.1,0.4,3.9,1.2c0.8,0.8,1.2,2,1.2,3.8v3.6c0,1.6,0.1,2.9,0.4,3.7h-2.9c-0.1-0.7-0.2-1.3-0.2-2.1c-0.3,0.7-0.8,1.3-1.5,1.7
	C468.4,233.1,467.5,233.3,466.6,233.3z M449.3,221h2.7v2.3c0.8-1.7,2.1-2.6,4-2.6c1.3,0,2.3,0.4,3,1.2s1,2,1,3.6v7.4h-2.9v-7.2
	c0-1.9-0.8-2.8-2.3-2.8c-0.8,0-1.5,0.3-2,1c-0.5,0.6-0.7,1.5-0.7,2.7v6.4h-2.9V221z M437.6,227c0,1.3,0.3,2.4,0.8,3.1
	c0.5,0.7,1.2,1.1,2.2,1.1c0.9,0,1.6-0.3,2.2-1c0.5-0.7,0.8-1.7,0.8-3.1c0-1.3-0.3-2.4-0.8-3c-0.5-0.7-1.2-1-2.2-1s-1.7,0.3-2.2,1
	C437.9,224.6,437.6,225.6,437.6,227z M440.6,233.3c-1.2,0-2.2-0.2-3.1-0.7c-0.9-0.5-1.6-1.2-2.1-2.2c-0.5-1-0.7-2.1-0.7-3.4
	s0.2-2.4,0.7-3.4c0.5-0.9,1.2-1.7,2.1-2.1c0.9-0.5,1.9-0.7,3.1-0.7s2.2,0.2,3,0.7c0.9,0.5,1.6,1.2,2.1,2.1c0.5,0.9,0.7,2.1,0.7,3.4
	s-0.2,2.4-0.7,3.4c-0.5,0.9-1.2,1.7-2.1,2.2C442.7,233,441.7,233.3,440.6,233.3z M428.9,216h3.1v3h-3.1V216z M429,221h2.9v12H429
	V221z M418.4,221h2.2v-3l2.9-1.2v4.2h2.9v2.1h-2.9v5.7c0,0.6,0.1,1.1,0.4,1.4c0.3,0.3,0.7,0.5,1.3,0.5c0.3,0,0.7,0,1.2-0.1v2.4
	c-0.7,0.1-1.3,0.2-2,0.2c-1.4,0-2.4-0.3-3-1c-0.6-0.7-0.9-1.6-0.9-2.9v-6.2h-2.2V221z M408.8,229.6c0,0.5,0.2,0.9,0.5,1.2
	c0.4,0.3,0.9,0.4,1.5,0.4c0.9,0,1.6-0.3,2.2-0.9c0.5-0.6,0.8-1.4,0.8-2.3v-0.8l-2.7,0.4c-0.8,0.1-1.4,0.3-1.8,0.6
	C409,228.7,408.8,229.1,408.8,229.6z M409.9,233.3c-1.2,0-2.2-0.3-3-1c-0.8-0.7-1.1-1.5-1.1-2.6c0-0.6,0.1-1.1,0.4-1.6
	c0.3-0.5,0.6-0.8,1.1-1.2c0.4-0.3,1-0.5,1.6-0.6c0.6-0.2,1.4-0.3,2.4-0.5l2.5-0.3v-0.3c0-0.9-0.2-1.5-0.6-1.9
	c-0.4-0.4-0.9-0.6-1.7-0.6c-0.7,0-1.3,0.2-1.7,0.6c-0.4,0.4-0.6,0.9-0.7,1.6h-3c0.1-1.3,0.6-2.3,1.6-3c0.9-0.8,2.2-1.1,3.7-1.1
	c1.8,0,3.1,0.4,3.9,1.2c0.8,0.8,1.2,2,1.2,3.8v3.6c0,1.6,0.1,2.9,0.4,3.7h-2.9c-0.1-0.7-0.2-1.3-0.2-2.1c-0.3,0.7-0.8,1.3-1.5,1.7
	C411.7,233.1,410.9,233.3,409.9,233.3z M396.3,221h2.2v-3l2.9-1.2v4.2h2.9v2.1h-2.9v5.7c0,0.6,0.1,1.1,0.4,1.4
	c0.3,0.3,0.7,0.5,1.3,0.5c0.3,0,0.7,0,1.2-0.1v2.4c-0.7,0.1-1.3,0.2-2,0.2c-1.4,0-2.4-0.3-3-1c-0.6-0.7-0.9-1.6-0.9-2.9v-6.2h-2.2
	V221z M387.6,233.3c-2.7,0-4.1-1.5-4.1-4.6V221h2.9v7.3c0,0.9,0.2,1.6,0.5,2c0.4,0.5,0.9,0.7,1.6,0.7c0.8,0,1.4-0.3,1.9-0.9
	c0.5-0.6,0.7-1.4,0.7-2.4V221h2.9v12h-2.7v-2.2c-0.3,0.8-0.8,1.4-1.5,1.8C389.2,233.1,388.5,233.3,387.6,233.3z M372.4,227.3
	c0,1.2,0.2,2.1,0.7,2.8c0.5,0.7,1.2,1,2,1c0.9,0,1.5-0.4,2-1.1c0.5-0.7,0.8-1.7,0.8-3c0-1.3-0.2-2.3-0.7-3c-0.5-0.7-1.2-1.1-2-1.1
	c-0.9,0-1.6,0.3-2.1,1c-0.5,0.7-0.7,1.6-0.7,2.8V227.3z M369.6,221h2.7v2.1c0.4-0.8,0.9-1.4,1.5-1.8c0.7-0.4,1.4-0.6,2.3-0.6
	c1,0,1.8,0.3,2.5,0.8c0.7,0.5,1.3,1.2,1.7,2.2c0.4,0.9,0.6,2,0.6,3.3c0,1.3-0.2,2.4-0.6,3.3c-0.4,1-1,1.7-1.8,2.2
	c-0.8,0.5-1.6,0.8-2.6,0.8c-0.8,0-1.5-0.2-2.1-0.5c-0.6-0.4-1.1-0.9-1.4-1.5v6.4h-2.9V221z M351.7,221v2.1c0.7-1.6,1.9-2.4,3.6-2.4
	c1.7,0,2.8,0.8,3.4,2.4c0.8-1.6,2.1-2.4,3.7-2.4c1.2,0,2,0.4,2.7,1.2c0.7,0.8,1,1.9,1,3.3v7.8h-2.9v-7.4c0-1.7-0.7-2.6-2-2.6
	c-0.7,0-1.3,0.3-1.7,0.8c-0.4,0.5-0.6,1.2-0.6,2.2v7h-2.9v-7.5c0-0.8-0.2-1.5-0.5-1.9c-0.3-0.4-0.8-0.6-1.4-0.6
	c-0.7,0-1.3,0.3-1.7,0.8c-0.4,0.5-0.6,1.3-0.6,2.2v6.9H349v-12H351.7z M337.3,227c0,1.3,0.3,2.4,0.8,3.1c0.5,0.7,1.2,1.1,2.2,1.1
	c0.9,0,1.6-0.3,2.2-1c0.5-0.7,0.8-1.7,0.8-3.1c0-1.3-0.3-2.4-0.8-3c-0.5-0.7-1.2-1-2.2-1s-1.7,0.3-2.2,1
	C337.5,224.6,337.3,225.6,337.3,227z M340.2,233.3c-1.2,0-2.2-0.2-3.1-0.7c-0.9-0.5-1.6-1.2-2.1-2.2c-0.5-1-0.7-2.1-0.7-3.4
	s0.2-2.4,0.7-3.4c0.5-0.9,1.2-1.7,2.1-2.1c0.9-0.5,1.9-0.7,3.1-0.7s2.2,0.2,3,0.7c0.9,0.5,1.6,1.2,2.1,2.1c0.5,0.9,0.7,2.1,0.7,3.4
	s-0.2,2.4-0.7,3.4c-0.5,0.9-1.2,1.7-2.1,2.2C342.4,233,341.4,233.3,340.2,233.3z M325.3,233.4c-1.7,0-3.2-0.4-4.4-1.1
	c-1.2-0.8-2.1-1.8-2.7-3.2c-0.6-1.3-0.9-2.9-0.9-4.7c0-1.8,0.3-3.3,0.9-4.7c0.6-1.3,1.6-2.4,2.8-3.1c1.2-0.8,2.6-1.1,4.3-1.1
	c2.1,0,3.7,0.5,4.9,1.6s1.9,2.6,2.2,4.4l-3.2,0.5c-0.1-1.2-0.6-2.2-1.3-2.9c-0.7-0.7-1.6-1.1-2.8-1.1c-1.5,0-2.6,0.6-3.5,1.7
	c-0.8,1.1-1.2,2.7-1.2,4.6c0,1.9,0.4,3.5,1.2,4.6c0.8,1.2,2,1.8,3.6,1.8c1.1,0,2-0.3,2.7-1c0.7-0.7,1.2-1.6,1.4-2.9l3.1,0.6
	c-0.4,1.8-1.2,3.2-2.4,4.3C328.9,232.9,327.3,233.4,325.3,233.4z"/>
<path fill="#FFFFFF" d="M282.2,503.8c-0.3,0-0.8,0-1.3-0.1v-2.3c0.4,0.1,0.7,0.1,1,0.1c0.7,0,1.3-0.2,1.7-0.5c0.4-0.3,0.7-0.8,1-1.4
	l0.2-0.7l-4.7-11.9h3.2l2.6,7.8c0.2,0.5,0.3,1,0.3,1.4h0c0-0.2,0.2-0.7,0.4-1.4l2.4-7.8h3l-4.5,12.6c-0.5,1.5-1.2,2.6-2.1,3.2
	C284.6,503.5,283.5,503.8,282.2,503.8z M273.9,499.3c-1.2,0-2.2-0.3-3.1-0.8c-0.9-0.5-1.6-1.3-2-2.2s-0.7-2-0.7-3.3
	c0-2,0.5-3.5,1.6-4.6c1.1-1.1,2.5-1.7,4.3-1.7c1.5,0,2.7,0.4,3.6,1.2c0.9,0.8,1.5,1.8,1.7,3.2l-2.8,0.5c-0.1-0.8-0.4-1.4-0.8-1.9
	c-0.4-0.4-1-0.6-1.7-0.6c-0.9,0-1.6,0.4-2.1,1.1s-0.8,1.7-0.8,2.9c0,1.3,0.3,2.3,0.8,3c0.5,0.7,1.2,1.1,2.2,1.1
	c0.7,0,1.3-0.2,1.7-0.6c0.4-0.4,0.7-1.1,0.9-1.9l2.7,0.6c-0.2,1.3-0.8,2.4-1.8,3.1C276.6,498.9,275.4,499.3,273.9,499.3z
	 M257.8,495.6c0,0.5,0.2,0.9,0.5,1.2c0.4,0.3,0.9,0.4,1.5,0.4c0.9,0,1.6-0.3,2.2-0.9c0.5-0.6,0.8-1.4,0.8-2.3v-0.8l-2.7,0.4
	c-0.8,0.1-1.4,0.3-1.8,0.6C258,494.7,257.8,495.1,257.8,495.6z M258.9,499.3c-1.2,0-2.2-0.3-3-1c-0.8-0.7-1.1-1.5-1.1-2.6
	c0-0.6,0.1-1.1,0.4-1.6c0.3-0.5,0.6-0.8,1.1-1.2c0.4-0.3,1-0.5,1.6-0.6c0.6-0.2,1.4-0.3,2.4-0.5l2.5-0.3v-0.3c0-0.9-0.2-1.5-0.6-1.9
	c-0.4-0.4-0.9-0.6-1.7-0.6c-0.7,0-1.3,0.2-1.7,0.6c-0.4,0.4-0.6,0.9-0.7,1.6h-3c0.1-1.3,0.6-2.3,1.6-3c0.9-0.8,2.2-1.1,3.7-1.1
	c1.8,0,3.1,0.4,3.9,1.2c0.8,0.8,1.2,2,1.2,3.8v3.6c0,1.6,0.1,2.9,0.4,3.7h-2.9c-0.1-0.7-0.2-1.3-0.2-2.1c-0.3,0.7-0.8,1.3-1.5,1.7
	C260.7,499.1,259.9,499.3,258.9,499.3z M242.3,487h3l2.3,7.6c0.2,0.6,0.3,1.2,0.4,1.8h0.1c0.1-0.6,0.2-1.2,0.4-1.8l2.4-7.6h3
	l-4.3,12h-3.1L242.3,487z M237.2,482h3.1v3h-3.1V482z M237.3,487h2.9v12h-2.9V487z M230.8,489.9c0.3-1,0.8-1.8,1.4-2.3
	c0.6-0.6,1.4-0.9,2.4-0.9c0.1,0,0.3,0,0.3,0v2.8l-0.4,0c-1.1,0-1.9,0.3-2.5,0.9c-0.4,0.4-0.7,0.9-0.9,1.5c-0.1,0.6-0.2,1.3-0.2,2.1
	v5h-2.9v-12h2.7V489.9z M219.1,490c1,0,1.8-0.3,2.4-0.8c0.6-0.5,0.9-1.2,0.9-2.1s-0.3-1.6-0.9-2.1c-0.6-0.5-1.4-0.8-2.4-0.8H216v5.7
	H219.1z M212.9,499v-17h6.7c1.2,0,2.2,0.2,3.1,0.6c0.9,0.4,1.6,1,2.1,1.8c0.5,0.8,0.7,1.7,0.7,2.7c0,1.6-0.5,2.9-1.6,3.8
	s-2.5,1.4-4.4,1.4H216v6.6H212.9z"/>
<path fill="#FFFFFF" d="M624.6,512h2.7v2.3c0.8-1.7,2.1-2.6,4-2.6c1.3,0,2.3,0.4,3,1.2c0.7,0.8,1,2,1,3.6v7.4h-2.9v-7.2
	c0-1.9-0.8-2.8-2.3-2.8c-0.8,0-1.5,0.3-2,1c-0.5,0.6-0.7,1.5-0.7,2.7v6.4h-2.9V512z M612.9,518c0,1.3,0.3,2.4,0.8,3.1
	c0.5,0.7,1.2,1.1,2.2,1.1c0.9,0,1.6-0.3,2.2-1c0.5-0.7,0.8-1.7,0.8-3.1c0-1.3-0.3-2.4-0.8-3c-0.5-0.7-1.2-1-2.2-1
	c-0.9,0-1.7,0.3-2.2,1C613.2,515.6,612.9,516.6,612.9,518z M615.9,524.3c-1.2,0-2.2-0.2-3.1-0.7c-0.9-0.5-1.6-1.2-2.1-2.2
	c-0.5-1-0.7-2.1-0.7-3.4s0.2-2.4,0.7-3.4c0.5-0.9,1.2-1.7,2.1-2.1c0.9-0.5,1.9-0.7,3.1-0.7c1.2,0,2.2,0.2,3,0.7
	c0.9,0.5,1.6,1.2,2.1,2.1c0.5,0.9,0.7,2.1,0.7,3.4s-0.2,2.4-0.7,3.4c-0.5,0.9-1.2,1.7-2.1,2.2C618,524,617,524.3,615.9,524.3z
	 M604.2,507h3.1v3h-3.1V507z M604.3,512h2.9v12h-2.9V512z M593.7,512h2.2v-3l2.9-1.2v4.2h2.9v2.1h-2.9v5.7c0,0.6,0.1,1.1,0.4,1.4
	c0.3,0.3,0.7,0.5,1.3,0.5c0.3,0,0.7,0,1.2-0.1v2.4c-0.7,0.1-1.3,0.2-2,0.2c-1.4,0-2.4-0.3-3-1c-0.6-0.7-0.9-1.6-0.9-2.9v-6.2h-2.2
	V512z M584.1,520.6c0,0.5,0.2,0.9,0.5,1.2c0.4,0.3,0.9,0.4,1.5,0.4c0.9,0,1.6-0.3,2.2-0.9c0.5-0.6,0.8-1.4,0.8-2.3v-0.8l-2.7,0.4
	c-0.8,0.1-1.4,0.3-1.8,0.6C584.2,519.7,584.1,520.1,584.1,520.6z M585.2,524.3c-1.2,0-2.2-0.3-3-1c-0.8-0.7-1.1-1.5-1.1-2.6
	c0-0.6,0.1-1.1,0.4-1.6c0.3-0.5,0.6-0.8,1.1-1.2c0.4-0.3,1-0.5,1.6-0.6c0.6-0.2,1.4-0.3,2.4-0.5l2.5-0.3v-0.3c0-0.9-0.2-1.5-0.6-1.9
	c-0.4-0.4-0.9-0.6-1.7-0.6c-0.7,0-1.3,0.2-1.7,0.6c-0.4,0.4-0.6,0.9-0.7,1.6h-3c0.1-1.3,0.6-2.3,1.6-3c0.9-0.8,2.2-1.1,3.7-1.1
	c1.8,0,3.1,0.4,3.9,1.2c0.8,0.8,1.2,2,1.2,3.8v3.6c0,1.6,0.1,2.9,0.4,3.7h-2.9c-0.1-0.7-0.2-1.3-0.2-2.1c-0.3,0.7-0.8,1.3-1.5,1.7
	C587,524.1,586.1,524.3,585.2,524.3z M576.1,514.2h-5.9V512h9.3v1.8l-6,7.9h6.4v2.2H570v-1.9L576.1,514.2z M564.4,507h3.1v3h-3.1
	V507z M564.5,512h2.9v12h-2.9V512z M546.6,512v2.1c0.7-1.6,1.9-2.4,3.6-2.4c1.7,0,2.8,0.8,3.4,2.4c0.8-1.6,2.1-2.4,3.7-2.4
	c1.2,0,2,0.4,2.7,1.2c0.7,0.8,1,1.9,1,3.3v7.8h-2.9v-7.4c0-1.7-0.7-2.6-2-2.6c-0.7,0-1.3,0.3-1.7,0.8c-0.4,0.5-0.6,1.2-0.6,2.2v7
	h-2.9v-7.5c0-0.8-0.2-1.5-0.5-1.9c-0.3-0.4-0.8-0.6-1.4-0.6c-0.7,0-1.3,0.3-1.7,0.8c-0.4,0.5-0.6,1.3-0.6,2.2v6.9h-2.9v-12H546.6z
	 M537,507h3.1v3H537V507z M537.1,512h2.9v12h-2.9V512z M526.5,512h2.2v-3l2.9-1.2v4.2h2.9v2.1h-2.9v5.7c0,0.6,0.1,1.1,0.4,1.4
	c0.3,0.3,0.7,0.5,1.3,0.5c0.3,0,0.7,0,1.2-0.1v2.4c-0.7,0.1-1.3,0.2-2,0.2c-1.4,0-2.4-0.3-3-1c-0.6-0.7-0.9-1.6-0.9-2.9v-6.2h-2.2
	V512z M516.8,518.3c0,1.2,0.2,2.1,0.7,2.8c0.5,0.7,1.2,1,2,1c0.9,0,1.5-0.4,2-1.1c0.5-0.7,0.8-1.7,0.8-3c0-1.3-0.2-2.3-0.7-3
	c-0.5-0.7-1.2-1.1-2-1.1s-1.6,0.3-2.1,1c-0.5,0.7-0.7,1.6-0.7,2.8V518.3z M514,512h2.7v2.1c0.4-0.8,0.9-1.4,1.5-1.8
	c0.7-0.4,1.4-0.6,2.3-0.6c1,0,1.8,0.3,2.5,0.8c0.7,0.5,1.3,1.2,1.7,2.2c0.4,0.9,0.6,2,0.6,3.3c0,1.3-0.2,2.4-0.6,3.3
	c-0.4,1-1,1.7-1.8,2.2c-0.8,0.5-1.6,0.8-2.6,0.8c-0.8,0-1.5-0.2-2.1-0.5c-0.6-0.4-1.1-0.9-1.4-1.5v6.4H514V512z M498.2,515.5
	c0,2,0.4,3.6,1.3,4.7c0.9,1.2,2.1,1.7,3.6,1.7c1.5,0,2.7-0.6,3.6-1.7c0.8-1.1,1.3-2.7,1.3-4.7s-0.4-3.6-1.3-4.7
	c-0.8-1.1-2-1.7-3.6-1.7c-1.5,0-2.7,0.6-3.6,1.7C498.7,511.9,498.2,513.5,498.2,515.5z M503.1,524.4c-1.6,0-3-0.4-4.2-1.1
	c-1.2-0.7-2.2-1.8-2.8-3.1c-0.7-1.4-1-2.9-1-4.7c0-1.8,0.3-3.4,1-4.8c0.7-1.3,1.6-2.4,2.8-3.1c1.2-0.7,2.6-1.1,4.3-1.1
	s3,0.4,4.2,1.1c1.2,0.7,2.2,1.8,2.8,3.1c0.7,1.3,1,2.9,1,4.8c0,1.8-0.3,3.4-1,4.7c-0.7,1.3-1.6,2.4-2.8,3.1
	C506.1,524,504.7,524.4,503.1,524.4z M610.4,494.3c-1.2,0-2.2-0.3-3.1-0.8c-0.9-0.5-1.6-1.3-2-2.2c-0.5-0.9-0.7-2-0.7-3.3
	c0-2,0.5-3.5,1.6-4.6c1.1-1.1,2.5-1.7,4.3-1.7c1.5,0,2.7,0.4,3.6,1.2c0.9,0.8,1.5,1.8,1.7,3.2l-2.8,0.5c-0.1-0.8-0.4-1.4-0.8-1.9
	c-0.4-0.4-1-0.6-1.7-0.6c-0.9,0-1.6,0.4-2.1,1.1c-0.5,0.7-0.8,1.7-0.8,2.9c0,1.3,0.3,2.3,0.8,3c0.5,0.7,1.2,1.1,2.2,1.1
	c0.7,0,1.3-0.2,1.7-0.6c0.4-0.4,0.7-1.1,0.9-1.9l2.7,0.6c-0.2,1.3-0.8,2.4-1.8,3.1C613,493.9,611.8,494.3,610.4,494.3z M598.7,477
	h3.1v3h-3.1V477z M598.8,482h2.9v12h-2.9V482z M588.2,482h2.2v-3l2.9-1.2v4.2h2.9v2.1h-2.9v5.7c0,0.6,0.1,1.1,0.4,1.4
	c0.3,0.3,0.7,0.5,1.3,0.5c0.3,0,0.7,0,1.2-0.1v2.4c-0.7,0.1-1.3,0.2-2,0.2c-1.4,0-2.4-0.3-3-1c-0.6-0.7-0.9-1.6-0.9-2.9v-6.2h-2.2
	V482z M581.9,494.3c-1.4,0-2.6-0.3-3.5-0.8c-1-0.6-1.6-1.4-2-2.4l2.1-1c0.3,0.7,0.7,1.2,1.3,1.6c0.6,0.4,1.3,0.6,2.2,0.6
	c0.7,0,1.3-0.1,1.7-0.4c0.4-0.3,0.6-0.6,0.6-1.1c0-0.4-0.1-0.7-0.4-0.9c-0.3-0.2-0.7-0.4-1.3-0.5l-2.1-0.4c-2.3-0.4-3.4-1.6-3.4-3.5
	c0-1.1,0.4-2,1.3-2.7c0.9-0.7,2.1-1,3.6-1c1.3,0,2.4,0.2,3.3,0.7c0.9,0.5,1.5,1.2,1.8,2l-2,1.1c-0.3-0.6-0.7-1-1.3-1.3
	c-0.5-0.3-1.2-0.5-1.9-0.5c-0.7,0-1.2,0.1-1.6,0.4c-0.4,0.2-0.5,0.6-0.5,1.1c0,0.4,0.1,0.7,0.4,0.9s0.7,0.4,1.2,0.5l2.4,0.4
	c1.2,0.2,2,0.6,2.5,1.2c0.5,0.6,0.8,1.3,0.8,2.3c0,1.2-0.4,2.1-1.3,2.8S583.5,494.3,581.9,494.3z M570.7,477h3.1v3h-3.1V477z
	 M570.9,482h2.9v12h-2.9V482z M564.3,484.9c0.3-1,0.8-1.8,1.4-2.3c0.6-0.6,1.4-0.9,2.4-0.9c0.1,0,0.3,0,0.3,0v2.8l-0.4,0
	c-1.1,0-1.9,0.3-2.5,0.9c-0.4,0.4-0.7,0.9-0.9,1.5c-0.1,0.6-0.2,1.3-0.2,2.1v5h-2.9v-12h2.7V484.9z M551.3,494.3
	c-2.7,0-4.1-1.5-4.1-4.6V482h2.9v7.3c0,0.9,0.2,1.6,0.5,2c0.4,0.5,0.9,0.7,1.6,0.7c0.8,0,1.4-0.3,1.9-0.9c0.5-0.6,0.7-1.4,0.7-2.4
	V482h2.9v12h-2.7v-2.2c-0.3,0.8-0.8,1.4-1.5,1.8C553,494.1,552.2,494.3,551.3,494.3z M541.8,486.8v-0.2c0-1-0.2-1.7-0.7-2.2
	c-0.5-0.5-1.1-0.8-2-0.8c-0.9,0-1.6,0.3-2.1,0.8c-0.5,0.6-0.8,1.3-0.8,2.4H541.8z M539.3,494.3c-1.8,0-3.3-0.5-4.3-1.6
	c-1-1.1-1.6-2.6-1.6-4.6c0-2,0.5-3.5,1.5-4.7c1-1.2,2.4-1.7,4.2-1.7c1.7,0,3.1,0.5,4,1.5c1,1,1.4,2.4,1.4,4.2v1.3h-8.4
	c0,1,0.3,1.8,0.9,2.4c0.6,0.6,1.4,0.9,2.3,0.9c0.7,0,1.3-0.2,1.8-0.5c0.5-0.3,0.9-0.8,1.2-1.5l2.2,1c-0.4,1-1.1,1.8-2,2.4
	C541.6,494,540.5,494.3,539.3,494.3z M530.4,494h-3.1v-7.4h-7.7v7.4h-3.1v-17h3.1v7.1h7.7V477h3.1V494z"/>
<path fill="#FFFFFF" d="M422.1,399h3.1v14.5h7.4v2.5h-10.5V399z M400.7,399h4.3l3.9,11.9c0.1,0.4,0.2,0.7,0.3,1
	c0.1,0.3,0.1,0.6,0.2,0.9h0c0.1-0.5,0.2-1.1,0.4-1.8l3.8-11.8h4.3v17h-2.8v-12.4c0-0.7,0-1.3,0.1-1.9h-0.1c0,0.2-0.1,0.5-0.2,0.8
	c-0.1,0.4-0.2,0.7-0.3,1l-4,12.5h-2.8l-4.1-12.5c-0.1-0.2-0.2-0.5-0.3-0.9c-0.1-0.4-0.1-0.7-0.2-0.9h-0.1c0.1,0.5,0.1,1.1,0.1,1.9
	V416h-2.7V399z M384.1,399h3.1v8l6.8-8h3.7l-6.1,6.9l6.6,10.2h-3.6l-5.1-8l-2.3,2.6v5.4h-3.1V399z M377.7,401.5h-8.6V399h12v2.5
	l-8.9,12.1h9.3v2.5h-12.7v-2.5L377.7,401.5z"/>
<path fill="#FFFFFF" d="M500.8,368h3.1v14.5h7.4v2.5h-10.5V368z M479.3,368h4.3l3.9,11.9c0.1,0.4,0.2,0.7,0.3,1
	c0.1,0.3,0.1,0.6,0.2,0.9h0c0.1-0.5,0.2-1.1,0.4-1.8l3.8-11.8h4.3v17h-2.8v-12.4c0-0.7,0-1.3,0.1-1.9h-0.1c0,0.2-0.1,0.5-0.2,0.8
	c-0.1,0.4-0.2,0.7-0.3,1l-4,12.5h-2.8l-4.1-12.5c-0.1-0.2-0.2-0.5-0.3-0.9c-0.1-0.4-0.1-0.7-0.2-0.9H482c0.1,0.5,0.1,1.1,0.1,1.9
	V385h-2.7V368z M526.8,359.8c-0.3,0-0.8,0-1.3-0.1v-2.3c0.4,0.1,0.7,0.1,1,0.1c0.7,0,1.3-0.2,1.7-0.5c0.4-0.3,0.7-0.8,1-1.4l0.2-0.7
	l-4.7-11.9h3.2l2.6,7.8c0.2,0.5,0.3,1,0.3,1.4h0c0-0.2,0.2-0.7,0.4-1.4l2.4-7.8h3l-4.5,12.6c-0.5,1.5-1.2,2.6-2.1,3.2
	C529.2,359.5,528.1,359.8,526.8,359.8z M515.3,343h2.2v-3l2.9-1.2v4.2h2.9v2.1h-2.9v5.7c0,0.6,0.1,1.1,0.4,1.4
	c0.3,0.3,0.7,0.5,1.3,0.5c0.3,0,0.7,0,1.2-0.1v2.4c-0.7,0.1-1.3,0.2-2,0.2c-1.4,0-2.4-0.3-3-1c-0.6-0.7-0.9-1.6-0.9-2.9v-6.2h-2.2
	V343z M510.1,338h3.1v3h-3.1V338z M510.2,343h2.9v12h-2.9V343z M498,349c0,1.3,0.2,2.3,0.7,3c0.5,0.7,1.2,1.1,2.1,1.1
	c0.8,0,1.5-0.3,2-1c0.5-0.7,0.7-1.6,0.7-2.7v-0.8c0-1.2-0.2-2.1-0.7-2.7s-1.2-1-2-1c-0.9,0-1.6,0.4-2.1,1.1
	C498.3,346.7,498,347.7,498,349z M499.9,355.3c-1,0-1.8-0.3-2.5-0.8c-0.7-0.5-1.3-1.3-1.7-2.2c-0.4-1-0.6-2.1-0.6-3.3
	c0-1.2,0.2-2.3,0.6-3.3c0.4-1,1-1.7,1.8-2.2c0.8-0.5,1.6-0.8,2.6-0.8c1.6,0,2.8,0.7,3.5,2v-7.1h2.9V355h-2.7v-2.2
	c-0.3,0.8-0.8,1.4-1.5,1.8C501.5,355.1,500.8,355.3,499.9,355.3z M489.2,338h3.1v3h-3.1V338z M489.3,343h2.9v12h-2.9V343z
	 M485.5,355h-2.9v-17.4h2.9V355z M471.2,351.6c0,0.5,0.2,0.9,0.5,1.2c0.4,0.3,0.9,0.4,1.5,0.4c0.9,0,1.6-0.3,2.2-0.9
	c0.5-0.6,0.8-1.4,0.8-2.3v-0.8l-2.7,0.4c-0.8,0.1-1.4,0.3-1.8,0.6C471.4,350.7,471.2,351.1,471.2,351.6z M472.3,355.3
	c-1.2,0-2.2-0.3-3-1c-0.8-0.7-1.1-1.5-1.1-2.6c0-0.6,0.1-1.1,0.4-1.6c0.3-0.5,0.6-0.8,1.1-1.2c0.4-0.3,1-0.5,1.6-0.6
	c0.6-0.2,1.4-0.3,2.4-0.5l2.5-0.3v-0.3c0-0.9-0.2-1.5-0.6-1.9c-0.4-0.4-0.9-0.6-1.7-0.6c-0.7,0-1.3,0.2-1.7,0.6
	c-0.4,0.4-0.6,0.9-0.7,1.6h-3c0.1-1.3,0.6-2.3,1.6-3c0.9-0.8,2.2-1.1,3.7-1.1c1.8,0,3.1,0.4,3.9,1.2c0.8,0.8,1.2,2,1.2,3.8v3.6
	c0,1.6,0.1,2.9,0.4,3.7h-2.9c-0.1-0.7-0.2-1.3-0.2-2.1c-0.3,0.7-0.8,1.3-1.5,1.7C474.1,355.1,473.3,355.3,472.3,355.3z M452.6,338
	h3.3l3.6,11.8c0.3,0.9,0.5,1.7,0.6,2.3h0.1c0.1-0.6,0.3-1.4,0.6-2.3l3.6-11.8h3.3l-5.8,17h-3.5L452.6,338z"/>
<path fill="#FFFFFF" d="M299.4,344h3.1v8l6.8-8h3.7l-6.1,6.9l6.6,10.2h-3.6l-5.1-8l-2.3,2.6v5.4h-3.1V344z M292.9,346.5h-8.6V344h12
	v2.5l-8.9,12.1h9.3v2.5H284v-2.5L292.9,346.5z"/>
<path fill="#FFFFFF" d="M430.3,506h3.1v14.5h7.4v2.5h-10.5V506z M408.8,506h4.3l3.9,11.9c0.1,0.4,0.2,0.7,0.3,1
	c0.1,0.3,0.1,0.6,0.2,0.9h0c0.1-0.5,0.2-1.1,0.4-1.8l3.8-11.8h4.3v17h-2.8v-12.4c0-0.7,0-1.3,0.1-1.9h-0.1c0,0.2-0.1,0.5-0.2,0.8
	c-0.1,0.4-0.2,0.7-0.3,1l-4,12.5H416l-4.1-12.5c-0.1-0.2-0.2-0.5-0.3-0.9c-0.1-0.4-0.1-0.7-0.2-0.9h-0.1c0.1,0.5,0.1,1.1,0.1,1.9
	V523h-2.7V506z M405.3,520.6v2.4H394v-17h11.1v2.4h-8v4.7h7.6v2.4h-7.6v5.1H405.3z M389.8,523h-3.1v-7.4h-7.7v7.4H376v-17h3.1v7.1
	h7.7V506h3.1V523z M361.9,523v-17H373v2.4h-8v4.7h7.6v2.4H365v7.4H361.9z"/>
</svg>
