<?xml version="1.0" encoding="utf-8"?>
<!-- Generator: Adobe Illustrator 25.0.0, SVG Export Plug-In . SVG Version: 6.00 Build 0)  -->
<svg version="1.1" id="Layer_1" xmlns="http://www.w3.org/2000/svg" xmlns:xlink="http://www.w3.org/1999/xlink" x="0px" y="0px"
	 viewBox="0 0 1920 1080" enable-background="new 0 0 1920 1080" xml:space="preserve">
<rect width="1920" height="1080"/>
<rect x="188.7" y="329.5" transform="matrix(0.7071 -0.7071 0.7071 0.7071 -225.0433 250.4909)" fill="#FFFFFF" width="2.3" height="134.8"/>
<rect x="472.3" y="613.1" transform="matrix(0.7071 -0.7071 0.7071 0.7071 -342.5074 534.0758)" fill="#FFFFFF" width="2.3" height="134.8"/>
<rect x="404.9" y="396.9" transform="matrix(0.7071 -0.7071 0.7071 0.7071 -143.6273 449.3728)" fill="#FFFFFF" width="131.5" height="2.3"/>
<rect x="123.6" y="678.2" transform="matrix(0.7071 -0.7071 0.7071 0.7071 -424.8858 332.8718)" fill="#FFFFFF" width="131.5" height="2.3"/>
<rect x="958.9" y="245.3" transform="matrix(0.3792 -0.9253 0.9253 0.3792 214.4638 1144.3217)" fill="#FFFFFF" width="2.3" height="334.1"/>
<rect x="958.9" y="498.6" transform="matrix(0.3792 -0.9253 0.9253 0.3792 -19.9818 1301.6176)" fill="#FFFFFF" width="2.3" height="334.1"/>
<rect x="958.9" y="372" transform="matrix(0.3792 -0.9253 0.9253 0.3792 97.2411 1222.9697)" fill="#FFFFFF" width="2.3" height="334.1"/>
<rect x="793" y="413.3" transform="matrix(0.9253 -0.3792 0.3792 0.9253 -85.4724 394.9674)" fill="#FFFFFF" width="334.1" height="2.3"/>
<rect x="793" y="663.2" transform="matrix(0.9253 -0.3792 0.3792 0.9253 -180.2208 413.6273)" fill="#FFFFFF" width="334.1" height="2.3"/>
<rect x="793" y="540" transform="matrix(0.9253 -0.3792 0.3792 0.9253 -133.5078 404.4275)" fill="#FFFFFF" width="334.1" height="2.3"/>
<rect x="959.2" y="276.7" transform="matrix(0.6304 -0.7763 0.7763 0.6304 -14.4392 921.3724)" fill="#FFFFFF" width="2.3" height="398.2"/>
<rect x="761.2" y="476.5" transform="matrix(0.7729 -0.6345 0.6345 0.7729 -84.999 717.8026)" fill="#FFFFFF" width="398.2" height="2.3"/>
<rect x="761.7" y="604" transform="matrix(0.7729 -0.6345 0.6345 0.7729 -165.7922 747.0715)" fill="#FFFFFF" width="398.2" height="2.3"/>
<rect x="959.2" y="403.4" transform="matrix(0.6304 -0.7763 0.7763 0.6304 -112.7822 968.1978)" fill="#FFFFFF" width="2.3" height="398.2"/>
<rect x="1587.7" y="335.3" transform="matrix(0.9298 -0.3679 0.3679 0.9298 -86.8911 622.4282)" fill="#FFFFFF" width="2.3" height="407.5"/>
<rect x="1587" y="334.7" transform="matrix(0.367 -0.9302 0.9302 0.367 503.9648 1818.5963)" fill="#FFFFFF" width="2.3" height="408.6"/>
<rect x="1383" y="537.8" transform="matrix(0.9298 -0.3679 0.3679 0.9298 -87.0118 621.6542)" fill="#FFFFFF" width="407.5" height="2.3"/>
<rect x="1384.6" y="539.4" transform="matrix(0.367 -0.9302 0.9302 0.367 502.9767 1820.1577)" fill="#FFFFFF" width="408.6" height="2.3"/>
<g>
	<defs>
		<rect id="SVGID_1_" x="141.4" y="350.1" width="378.9" height="378.9"/>
	</defs>
	<clipPath id="SVGID_2_">
		<use xlink:href="#SVGID_1_"  overflow="visible"/>
	</clipPath>
	<path clip-path="url(#SVGID_2_)" fill="#FFFFFF" d="M143.7,729V350.1H139V729H143.7z M520.3,726.6H141.4v4.6h378.9V726.6z
		 M517.9,350.1V729h4.6V350.1H517.9z M141.4,352.4h378.9v-4.6H141.4V352.4z M141.4,729H139v2.3h2.3V729z M520.3,729v2.3h2.3V729
		H520.3z M520.3,350.1h2.3v-2.3h-2.3V350.1z M141.4,350.1v-2.3H139v2.3H141.4z"/>
</g>
<g>
	<defs>
		<rect id="SVGID_3_" x="235.5" y="445.4" width="189.4" height="189.4"/>
	</defs>
	<clipPath id="SVGID_4_">
		<use xlink:href="#SVGID_3_"  overflow="visible"/>
	</clipPath>
	<path clip-path="url(#SVGID_4_)" fill="#FFFFFF" d="M237.8,634.8V445.4h-4.6v189.4H237.8z M425,632.5H235.5v4.6H425V632.5z
		 M422.6,445.4v189.4h4.6V445.4H422.6z M235.5,447.7H425V443H235.5V447.7z M235.5,634.8h-2.3v2.3h2.3V634.8z M425,634.8v2.3h2.3
		v-2.3H425z M425,445.4h2.3V443H425V445.4z M235.5,445.4V443h-2.3v2.3H235.5z"/>
</g>
<circle fill="#FF7C2E" cx="140.8" cy="350.6" r="38.9"/>
<circle fill="#FF7C2E" cx="424.4" cy="635.4" r="38.9"/>
<circle fill="#FF7C2E" cx="424.4" cy="446" r="38.9"/>
<circle fill="#00B979" cx="519.7" cy="350.6" r="38.9"/>
<circle fill="#00B979" cx="234.9" cy="446" r="38.9"/>
<circle fill="#00B979" cx="234.9" cy="635.4" r="38.9"/>
<circle fill="#FF7C2E" cx="140.8" cy="729.5" r="38.9"/>
<circle fill="#FF7C2E" cx="804.4" cy="350.6" r="38.9"/>
<circle fill="#FF7C2E" cx="804.4" cy="477.3" r="38.9"/>
<circle fill="#FF7C2E" cx="804.4" cy="604" r="38.9"/>
<circle fill="#FF7C2E" cx="804.4" cy="730.7" r="38.9"/>
<circle fill="#00B979" cx="1113.6" cy="350.6" r="38.9"/>
<circle fill="#00B979" cx="1113.6" cy="477.3" r="38.9"/>
<circle fill="#00B979" cx="1113.6" cy="604" r="38.9"/>
<circle fill="#00B979" cx="1113.6" cy="730.7" r="38.9"/>
<circle fill="#FF7C2E" cx="1512.2" cy="350.6" r="38.9"/>
<circle fill="#00B979" cx="1512.2" cy="730.7" r="38.9"/>
<circle fill="#00B979" cx="1662.1" cy="350.6" r="38.9"/>
<circle fill="#FF7C2E" cx="1662.1" cy="730.7" r="38.9"/>
<ellipse transform="matrix(0.3827 -0.9239 0.9239 0.3827 666.8411 1929.4165)" fill="#FF7C2E" cx="1777.2" cy="465.7" rx="38.9" ry="38.9"/>
<ellipse transform="matrix(0.3827 -0.9239 0.9239 0.3827 432.2314 1578.2985)" fill="#00B979" cx="1397.2" cy="465.7" rx="38.9" ry="38.9"/>
<ellipse transform="matrix(0.3827 -0.9239 0.9239 0.3827 528.3257 2021.9695)" fill="#00B979" cx="1777.2" cy="615.6" rx="38.9" ry="38.9"/>
<ellipse transform="matrix(0.3827 -0.9239 0.9239 0.3827 293.7162 1670.8514)" fill="#FF7C2E" cx="1397.2" cy="615.6" rx="38.9" ry="38.9"/>
<circle fill="#00B979" cx="519.7" cy="729.5" r="38.9"/>
</svg>
