<svg width="816" height="562" viewBox="0 0 816 562" fill="none" xmlns="http://www.w3.org/2000/svg">
<g clip-path="url(#clip0_9329_82958)">
<g clip-path="url(#clip1_9329_82958)">
<path d="M308.779 280.673L307.362 195.354C307.771 195.354 308.149 195.323 308.527 195.291L316.366 280.264C313.879 280.516 311.329 280.642 308.779 280.673ZM297.949 280.296C295.43 280.075 292.88 279.729 290.393 279.32L304.56 195.197C304.938 195.26 305.316 195.323 305.693 195.354L297.949 280.296ZM327.165 278.69L310.164 195.071C310.542 195.008 310.888 194.913 311.266 194.819L334.595 276.895C332.171 277.588 329.652 278.186 327.165 278.69ZM279.751 276.895C277.296 276.203 274.871 275.416 272.479 274.534L301.947 194.472C302.293 194.598 302.671 194.724 303.017 194.819L279.751 276.895ZM344.953 273.306L312.777 194.284C313.123 194.158 313.47 194 313.816 193.811L351.911 270.158C349.644 271.291 347.283 272.362 344.953 273.306ZM262.404 270.221C260.137 269.088 257.871 267.86 255.698 266.569L299.428 193.308C299.743 193.496 300.089 193.685 300.436 193.843L262.404 270.221ZM361.387 264.774L315.201 193.024C315.516 192.804 315.831 192.583 316.146 192.363L367.621 260.398C365.606 261.941 363.497 263.389 361.387 264.774ZM246.663 260.461C244.648 258.95 242.664 257.313 240.775 255.644L297.193 191.639C297.476 191.891 297.791 192.143 298.106 192.363L246.663 260.461ZM375.932 253.377L317.405 191.293C317.689 191.041 317.972 190.757 318.224 190.474L381.253 247.962C379.584 249.82 377.79 251.646 375.932 253.377ZM233.03 248.025C231.33 246.168 229.662 244.184 228.119 242.201L295.273 189.593C295.524 189.907 295.745 190.191 296.028 190.474L233.03 248.025ZM388.148 239.525L319.294 189.183C319.515 188.868 319.735 188.554 319.924 188.239L392.43 233.197C391.107 235.369 389.659 237.478 388.148 239.525ZM221.854 233.291C220.532 231.15 219.241 228.915 218.076 226.648L293.761 187.263C293.95 187.609 294.139 187.924 294.328 188.239L221.854 233.291ZM397.656 223.626L320.679 186.822C320.837 186.476 320.994 186.129 321.12 185.783L400.678 216.605C399.797 218.966 398.758 221.328 397.656 223.626ZM213.574 216.7C212.661 214.338 211.811 211.883 211.087 209.458L292.754 184.713C292.848 185.059 292.974 185.405 293.132 185.752L213.574 216.7ZM404.11 206.184L321.655 184.24C321.75 183.894 321.844 183.516 321.907 183.139L405.81 198.691C405.306 201.241 404.739 203.729 404.11 206.184ZM208.474 198.849C208.001 196.361 207.623 193.811 207.372 191.293L292.187 182.037C292.219 182.414 292.282 182.792 292.345 183.17L208.474 198.849ZM407.195 187.924L322.128 181.533C322.159 181.155 322.159 180.746 322.159 180.337V180.211H407.478V180.337C407.478 182.887 407.384 185.437 407.195 187.924ZM292.093 180.431H206.773V180.368C206.773 177.881 206.868 175.362 207.057 172.907L292.124 179.172C292.093 179.549 292.093 179.959 292.093 180.337V180.431ZM322.065 178.636C322.033 178.259 321.97 177.881 321.907 177.503L405.747 161.73C406.219 164.217 406.597 166.767 406.88 169.286L322.065 178.636ZM292.345 177.566L208.442 162.076C208.914 159.589 209.481 157.071 210.111 154.615L292.596 176.464C292.471 176.81 292.408 177.188 292.345 177.566ZM321.498 175.96C321.404 175.614 321.278 175.236 321.12 174.89L400.615 143.879C401.528 146.24 402.378 148.664 403.134 151.12L321.498 175.96ZM293.069 174.953L213.479 144.225C214.392 141.864 215.4 139.503 216.502 137.205L293.509 173.945C293.352 174.26 293.195 174.607 293.069 174.953ZM320.459 173.442C320.27 173.095 320.081 172.781 319.892 172.466L392.304 127.319C393.657 129.46 394.917 131.695 396.082 133.962L320.459 173.442ZM294.297 172.497L221.728 127.602C223.05 125.461 224.498 123.321 225.978 121.274L294.926 171.521C294.706 171.836 294.485 172.151 294.297 172.497ZM318.948 171.08C318.696 170.766 318.476 170.482 318.192 170.199L381.127 112.585C382.827 114.442 384.496 116.394 386.07 118.409L318.948 171.08ZM295.997 170.262L232.873 112.837C234.573 110.979 236.368 109.153 238.194 107.39L296.784 169.412C296.532 169.695 296.249 169.947 295.997 170.262ZM317.027 169.034C316.744 168.782 316.429 168.53 316.146 168.31L367.495 100.149C369.51 101.66 371.493 103.297 373.414 104.966L317.027 169.034ZM298.075 168.341L246.505 100.369C248.52 98.8267 250.629 97.3785 252.739 95.9932L298.988 167.68C298.673 167.901 298.358 168.121 298.075 168.341ZM314.761 167.397C314.446 167.208 314.099 167.019 313.753 166.862L351.69 90.4522C353.957 91.5856 356.224 92.8134 358.396 94.1042L314.761 167.397ZM300.436 166.893L262.215 90.5781C264.482 89.4447 266.812 88.3743 269.173 87.4298L301.443 166.421C301.097 166.547 300.751 166.704 300.436 166.893ZM312.305 166.232C311.959 166.106 311.612 165.98 311.235 165.886L334.375 83.7777C336.83 84.4704 339.286 85.2575 341.647 86.139L312.305 166.232ZM302.954 165.886L279.531 83.8407C281.987 83.1481 284.474 82.5184 286.961 82.0147L304.056 165.634C303.679 165.697 303.301 165.791 302.954 165.886ZM309.66 165.539C309.283 165.477 308.905 165.414 308.527 165.382L316.146 80.409C318.665 80.6294 321.215 80.9757 323.702 81.385L309.66 165.539ZM305.662 165.382L297.728 80.4405C300.247 80.2201 302.797 80.0627 305.316 80.0312L306.827 165.351C306.449 165.319 306.04 165.351 305.662 165.382Z" fill="#FFB900"/>
<path d="M508.884 280.705C507.813 280.705 506.743 280.674 505.673 280.642L508.349 195.354C508.506 195.354 508.695 195.354 508.852 195.354H508.884V280.705ZM525.224 279.383L511.371 195.197C511.528 195.165 511.686 195.134 511.843 195.102L528.435 278.785C527.396 279.005 526.294 279.194 525.224 279.383ZM489.396 278.816C488.325 278.596 487.224 278.375 486.185 278.123L505.452 195.008C505.61 195.039 505.767 195.071 505.924 195.102L489.396 278.816ZM544.271 274.251L514.173 194.41C514.331 194.347 514.488 194.284 514.614 194.221L547.325 273.023C546.317 273.464 545.31 273.873 544.271 274.251ZM470.506 273.086C469.498 272.677 468.491 272.236 467.484 271.764L502.682 194.063C502.839 194.126 502.965 194.189 503.122 194.252L470.506 273.086ZM561.933 265.53L516.786 193.119C516.912 193.024 517.07 192.93 517.195 192.836L564.672 263.736C563.759 264.365 562.846 264.963 561.933 265.53ZM453.127 263.799C452.214 263.2 451.301 262.571 450.42 261.941L500.132 192.615C500.258 192.71 500.415 192.804 500.541 192.899L453.127 263.799ZM577.486 253.598L519.147 191.356C519.273 191.23 519.399 191.135 519.525 191.01L579.847 251.331C579.06 252.087 578.273 252.842 577.486 253.598ZM437.952 251.363C437.165 250.576 436.41 249.789 435.654 249.002L497.896 190.663C497.991 190.789 498.117 190.884 498.243 191.01L437.952 251.363ZM590.425 238.832L521.131 189.089C521.225 188.963 521.32 188.837 521.414 188.68L592.314 236.125C591.685 237.038 591.055 237.951 590.425 238.832ZM425.485 236.188C424.887 235.275 424.289 234.362 423.722 233.449L496.102 188.271C496.196 188.428 496.291 188.554 496.385 188.68L425.485 236.188ZM600.279 221.769L522.579 186.539C522.642 186.382 522.705 186.224 522.768 186.067L601.602 218.778C601.192 219.785 600.752 220.793 600.279 221.769ZM416.198 218.872C415.788 217.865 415.379 216.857 415.001 215.818L494.811 185.657C494.874 185.815 494.937 185.972 495 186.098L416.198 218.872ZM606.639 203.099L523.524 183.8C523.555 183.643 523.587 183.485 523.618 183.328L607.332 199.888C607.111 200.958 606.891 202.029 606.639 203.099ZM410.468 199.982C410.247 198.912 410.058 197.841 409.869 196.739L494.055 182.855C494.087 183.013 494.118 183.17 494.15 183.328L410.468 199.982ZM609.189 183.611L523.901 180.903C523.901 180.715 523.901 180.557 523.901 180.368V180.242H609.221V180.368C609.221 181.439 609.221 182.509 609.189 183.611ZM493.835 180.431H408.516V180.368C408.516 179.329 408.547 178.259 408.579 177.22L493.866 179.865C493.866 180.022 493.866 180.211 493.866 180.368V180.431H493.835ZM523.712 177.787C523.681 177.629 523.65 177.503 523.618 177.346L607.269 160.597C607.489 161.667 607.678 162.769 607.867 163.871L523.712 177.787ZM494.118 177.409L410.405 160.943C410.625 159.873 410.845 158.802 411.097 157.732L494.244 176.905C494.181 177.063 494.15 177.251 494.118 177.409ZM522.957 175.016C522.894 174.859 522.831 174.701 522.768 174.575L601.507 141.738C601.917 142.746 602.326 143.753 602.735 144.792L522.957 175.016ZM494.968 174.638L416.103 142.022C416.512 141.014 416.953 140.007 417.394 138.999L495.126 174.166C495.094 174.324 495.031 174.481 494.968 174.638ZM521.666 172.435C521.572 172.277 521.477 172.151 521.383 172.025L592.188 124.423C592.786 125.336 593.385 126.249 593.983 127.162L521.666 172.435ZM496.354 172.025L425.391 124.643C425.989 123.73 426.618 122.817 427.28 121.936L496.637 171.647C496.511 171.773 496.448 171.899 496.354 172.025ZM519.84 170.073C519.714 169.947 519.62 169.821 519.494 169.695L579.721 109.279C580.477 110.035 581.264 110.822 581.988 111.609L519.84 170.073ZM498.243 169.727L437.826 109.468C438.582 108.713 439.369 107.926 440.156 107.201L498.589 169.381C498.463 169.507 498.369 169.601 498.243 169.727ZM517.573 168.09C517.447 167.995 517.29 167.901 517.164 167.806L564.515 96.8435C565.428 97.4417 566.341 98.0713 567.222 98.701L517.573 168.09ZM500.541 167.838L453.001 97.0009C453.914 96.4027 454.827 95.8045 455.74 95.2378L500.95 167.586C500.824 167.649 500.667 167.744 500.541 167.838ZM515.055 166.61C514.897 166.547 514.74 166.484 514.614 166.421L547.136 87.556C548.143 87.9652 549.151 88.406 550.158 88.8782L515.055 166.61ZM503.122 166.453L470.317 87.6819C471.325 87.2726 472.332 86.8633 473.371 86.4855L503.563 166.295C503.406 166.327 503.28 166.39 503.122 166.453ZM512.316 165.697C512.158 165.666 512.001 165.634 511.843 165.603L528.246 81.8575C529.316 82.0779 530.418 82.2983 531.457 82.5501L512.316 165.697ZM505.862 165.603L489.175 81.9205C490.246 81.7001 491.316 81.5112 492.418 81.3223L506.365 165.508C506.208 165.54 506.019 165.571 505.862 165.603ZM509.356 165.319C509.199 165.319 509.041 165.319 508.852 165.319H508.789L508.726 80H508.884C509.923 80 510.962 80 511.969 80.0315L509.356 165.319Z" fill="#00B979"/>
<path d="M710.634 280.705C709.752 280.705 708.839 280.705 707.958 280.674L710.224 195.386C710.791 195.386 711.389 195.386 711.956 195.323L718.945 280.359C716.206 280.579 713.404 280.705 710.634 280.705ZM702.479 280.359C698.827 280.075 695.144 279.572 691.523 278.848L707.737 195.071C708.272 195.165 708.839 195.26 709.374 195.291L702.479 280.359ZM724.423 279.761L712.775 195.228C713.31 195.165 713.845 195.039 714.38 194.914L735.316 277.62C731.727 278.533 728.075 279.257 724.423 279.761ZM686.108 277.683C682.519 276.77 678.962 275.668 675.53 274.377L705.407 194.473C705.911 194.662 706.415 194.819 706.95 194.945L686.108 277.683ZM740.637 276.14L715.167 194.725C715.671 194.567 716.175 194.378 716.678 194.158L751.027 272.268C747.658 273.716 744.163 275.038 740.637 276.14ZM670.367 272.268C666.998 270.788 663.661 269.119 660.481 267.262L703.172 193.371C703.644 193.654 704.148 193.906 704.62 194.126L670.367 272.268ZM756.032 269.875L717.434 193.78C717.906 193.528 718.41 193.245 718.851 192.962L765.603 264.334C762.518 266.349 759.307 268.206 756.032 269.875ZM655.79 264.365C652.705 262.35 649.714 260.147 646.88 257.817L701.126 191.954C701.567 192.3 702.007 192.647 702.479 192.93L655.79 264.365ZM770.137 261.186L719.543 192.489C719.984 192.143 720.425 191.797 720.834 191.419L778.637 254.165C775.93 256.652 773.065 259.013 770.137 261.186ZM642.725 254.228C640.017 251.741 637.435 249.096 635.043 246.326L699.331 190.223C699.709 190.632 700.087 191.041 700.496 191.419L642.725 254.228ZM782.573 250.324L721.432 190.821C721.81 190.411 722.188 190.002 722.534 189.561L789.845 242.012C787.578 244.877 785.154 247.679 782.573 250.324ZM631.517 242.075C629.25 239.179 627.14 236.125 625.22 233.008L697.82 188.208C698.103 188.68 698.418 189.121 698.765 189.561L631.517 242.075ZM793.088 237.573L723.007 188.9C723.321 188.459 723.605 187.987 723.857 187.484L798.849 228.16C797.149 231.371 795.197 234.551 793.088 237.573ZM622.449 228.223C620.686 224.98 619.112 221.643 617.727 218.211L696.718 186.004C696.939 186.508 697.159 187.011 697.411 187.484L622.449 228.223ZM801.4 223.185L724.266 186.728C724.486 186.256 724.707 185.72 724.864 185.217L805.555 212.89C804.39 216.417 802.974 219.88 801.4 223.185ZM615.743 213.016C614.547 209.522 613.54 205.933 612.721 202.344L695.963 183.674C696.088 184.209 696.214 184.713 696.403 185.217L615.743 213.016ZM807.224 207.633L725.116 184.461C725.273 183.957 725.368 183.422 725.462 182.887L809.648 196.834C809.05 200.455 808.231 204.075 807.224 207.633ZM611.651 196.928C611.052 193.308 610.643 189.624 610.423 185.972L695.616 181.25C695.648 181.817 695.711 182.383 695.805 182.918L611.651 196.928ZM810.404 191.324L725.588 182.037C725.651 181.47 725.683 180.904 725.683 180.337V180.211H811.002V180.337C811.002 184.02 810.813 187.704 810.404 191.324ZM695.616 180.4H610.297V180.337C610.297 176.716 610.486 173.064 610.895 169.475L695.711 178.668C695.648 179.235 695.616 179.802 695.616 180.368V180.4ZM725.651 179.455C725.62 178.889 725.557 178.322 725.462 177.787L809.617 163.651C810.215 167.271 810.624 170.955 810.845 174.607L725.651 179.455ZM695.805 177.85L611.619 163.997C612.217 160.377 613.036 156.724 614.012 153.167L696.151 176.244C696.025 176.779 695.9 177.314 695.805 177.85ZM725.305 177C725.179 176.464 725.053 175.961 724.864 175.457L805.492 147.594C806.689 151.089 807.728 154.678 808.515 158.267L725.305 177ZM696.403 175.488L615.68 147.878C616.877 144.383 618.262 140.951 619.836 137.614L697.033 173.977C696.781 174.449 696.592 174.953 696.403 175.488ZM724.581 174.67C724.36 174.166 724.14 173.662 723.888 173.19L798.818 132.388C800.581 135.631 802.187 138.999 803.572 142.4L724.581 174.67ZM697.379 173.253L622.323 132.671C624.055 129.429 626.007 126.28 628.116 123.258L698.261 171.836C697.946 172.277 697.663 172.749 697.379 173.253ZM723.479 172.498C723.195 172.025 722.881 171.553 722.534 171.144L789.719 118.567C791.986 121.463 794.096 124.517 796.047 127.634L723.479 172.498ZM698.765 171.144L631.422 118.787C633.657 115.891 636.113 113.089 638.663 110.476L699.898 169.884C699.457 170.294 699.111 170.703 698.765 171.144ZM721.968 170.483C721.59 170.073 721.212 169.664 720.803 169.286L778.48 106.414C781.187 108.902 783.769 111.546 786.193 114.317L721.968 170.483ZM700.465 169.286L642.567 106.603C645.275 104.116 648.108 101.755 651.068 99.5826L701.724 168.216C701.315 168.562 700.874 168.908 700.465 169.286ZM720.173 168.72C719.732 168.373 719.292 168.027 718.819 167.744L765.414 96.2768C768.5 98.2917 771.491 100.464 774.324 102.794L720.173 168.72ZM702.448 167.744L655.601 96.4342C658.686 94.4193 661.898 92.5618 665.172 90.8932L703.865 166.925C703.393 167.177 702.889 167.46 702.448 167.744ZM718.127 167.303C717.654 167.019 717.151 166.768 716.647 166.579L750.838 88.3746C754.206 89.8543 757.544 91.5229 760.723 93.3489L718.127 167.303ZM704.62 166.579L670.178 88.5005C673.547 87.0208 677.041 85.6985 680.567 84.5966L706.132 165.981C705.596 166.169 705.093 166.358 704.62 166.579ZM715.891 166.232C715.388 166.043 714.852 165.886 714.349 165.76L735.096 82.9909C738.685 83.8725 742.243 85.0059 745.706 86.2652L715.891 166.232ZM706.887 165.792L685.888 83.0854C689.445 82.1724 693.098 81.4483 696.75 80.9445L708.493 165.445C707.958 165.54 707.422 165.634 706.887 165.792ZM713.562 165.603C713.026 165.508 712.46 165.414 711.924 165.382L718.725 80.3149C722.377 80.5982 726.06 81.102 729.681 81.7946L713.562 165.603ZM709.343 165.382L702.228 80.3464C705.848 80.0315 709.563 79.9371 713.215 80.0315L711.043 165.319C710.476 165.319 709.91 165.319 709.343 165.382Z" fill="#0099FF"/>
<path d="M105.337 481.788C104.455 481.788 103.542 481.788 102.661 481.756L104.927 396.469C105.494 396.469 106.092 396.469 106.659 396.406L113.648 481.442C110.909 481.693 108.107 481.788 105.337 481.788ZM97.1826 481.473C93.5306 481.19 89.8471 480.686 86.2265 479.962L102.44 396.185C102.976 396.28 103.542 396.374 104.077 396.406L97.1826 481.473ZM119.126 480.843L107.478 396.311C108.013 396.248 108.548 396.122 109.083 395.996L130.02 478.703C126.43 479.647 122.778 480.34 119.126 480.843ZM80.8114 478.765C77.2223 477.852 73.6647 476.751 70.2331 475.46L100.111 395.524C100.614 395.713 101.15 395.87 101.653 395.996L80.8114 478.765ZM135.34 477.223L109.87 395.807C110.374 395.65 110.878 395.461 111.382 395.241L145.73 473.319C142.361 474.83 138.866 476.121 135.34 477.223ZM65.0698 473.382C61.7011 471.902 58.3639 470.234 55.1841 468.376L97.8753 394.485C98.3475 394.768 98.8513 395.02 99.355 395.241L65.0698 473.382ZM150.735 470.958L112.137 394.863C112.609 394.611 113.113 394.328 113.554 394.044L160.306 465.417C157.221 467.432 154.01 469.321 150.735 470.958ZM50.4931 465.48C47.4078 463.465 44.4169 461.261 41.5834 458.931L95.8289 393.068C96.2696 393.415 96.7104 393.761 97.1826 394.044L50.4931 465.48ZM164.84 462.268L114.215 393.572C114.656 393.257 115.097 392.879 115.506 392.502L173.309 455.248C170.633 457.735 167.768 460.096 164.84 462.268ZM37.4276 455.311C34.7201 452.823 32.1385 450.179 29.7458 447.408L94.0343 391.305C94.4121 391.715 94.7899 392.124 95.1992 392.502L37.4276 455.311ZM177.276 451.407L116.135 391.935C116.513 391.526 116.891 391.116 117.237 390.676L184.548 443.127C182.282 445.992 179.857 448.793 177.276 451.407ZM26.2196 443.158C23.9529 440.262 21.8435 437.208 19.923 434.091L92.5231 389.29C92.8065 389.763 93.1213 390.235 93.4676 390.644L26.2196 443.158ZM187.791 438.656L117.741 389.983C118.056 389.542 118.339 389.07 118.591 388.566L193.584 429.242C191.852 432.454 189.9 435.634 187.791 438.656ZM17.1525 429.337C15.3894 426.094 13.8153 422.725 12.3985 419.325L91.4212 387.118C91.6101 387.622 91.862 388.126 92.1139 388.598L17.1525 429.337ZM196.103 424.3L118.969 387.842C119.189 387.37 119.41 386.835 119.567 386.331L200.258 414.005C199.094 417.499 197.677 420.962 196.103 424.3ZM10.4466 414.131C9.25022 410.636 8.24276 407.047 7.4242 403.458L90.6656 384.788C90.7916 385.323 90.9175 385.827 91.1064 386.362L10.4466 414.131ZM201.927 408.715L119.819 385.544C119.976 385.04 120.071 384.505 120.165 383.97L204.351 397.917C203.753 401.537 202.935 405.189 201.927 408.715ZM6.35378 398.011C5.7556 394.391 5.34631 390.707 5.12593 387.024L90.3193 382.301C90.3508 382.868 90.4138 383.403 90.5082 383.97L6.35378 398.011ZM205.107 392.439L120.291 383.151C120.354 382.616 120.386 382.049 120.386 381.514C120.386 381.451 120.386 381.388 120.386 381.325H163.045H205.705V381.136V381.451C205.705 385.103 205.516 388.818 205.107 392.439ZM5 381.766V381.451C5 377.831 5.1889 374.178 5.59818 370.589L90.4138 379.782C90.3508 380.349 90.3193 380.916 90.3193 381.483V381.546H47.6597L5 381.514V381.766ZM120.354 380.538C120.323 379.971 120.26 379.405 120.165 378.869L204.32 364.734C204.918 368.354 205.327 372.038 205.548 375.69L120.354 380.538ZM90.5082 378.932L6.32229 365.08C6.92047 361.459 7.73903 357.807 8.71501 354.25L90.8545 377.327C90.7286 377.862 90.6027 378.397 90.5082 378.932ZM120.008 378.082C119.882 377.547 119.756 377.043 119.567 376.54L200.195 348.677C201.392 352.172 202.431 355.761 203.218 359.35L120.008 378.082ZM91.1064 376.571L10.3836 348.992C11.58 345.497 12.9652 342.034 14.5394 338.697L91.7046 375.06C91.4842 375.564 91.2953 376.067 91.1064 376.571ZM119.284 375.784C119.063 375.28 118.843 374.777 118.591 374.304L193.521 333.471C195.284 336.714 196.89 340.082 198.275 343.482L119.284 375.784ZM92.0824 374.336L17.058 333.754C18.7896 330.511 20.7416 327.363 22.8509 324.341L92.9954 372.919C92.6491 373.391 92.3657 373.864 92.0824 374.336ZM118.182 373.58C117.899 373.108 117.584 372.667 117.237 372.227L184.422 319.65C186.689 322.546 188.799 325.6 190.751 328.717L118.182 373.58ZM93.4676 372.258L26.0937 319.87C28.329 316.974 30.7847 314.172 33.3348 311.558L94.5695 370.967C94.1603 371.376 93.8139 371.817 93.4676 372.258ZM116.671 371.565C116.293 371.156 115.915 370.747 115.506 370.369L173.183 307.497C175.891 309.984 178.472 312.629 180.896 315.399L116.671 371.565ZM95.1677 370.4L37.3017 307.718C40.0093 305.23 42.8427 302.869 45.8022 300.697L96.4585 369.33C96.0178 369.645 95.577 370.023 95.1677 370.4ZM114.876 369.802C114.435 369.456 113.995 369.11 113.522 368.826L160.149 297.36C163.234 299.375 166.225 301.547 169.059 303.877L114.876 369.802ZM97.1512 368.858L50.3042 297.517C53.3896 295.502 56.6009 293.645 59.8751 291.976L98.5679 368.008C98.0957 368.26 97.5919 368.543 97.1512 368.858ZM112.798 368.386C112.326 368.102 111.822 367.85 111.35 367.661L145.541 289.489C148.909 290.969 152.247 292.637 155.426 294.495L112.798 368.386ZM99.292 367.661L64.8495 289.583C68.2182 288.104 71.7128 286.781 75.2389 285.679L100.803 367.063C100.299 367.252 99.7957 367.441 99.292 367.661ZM110.594 367.347C110.091 367.158 109.556 367 109.052 366.874L129.799 284.105C133.388 284.987 136.946 286.12 140.409 287.379L110.594 367.347ZM101.59 366.874L80.5595 284.168C84.1171 283.255 87.7692 282.531 91.4212 282.027L103.164 366.528C102.661 366.623 102.125 366.748 101.59 366.874ZM108.265 366.685C107.729 366.591 107.163 366.497 106.628 366.465L113.428 281.429C117.08 281.712 120.764 282.216 124.384 282.909L108.265 366.685ZM104.046 366.465L96.9308 281.461C100.551 281.146 104.266 281.051 107.918 281.146L105.746 366.434C105.179 366.402 104.613 366.434 104.046 366.465Z" fill="#00B979"/>
<path d="M508.884 481.788C508.002 481.788 507.089 481.788 506.208 481.757L508.475 396.469C509.041 396.469 509.639 396.469 510.206 396.406L517.195 481.442C514.425 481.694 511.654 481.788 508.884 481.788ZM500.698 481.473C497.046 481.19 493.363 480.686 489.742 479.962L505.956 396.185C506.491 396.28 507.058 396.374 507.593 396.406L500.698 481.473ZM522.674 480.844L511.025 396.311C511.56 396.248 512.095 396.122 512.63 395.997L533.567 478.703C529.978 479.647 526.326 480.34 522.674 480.844ZM484.327 478.766C480.738 477.853 477.18 476.751 473.749 475.46L503.626 395.556C504.13 395.745 504.665 395.902 505.169 396.028L484.327 478.766ZM538.887 477.223L513.417 395.808C513.921 395.65 514.425 395.461 514.929 395.241L549.277 473.351C545.877 474.83 542.382 476.121 538.887 477.223ZM468.585 473.382C465.217 471.902 461.88 470.234 458.7 468.376L501.391 394.485C501.863 394.769 502.367 395.021 502.839 395.241L468.585 473.382ZM554.251 470.958L515.653 394.895C516.125 394.643 516.629 394.359 517.07 394.076L563.822 465.448C560.737 467.432 557.525 469.321 554.251 470.958ZM454.009 465.48C450.923 463.465 447.933 461.261 445.099 458.931L499.344 393.069C499.785 393.415 500.226 393.761 500.698 394.045L454.009 465.48ZM568.356 462.269L517.762 393.572C518.203 393.257 518.644 392.88 519.053 392.502L576.856 455.248C574.18 457.735 571.315 460.096 568.356 462.269ZM440.943 455.311C438.236 452.824 435.654 450.179 433.261 447.408L497.55 391.306C497.928 391.715 498.306 392.124 498.715 392.502L440.943 455.311ZM580.823 451.407L519.651 391.935C520.029 391.526 520.407 391.117 520.753 390.676L588.064 443.127C585.797 445.992 583.373 448.794 580.823 451.407ZM429.735 443.158C427.468 440.262 425.359 437.208 423.439 434.091L496.039 389.291C496.322 389.763 496.637 390.204 496.983 390.644L429.735 443.158ZM591.338 438.656L521.257 389.983C521.572 389.542 521.855 389.07 522.107 388.566L597.1 429.243C595.368 432.454 593.416 435.634 591.338 438.656ZM420.668 429.306C418.905 426.063 417.331 422.726 415.946 419.294L494.937 387.087C495.157 387.591 495.378 388.094 495.63 388.566L420.668 429.306ZM599.65 424.3L522.516 387.842C522.737 387.37 522.957 386.835 523.114 386.331L603.806 414.005C602.609 417.5 601.224 420.963 599.65 424.3ZM413.994 414.131C412.797 410.636 411.79 407.047 410.971 403.458L494.213 384.789C494.339 385.324 494.465 385.827 494.654 386.331L413.994 414.131ZM605.474 408.716L523.366 385.544C523.524 385.04 523.618 384.505 523.712 383.97L607.898 397.917C607.269 401.538 606.45 405.19 605.474 408.716ZM409.901 398.011C409.303 394.391 408.893 390.707 408.673 387.055L493.866 382.333C493.898 382.9 493.961 383.466 494.055 384.001L409.901 398.011ZM608.623 392.439L523.807 383.151C523.87 382.616 523.901 382.049 523.901 381.514C523.901 381.451 523.901 381.388 523.901 381.325H566.561H609.221V381.136V381.451C609.221 385.103 609.032 388.818 608.623 392.439ZM493.835 381.514H408.516V381.451C408.516 377.831 408.705 374.179 409.114 370.59L493.929 379.783C493.866 380.349 493.835 380.916 493.835 381.483V381.514ZM523.87 380.538C523.838 379.972 523.775 379.405 523.681 378.87L607.835 364.734C608.434 368.354 608.843 372.038 609.063 375.69L523.87 380.538ZM494.055 378.933L409.869 365.08C410.468 361.46 411.286 357.807 412.262 354.25L494.402 377.327C494.244 377.862 494.15 378.397 494.055 378.933ZM523.555 378.083C523.429 377.547 523.303 377.044 523.114 376.54L603.743 348.677C604.939 352.172 605.978 355.761 606.765 359.35L523.555 378.083ZM494.654 376.571L413.931 348.961C415.127 345.466 416.512 342.034 418.087 338.697L495.283 375.06C495.031 375.564 494.811 376.068 494.654 376.571ZM522.799 375.784C522.579 375.281 522.359 374.777 522.107 374.305L597.037 333.471C598.8 336.714 600.405 340.082 601.791 343.483L522.799 375.784ZM495.63 374.336L420.574 333.754C422.305 330.512 424.257 327.363 426.367 324.341L496.511 372.919C496.165 373.392 495.881 373.864 495.63 374.336ZM521.698 373.581C521.414 373.108 521.099 372.668 520.753 372.227L587.938 319.65C590.205 322.546 592.314 325.6 594.266 328.717L521.698 373.581ZM496.983 372.258L429.609 319.902C431.845 317.005 434.3 314.203 436.85 311.59L498.085 370.999C497.707 371.377 497.33 371.817 496.983 372.258ZM520.218 371.566C519.84 371.156 519.462 370.747 519.053 370.369L576.73 307.497C579.438 309.985 582.019 312.629 584.443 315.4L520.218 371.566ZM498.683 370.401L440.817 307.718C443.525 305.231 446.358 302.869 449.318 300.697L499.974 369.33C499.533 369.645 499.093 370.023 498.683 370.401ZM518.392 369.803C517.951 369.456 517.51 369.11 517.038 368.827L563.665 297.36C566.75 299.375 569.741 301.547 572.574 303.877L518.392 369.803ZM500.667 368.858L453.851 297.549C456.937 295.534 460.148 293.676 463.422 292.008L502.115 368.04C501.611 368.26 501.139 368.543 500.667 368.858ZM516.345 368.386C515.873 368.102 515.369 367.851 514.897 367.662L549.088 289.489C552.457 290.969 555.794 292.637 558.974 294.495L516.345 368.386ZM502.839 367.662L468.397 289.584C471.765 288.104 475.26 286.781 478.786 285.68L504.35 367.064C503.847 367.252 503.343 367.441 502.839 367.662ZM514.11 367.347C513.606 367.158 513.071 367.001 512.567 366.875L533.315 284.105C536.904 284.987 540.462 286.12 543.925 287.38L514.11 367.347ZM505.137 366.875L484.107 284.168C487.664 283.255 491.316 282.531 494.968 282.028L506.712 366.528C506.208 366.623 505.641 366.749 505.137 366.875ZM511.78 366.686C511.245 366.591 510.678 366.497 510.143 366.465L516.944 281.429C520.596 281.713 524.279 282.216 527.9 282.909L511.78 366.686ZM507.562 366.465L500.478 281.429C504.098 281.115 507.813 281.02 511.466 281.115L509.293 366.402C508.727 366.402 508.128 366.434 507.562 366.465Z" fill="#FF7C2E"/>
<path d="M710.697 481.788H710.665C709.972 481.788 709.248 481.788 708.556 481.756L710.319 396.469C710.445 396.469 710.539 396.469 710.665 396.469H710.697V481.788ZM721.59 481.221L712.365 396.406C712.491 396.406 712.586 396.374 712.68 396.374L723.762 480.969C723.038 481.032 722.314 481.127 721.59 481.221ZM697.663 480.969C696.939 480.875 696.214 480.78 695.49 480.654L708.335 396.311C708.43 396.343 708.556 396.343 708.65 396.343L697.663 480.969ZM734.529 478.923L714.254 396.059C714.349 396.028 714.475 395.996 714.569 395.965L736.639 478.388C735.946 478.577 735.222 478.765 734.529 478.923ZM684.755 478.419C684.062 478.23 683.338 478.041 682.645 477.821L706.415 395.87C706.509 395.902 706.635 395.933 706.73 395.965L684.755 478.419ZM747.06 474.956L716.08 395.461C716.175 395.43 716.269 395.398 716.364 395.335L749.075 474.137C748.445 474.421 747.752 474.704 747.06 474.956ZM672.287 474.2C671.626 473.917 670.933 473.634 670.272 473.35L704.589 395.241C704.683 395.272 704.809 395.335 704.904 395.367L672.287 474.2ZM758.96 469.415L717.843 394.642C717.938 394.58 718.032 394.548 718.127 394.485L760.881 468.313C760.251 468.691 759.621 469.069 758.96 469.415ZM660.481 468.376C659.851 467.998 659.222 467.62 658.592 467.243L702.889 394.328C702.983 394.391 703.078 394.422 703.172 394.485L660.481 468.376ZM770.011 462.363L719.512 393.572C719.606 393.509 719.669 393.446 719.764 393.383L771.774 461.04C771.207 461.481 770.609 461.922 770.011 462.363ZM649.588 461.072C649.021 460.631 648.454 460.19 647.888 459.75L701.283 393.194C701.378 393.257 701.472 393.352 701.567 393.415L649.588 461.072ZM780.054 453.925L721.023 392.313C721.118 392.25 721.181 392.155 721.243 392.092L781.597 452.414C781.093 452.918 780.589 453.421 780.054 453.925ZM639.734 452.446C639.23 451.942 638.726 451.407 638.222 450.903L699.772 391.809C699.866 391.903 699.929 391.966 700.024 392.061L639.734 452.446ZM788.901 444.291L722.408 390.833C722.471 390.739 722.534 390.676 722.597 390.581L790.255 442.56C789.814 443.127 789.373 443.693 788.901 444.291ZM631.107 442.623C630.666 442.056 630.257 441.489 629.816 440.891L698.513 390.266C698.576 390.361 698.67 390.455 698.733 390.55L631.107 442.623ZM796.425 433.556L723.542 389.196C723.605 389.101 723.668 389.007 723.699 388.913L797.527 431.667C797.181 432.296 796.803 432.926 796.425 433.556ZM623.803 431.73C623.457 431.1 623.079 430.47 622.733 429.841L697.442 388.629C697.505 388.724 697.568 388.85 697.631 388.944L623.803 431.73ZM802.502 421.875L724.423 387.464C724.455 387.37 724.518 387.275 724.549 387.181L803.383 419.829C803.1 420.522 802.816 421.214 802.502 421.875ZM617.979 419.955C617.695 419.294 617.444 418.633 617.16 417.94L696.624 386.898C696.655 386.992 696.718 387.118 696.75 387.212L617.979 419.955ZM807.004 409.503L725.084 385.701C725.116 385.575 725.147 385.481 725.179 385.355L807.602 407.393C807.413 408.086 807.224 408.778 807.004 409.503ZM613.729 407.488C613.54 406.795 613.351 406.102 613.193 405.378L696.057 385.04C696.088 385.166 696.12 385.261 696.151 385.386L613.729 407.488ZM809.837 396.657L725.494 383.812C725.525 383.686 725.525 383.592 725.557 383.466L810.152 394.517C810.057 395.209 809.963 395.933 809.837 396.657ZM611.147 394.611C611.052 393.887 610.958 393.163 610.895 392.439L695.711 383.151C695.711 383.246 695.742 383.372 695.742 383.466L611.147 394.611ZM810.97 383.623L725.683 381.797C725.683 381.671 725.683 381.577 725.683 381.451V381.294H811.002V381.168V381.451C811.002 382.175 811.002 382.899 810.97 383.623ZM695.616 381.986C695.616 381.829 695.616 381.671 695.616 381.514H610.297C610.297 381.451 610.297 381.388 610.297 381.325C610.297 380.664 610.297 380.034 610.328 379.405L695.616 381.136C695.616 381.231 695.616 381.357 695.616 381.451V381.986ZM725.588 379.751C725.588 379.625 725.557 379.531 725.557 379.405L810.12 368.197C810.215 368.921 810.309 369.613 810.372 370.337L725.588 379.751ZM695.742 379.436L611.115 368.511C611.21 367.787 611.304 367.063 611.43 366.339L695.774 379.121C695.774 379.247 695.742 379.342 695.742 379.436ZM725.242 377.799C725.21 377.705 725.179 377.579 725.147 377.484L807.507 355.257C807.696 355.95 807.885 356.674 808.042 357.366L725.242 377.799ZM696.12 377.547L613.666 355.635C613.854 354.942 614.043 354.218 614.264 353.525L696.214 377.264C696.183 377.358 696.151 377.453 696.12 377.547ZM724.675 375.973C724.644 375.879 724.612 375.784 724.549 375.69L803.289 342.821C803.572 343.482 803.855 344.175 804.107 344.868L724.675 375.973ZM696.718 375.721L617.853 343.136C618.136 342.443 618.42 341.782 618.703 341.09L696.813 375.406C696.813 375.532 696.781 375.627 696.718 375.721ZM723.857 374.241C723.794 374.147 723.762 374.053 723.699 373.958L797.433 331.047C797.779 331.676 798.157 332.306 798.503 332.936L723.857 374.241ZM697.6 373.958L623.677 331.33C624.055 330.7 624.433 330.039 624.811 329.409L697.757 373.675C697.694 373.801 697.631 373.895 697.6 373.958ZM722.786 372.573C722.723 372.478 722.629 372.384 722.566 372.289L790.129 320.185C790.569 320.752 791.01 321.318 791.419 321.916L722.786 372.573ZM698.702 372.352L630.981 320.437C631.422 319.87 631.894 319.272 632.335 318.705L698.89 372.069C698.827 372.164 698.764 372.258 698.702 372.352ZM721.495 371.062C721.401 370.967 721.338 370.873 721.243 370.81L781.471 310.394C781.974 310.897 782.478 311.401 782.982 311.936L721.495 371.062ZM700.024 370.841L639.608 310.582C640.111 310.079 640.647 309.544 641.15 309.04L700.244 370.589C700.181 370.684 700.087 370.747 700.024 370.841ZM720.016 369.708C719.921 369.645 719.827 369.55 719.732 369.487L771.617 301.736C772.183 302.176 772.75 302.617 773.317 303.089L720.016 369.708ZM701.504 369.519L649.43 301.925C649.997 301.484 650.595 301.043 651.193 300.602L701.755 369.33C701.661 369.393 701.598 369.456 701.504 369.519ZM718.41 368.543C718.316 368.48 718.221 368.417 718.127 368.386L760.723 294.463C761.353 294.841 761.983 295.187 762.612 295.565L718.41 368.543ZM703.141 368.417L660.324 294.621C660.953 294.274 661.583 293.896 662.213 293.55L703.456 368.26C703.33 368.291 703.235 368.354 703.141 368.417ZM716.678 367.661C716.584 367.63 716.49 367.567 716.395 367.535L748.917 288.67C749.578 288.954 750.271 289.237 750.932 289.52L716.678 367.661ZM704.904 367.535L672.067 288.796C672.759 288.513 673.421 288.229 674.113 287.978L705.156 367.441C705.093 367.473 704.998 367.504 704.904 367.535ZM714.852 367C714.758 366.969 714.632 366.937 714.538 366.906L736.418 284.451C737.111 284.64 737.835 284.829 738.528 285.05L714.852 367ZM706.698 366.937L684.534 284.546C685.227 284.357 685.951 284.168 686.644 284.011L707.013 366.874C706.919 366.874 706.793 366.906 706.698 366.937ZM712.963 366.591C712.869 366.56 712.743 366.56 712.649 366.56L723.51 281.933C724.234 282.027 724.959 282.122 725.683 282.248L712.963 366.591ZM708.619 366.56L697.442 281.964C698.166 281.87 698.89 281.775 699.615 281.712L708.934 366.528C708.808 366.528 708.713 366.528 708.619 366.56ZM710.949 366.434C710.854 366.434 710.728 366.434 710.634 366.434L710.445 281.114H710.634C711.295 281.114 711.956 281.114 712.617 281.146L710.949 366.434Z" fill="#FFB900"/>
<path d="M105.4 280.705L105.368 195.386C105.652 195.386 105.935 195.386 106.218 195.354L110.815 280.548C109.02 280.642 107.194 280.705 105.4 280.705ZM100.016 280.548C98.2216 280.453 96.3956 280.296 94.601 280.107L103.668 195.26C103.952 195.291 104.203 195.323 104.487 195.323L100.016 280.548ZM116.198 280.107L107.037 195.291C107.32 195.26 107.572 195.228 107.855 195.197L121.614 279.414C119.819 279.666 117.993 279.918 116.198 280.107ZM89.2174 279.414C87.4229 279.131 85.6283 278.785 83.8653 278.407L102.063 195.039C102.314 195.102 102.598 195.134 102.85 195.197L89.2174 279.414ZM126.934 278.375L108.643 195.039C108.894 194.976 109.146 194.913 109.43 194.851L132.255 277.053C130.492 277.525 128.697 277.966 126.934 278.375ZM78.5761 277.084C76.8445 276.612 75.0815 276.077 73.3499 275.479L100.551 194.599C100.803 194.693 101.055 194.756 101.307 194.819L78.5761 277.084ZM137.418 275.447L110.154 194.599C110.406 194.504 110.657 194.41 110.909 194.315L142.55 273.558C140.881 274.251 139.15 274.881 137.418 275.447ZM68.2496 273.621C66.581 272.96 64.8809 272.236 63.2438 271.48L99.0716 194.063C99.3235 194.189 99.5754 194.284 99.7957 194.378L68.2496 273.621ZM147.556 271.418L111.665 194.032C111.917 193.906 112.137 193.812 112.389 193.686L152.436 269.025C150.83 269.843 149.193 270.662 147.556 271.418ZM58.3639 269.025C56.7583 268.175 55.1841 267.262 53.6415 266.349L97.6549 193.276C97.8753 193.402 98.1271 193.56 98.3475 193.686L58.3639 269.025ZM157.127 266.317L113.082 193.245C113.302 193.119 113.554 192.962 113.774 192.804L161.723 263.389C160.212 264.397 158.669 265.404 157.127 266.317ZM49.0449 263.421C47.5652 262.413 46.0855 261.343 44.6373 260.241L96.3011 192.332C96.5215 192.489 96.7419 192.647 96.9623 192.804L49.0449 263.421ZM166.099 260.241L114.435 192.332C114.656 192.174 114.876 191.986 115.065 191.828L170.318 256.841C168.964 258.006 167.547 259.139 166.099 260.241ZM40.3871 256.841C39.0018 255.676 37.648 254.448 36.3572 253.22L95.0103 191.261C95.1992 191.45 95.4196 191.639 95.6085 191.797L40.3871 256.841ZM174.348 253.22L115.695 191.261C115.884 191.073 116.073 190.884 116.261 190.695L178.189 249.379C176.961 250.67 175.67 251.992 174.348 253.22ZM32.5163 249.411C31.2884 248.088 30.0606 246.735 28.8957 245.381L93.8769 190.097C94.0658 190.317 94.2232 190.506 94.4121 190.695L32.5163 249.411ZM181.809 245.349L116.828 190.065C117.017 189.845 117.174 189.624 117.332 189.435L185.21 241.131C184.139 242.547 182.974 243.964 181.809 245.349ZM25.4955 241.131C24.3936 239.714 23.3547 238.234 22.3157 236.723L92.8695 188.743C93.0269 188.963 93.1843 189.184 93.3417 189.404L25.4955 241.131ZM188.389 236.723L117.804 188.774C117.962 188.554 118.119 188.302 118.245 188.082L191.317 232.158C190.404 233.669 189.397 235.212 188.389 236.723ZM19.4193 232.19C18.4748 230.647 17.5933 229.041 16.7432 227.467L92.0509 187.389C92.1768 187.609 92.3028 187.861 92.4602 188.082L19.4193 232.19ZM193.993 227.404L118.654 187.358C118.78 187.137 118.906 186.885 119 186.633L196.418 222.524C195.662 224.161 194.843 225.798 193.993 227.404ZM14.319 222.587C13.5634 220.95 12.8393 219.281 12.1782 217.613L91.3897 185.941C91.4842 186.193 91.6101 186.445 91.7046 186.665L14.319 222.587ZM198.59 217.518L119.347 185.909C119.441 185.657 119.536 185.406 119.63 185.154L200.479 212.387C199.881 214.087 199.251 215.818 198.59 217.518ZM10.2577 212.481C9.69099 210.781 9.12429 209.018 8.65204 207.255L90.8545 184.398C90.9175 184.65 91.0119 184.902 91.0749 185.154L10.2577 212.481ZM202.053 207.16L119.819 184.398C119.882 184.146 119.945 183.894 120.008 183.643L203.344 201.903C202.997 203.634 202.557 205.429 202.053 207.16ZM7.36124 201.997C6.98344 200.234 6.63712 198.44 6.32229 196.645L90.5082 182.855C90.5397 183.107 90.6027 183.391 90.6656 183.643L7.36124 201.997ZM204.414 196.519L120.197 182.824C120.228 182.541 120.291 182.289 120.291 182.005L205.107 191.135C204.918 192.93 204.698 194.756 204.414 196.519ZM5.59818 191.261C5.40928 189.467 5.25187 187.672 5.15742 185.878L90.3508 181.25C90.3508 181.533 90.3823 181.816 90.4138 182.068L5.59818 191.261ZM205.548 185.752L120.354 181.218C120.354 180.966 120.386 180.683 120.386 180.431C120.386 180.368 120.386 180.305 120.386 180.242H163.045H205.705V180.022V180.337C205.705 182.131 205.642 183.957 205.548 185.752ZM90.3193 180.4H5V180.337C5 178.574 5.03148 176.811 5.12593 175.048L90.3193 179.518C90.3193 179.802 90.2878 180.085 90.2878 180.337V180.4H90.3193ZM120.354 179.487C120.323 179.203 120.323 178.92 120.291 178.637L205.107 169.349C205.296 171.112 205.453 172.938 205.548 174.733L120.354 179.487ZM90.4138 178.7L5.5667 169.664C5.7556 167.869 6.00746 166.043 6.29081 164.28L90.5082 177.881C90.4767 178.164 90.4452 178.416 90.4138 178.7ZM120.165 177.818C120.134 177.566 120.071 177.314 120.008 177.063L203.344 158.613C203.722 160.376 204.068 162.202 204.383 163.966L120.165 177.818ZM90.6656 177.094L7.29827 158.928C7.67607 157.165 8.11683 155.371 8.62056 153.639L90.8545 176.338C90.7916 176.59 90.7286 176.842 90.6656 177.094ZM119.851 176.275C119.788 176.024 119.693 175.772 119.599 175.52L200.416 148.13C200.983 149.83 201.549 151.593 202.022 153.324L119.851 176.275ZM91.0749 175.551L10.1947 148.413C10.7614 146.681 11.3911 144.981 12.0837 143.281L91.3583 174.796C91.2638 175.048 91.1694 175.299 91.0749 175.551ZM119.315 174.764C119.221 174.512 119.126 174.261 119 174.04L196.355 138.023C197.11 139.661 197.834 141.329 198.527 143.029L119.315 174.764ZM91.6731 174.072L14.2246 138.275C14.9802 136.638 15.7987 135.001 16.6488 133.395L92.0194 173.348C91.8935 173.599 91.799 173.82 91.6731 174.072ZM118.654 173.316C118.528 173.064 118.402 172.844 118.245 172.592L191.254 128.421C192.199 129.964 193.08 131.538 193.93 133.144L118.654 173.316ZM92.4287 172.655L19.3248 128.673C20.2378 127.13 21.2453 125.588 22.2528 124.108L92.8695 171.994C92.712 172.183 92.5861 172.403 92.4287 172.655ZM117.804 171.931C117.647 171.71 117.489 171.49 117.332 171.27L185.147 119.48C186.248 120.897 187.319 122.408 188.326 123.888L117.804 171.931ZM93.3417 171.301L25.4326 119.669C26.5345 118.221 27.6679 116.804 28.8327 115.45L93.8769 170.64C93.688 170.86 93.5306 171.081 93.3417 171.301ZM116.797 170.608C116.608 170.388 116.419 170.199 116.23 169.979L178.094 111.231C179.322 112.522 180.55 113.876 181.715 115.261L116.797 170.608ZM94.4121 170.042L32.4218 111.389C33.6497 110.066 34.9405 108.776 36.2628 107.548L95.0103 169.412C94.8214 169.633 94.601 169.821 94.4121 170.042ZM115.663 169.412C115.474 169.223 115.254 169.034 115.034 168.845L170.224 103.801C171.577 104.966 172.963 106.162 174.253 107.422L115.663 169.412ZM95.64 168.877L40.2926 103.959C41.6779 102.794 43.0946 101.66 44.5113 100.558L96.2696 168.405C96.0492 168.531 95.8289 168.719 95.64 168.877ZM114.404 168.342C114.184 168.184 113.963 168.027 113.743 167.869L161.566 97.2213C163.045 98.2287 164.557 99.2992 165.973 100.401L114.404 168.342ZM96.9308 167.901L48.919 97.3787C50.3987 96.3712 51.9414 95.3953 53.484 94.4508L97.6234 167.46C97.403 167.586 97.1512 167.744 96.9308 167.901ZM113.05 167.429C112.83 167.303 112.578 167.145 112.358 167.051L152.247 91.6173C153.852 92.4673 155.458 93.3803 157.001 94.2933L113.05 167.429ZM98.316 167.051L58.2065 91.7432C59.8122 90.8932 61.4178 90.0746 63.0549 89.319L99.0402 166.673C98.7883 166.799 98.5679 166.925 98.316 167.051ZM111.602 166.673C111.35 166.547 111.13 166.453 110.878 166.358L142.361 87.0522C144.061 87.7134 145.73 88.4375 147.367 89.1931L111.602 166.673ZM99.7643 166.39L68.0607 87.1782C69.7293 86.517 71.4609 85.8559 73.1925 85.2892L100.551 166.106C100.268 166.169 100.016 166.264 99.7643 166.39ZM110.122 166.075C109.87 165.98 109.618 165.918 109.367 165.855L132.003 83.5891C133.735 84.0613 135.498 84.5965 137.229 85.1632L110.122 166.075ZM101.275 165.855L78.3872 83.6835C80.1188 83.2113 81.9133 82.739 83.6764 82.3612L102.063 165.666C101.811 165.729 101.527 165.792 101.275 165.855ZM108.611 165.666C108.359 165.603 108.076 165.571 107.824 165.508L121.362 81.2908C123.156 81.5742 124.951 81.9205 126.714 82.2983L108.611 165.666ZM102.85 165.508L88.997 81.3223C90.7601 81.0389 92.5861 80.7871 94.3806 80.5982L103.637 165.414C103.385 165.445 103.101 165.477 102.85 165.508ZM107.005 165.414C106.722 165.382 106.47 165.351 106.187 165.351L110.594 80.1574C112.389 80.2519 114.215 80.3778 116.01 80.5982L107.005 165.414ZM104.487 165.351L99.7957 80.1574C101.59 80.063 103.385 80 105.179 80L105.305 165.319C105.053 165.319 104.77 165.319 104.487 165.351Z" fill="#FF7C2E"/>
<path d="M307.142 481.788H307.11C306.04 481.788 304.969 481.756 303.899 481.725L306.606 396.437C306.764 396.437 306.953 396.437 307.11 396.437H307.142V481.788ZM323.481 480.466L309.629 396.28C309.786 396.248 309.944 396.217 310.101 396.185L326.693 479.867C325.622 480.088 324.552 480.277 323.481 480.466ZM287.654 479.899C286.583 479.678 285.513 479.458 284.442 479.206L303.679 396.091C303.836 396.122 303.993 396.154 304.151 396.185L287.654 479.899ZM342.529 475.365L312.431 395.524C312.588 395.461 312.746 395.398 312.872 395.335L345.583 474.137C344.575 474.578 343.536 474.987 342.529 475.365ZM268.764 474.2C267.756 473.791 266.717 473.35 265.741 472.878L300.94 395.178C301.097 395.241 301.223 395.304 301.38 395.367L268.764 474.2ZM360.159 466.644L315.012 394.233C315.138 394.139 315.296 394.044 315.422 393.95L362.898 464.85C362.017 465.48 361.072 466.078 360.159 466.644ZM251.385 464.913C250.472 464.315 249.559 463.685 248.677 463.055L298.389 393.729C298.515 393.824 298.673 393.918 298.799 394.013L251.385 464.913ZM375.743 454.681L317.374 392.439C317.5 392.313 317.626 392.218 317.752 392.092L378.073 452.414C377.318 453.17 376.531 453.925 375.743 454.681ZM236.21 452.446C235.423 451.658 234.667 450.871 233.912 450.084L296.154 391.746C296.249 391.872 296.374 391.966 296.5 392.092L236.21 452.446ZM388.683 439.947L319.389 390.203C319.483 390.077 319.578 389.951 319.672 389.794L390.572 437.239C389.942 438.152 389.313 439.034 388.683 439.947ZM223.743 437.302C223.145 436.389 222.546 435.476 221.98 434.563L294.328 389.353C294.423 389.511 294.517 389.637 294.611 389.763L223.743 437.302ZM398.537 422.883L320.837 387.653C320.9 387.496 320.963 387.338 321.026 387.181L399.828 419.86C399.419 420.868 398.978 421.875 398.537 422.883ZM214.424 419.955C214.015 418.947 213.605 417.909 213.227 416.901L293.037 386.74C293.1 386.898 293.163 387.055 293.226 387.181L214.424 419.955ZM404.865 404.213L321.75 384.914C321.781 384.757 321.813 384.599 321.844 384.442L405.558 401.002C405.338 402.041 405.117 403.143 404.865 404.213ZM208.694 401.097C208.474 400.026 208.285 398.956 208.096 397.854L292.282 383.97C292.313 384.127 292.345 384.285 292.376 384.442L208.694 401.097ZM407.415 384.694L322.128 381.986C322.128 381.797 322.128 381.64 322.128 381.451V381.325H364.787H407.447V381.136V381.42C407.478 382.521 407.447 383.623 407.415 384.694ZM206.773 382.049V381.451C206.773 380.412 206.805 379.342 206.836 378.303L290.078 380.884L292.093 380.853C292.093 380.884 292.093 380.916 292.093 380.947C292.093 381.105 292.093 381.231 292.093 381.388C292.093 381.42 292.093 381.483 292.093 381.514H206.773C206.773 381.703 206.773 381.86 206.773 382.049ZM321.939 378.901C321.907 378.743 321.876 378.618 321.844 378.46L405.495 361.711C405.715 362.782 405.904 363.883 406.093 364.985L321.939 378.901ZM292.376 378.492L208.662 362.026C208.883 360.956 209.103 359.885 209.355 358.815L292.502 377.988C292.439 378.177 292.408 378.334 292.376 378.492ZM321.183 376.13C321.12 375.973 321.057 375.816 320.994 375.69L399.734 342.853C400.143 343.86 400.552 344.899 400.961 345.907L321.183 376.13ZM293.195 375.721L214.361 343.136C214.77 342.129 215.211 341.121 215.652 340.114L293.384 375.28C293.321 375.406 293.258 375.564 293.195 375.721ZM319.892 373.517C319.798 373.36 319.703 373.234 319.609 373.108L390.415 325.537C391.013 326.45 391.611 327.363 392.178 328.276L319.892 373.517ZM294.58 373.139L223.617 325.757C224.215 324.844 224.845 323.931 225.506 323.05L294.863 372.762C294.769 372.856 294.674 373.014 294.58 373.139ZM318.066 371.156C317.94 371.03 317.846 370.904 317.72 370.778L377.947 310.362C378.703 311.118 379.49 311.905 380.214 312.692L318.066 371.156ZM296.469 370.841L236.084 310.582C236.84 309.827 237.627 309.04 238.414 308.316L296.847 370.463C296.721 370.589 296.595 370.715 296.469 370.841ZM315.831 369.173C315.705 369.078 315.579 368.984 315.422 368.889L362.772 297.895C363.685 298.493 364.598 299.123 365.48 299.752L315.831 369.173ZM298.767 368.921L251.228 298.084C252.141 297.486 253.054 296.887 253.967 296.321L299.208 368.669C299.051 368.763 298.925 368.858 298.767 368.921ZM313.281 367.724C313.123 367.661 312.998 367.598 312.84 367.535L345.394 288.67C346.401 289.079 347.409 289.52 348.416 289.993L313.281 367.724ZM301.349 367.535L268.543 288.796C269.551 288.387 270.558 287.978 271.597 287.6L301.79 367.378C301.664 367.41 301.506 367.473 301.349 367.535ZM310.542 366.811C310.384 366.78 310.227 366.748 310.07 366.717L326.472 283.003C327.543 283.224 328.645 283.444 329.684 283.696L310.542 366.811ZM304.119 366.717L287.433 283.035C288.504 282.814 289.574 282.625 290.676 282.437L304.623 366.622C304.434 366.654 304.277 366.685 304.119 366.717ZM307.614 366.434C307.457 366.434 307.299 366.434 307.11 366.434L306.921 281.114H307.11C308.149 281.114 309.157 281.114 310.196 281.146L307.614 366.434Z" fill="#0099FF"/>
</g>
</g>
<defs>
<clipPath id="clip0_9329_82958">
<rect width="816" height="562" fill="white"/>
</clipPath>
<clipPath id="clip1_9329_82958">
<rect width="806" height="401.788" fill="white" transform="translate(5 80)"/>
</clipPath>
</defs>
</svg>
