<svg width="816" height="562" viewBox="0 0 816 562" fill="none" xmlns="http://www.w3.org/2000/svg">
<g clip-path="url(#clip0_10973_14920)">
<g clip-path="url(#clip1_10973_14920)">
<path d="M307.55 280.671L306.116 194.293C306.53 194.293 306.913 194.261 307.295 194.229L315.232 280.256C312.714 280.511 310.132 280.639 307.55 280.671ZM296.586 280.288C294.036 280.065 291.454 279.715 288.936 279.3L303.279 194.134C303.662 194.197 304.044 194.261 304.427 194.293L296.586 280.288ZM326.165 278.663L308.953 194.006C309.335 193.942 309.686 193.847 310.068 193.751L333.687 276.846C331.232 277.547 328.683 278.153 326.165 278.663ZM278.163 276.846C275.677 276.145 273.222 275.348 270.8 274.455L300.634 193.401C300.984 193.528 301.367 193.656 301.717 193.751L278.163 276.846ZM344.173 273.212L311.598 193.209C311.949 193.082 312.299 192.922 312.65 192.731L351.217 270.025C348.922 271.172 346.532 272.256 344.173 273.212ZM260.6 270.089C258.305 268.941 256.01 267.698 253.811 266.391L298.084 192.221C298.402 192.412 298.753 192.604 299.104 192.763L260.6 270.089ZM360.811 264.575L314.053 191.934C314.371 191.711 314.69 191.488 315.009 191.265L367.122 260.144C365.082 261.706 362.947 263.172 360.811 264.575ZM244.663 260.208C242.623 258.678 240.615 257.021 238.703 255.331L295.821 190.532C296.108 190.787 296.426 191.042 296.745 191.265L244.663 260.208ZM375.537 253.036L316.284 190.181C316.571 189.926 316.857 189.639 317.112 189.353L380.924 247.554C379.234 249.435 377.418 251.283 375.537 253.036ZM230.862 247.618C229.141 245.737 227.452 243.729 225.89 241.721L293.876 188.46C294.131 188.779 294.355 189.066 294.641 189.353L230.862 247.618ZM387.904 239.012L318.196 188.046C318.419 187.727 318.642 187.408 318.834 187.09L392.239 232.605C390.9 234.805 389.434 236.94 387.904 239.012ZM219.547 232.701C218.208 230.533 216.901 228.27 215.722 225.975L292.346 186.101C292.538 186.452 292.729 186.771 292.92 187.09L219.547 232.701ZM397.53 222.916L319.599 185.655C319.758 185.305 319.917 184.954 320.045 184.603L400.59 215.808C399.697 218.198 398.645 220.589 397.53 222.916ZM211.164 215.903C210.24 213.513 209.379 211.027 208.646 208.572L291.327 183.52C291.422 183.87 291.55 184.221 291.709 184.571L211.164 215.903ZM404.064 205.258L320.587 183.042C320.682 182.691 320.778 182.308 320.842 181.926L405.785 197.672C405.275 200.253 404.701 202.771 404.064 205.258ZM206 197.831C205.522 195.313 205.14 192.731 204.885 190.181L290.753 180.81C290.785 181.193 290.848 181.575 290.912 181.958L206 197.831ZM407.188 186.771L321.065 180.3C321.097 179.918 321.097 179.504 321.097 179.089V178.962H407.475V179.089C407.475 181.671 407.379 184.253 407.188 186.771ZM290.657 179.185H204.279V179.121C204.279 176.603 204.375 174.053 204.566 171.567L290.689 177.91C290.657 178.292 290.657 178.707 290.657 179.089V179.185ZM321.001 177.368C320.969 176.986 320.905 176.603 320.842 176.221L405.721 160.252C406.2 162.77 406.582 165.352 406.869 167.902L321.001 177.368ZM290.912 176.284L205.969 160.602C206.447 158.084 207.02 155.534 207.658 153.048L291.167 175.169C291.04 175.519 290.976 175.902 290.912 176.284ZM320.427 174.659C320.332 174.308 320.204 173.926 320.045 173.575L400.526 142.179C401.45 144.57 402.311 147.024 403.076 149.51L320.427 174.659ZM291.645 173.639L211.068 142.53C211.993 140.139 213.013 137.749 214.128 135.422L292.091 172.619C291.932 172.938 291.773 173.288 291.645 173.639ZM319.375 172.109C319.184 171.758 318.993 171.439 318.802 171.121L392.111 125.414C393.482 127.581 394.757 129.844 395.936 132.139L319.375 172.109ZM292.888 171.153L219.419 125.701C220.758 123.533 222.224 121.366 223.722 119.294L293.526 170.165C293.303 170.483 293.08 170.802 292.888 171.153ZM317.845 169.718C317.59 169.4 317.367 169.113 317.081 168.826L380.796 110.497C382.517 112.377 384.207 114.354 385.8 116.394L317.845 169.718ZM294.61 168.89L230.703 110.752C232.424 108.871 234.241 107.023 236.089 105.238L295.406 168.029C295.151 168.316 294.865 168.571 294.61 168.89ZM315.901 167.647C315.614 167.392 315.296 167.137 315.009 166.913L366.995 97.9068C369.035 99.4367 371.043 101.094 372.987 102.783L315.901 167.647ZM296.713 166.945L244.504 98.1299C246.544 96.5681 248.679 95.1019 250.815 93.6994L297.638 166.276C297.319 166.499 297 166.722 296.713 166.945ZM313.606 165.989C313.288 165.798 312.937 165.607 312.586 165.447L350.994 88.0896C353.289 89.2371 355.584 90.4802 357.783 91.787L313.606 165.989ZM299.104 165.479L260.409 88.2171C262.704 87.0697 265.063 85.986 267.453 85.0298L300.124 165.001C299.773 165.128 299.422 165.288 299.104 165.479ZM311.12 164.81C310.77 164.682 310.419 164.555 310.036 164.459L333.464 81.3324C335.95 82.0336 338.436 82.8305 340.826 83.7229L311.12 164.81ZM301.654 164.459L277.94 81.3962C280.426 80.6949 282.944 80.0575 285.462 79.5475L302.769 164.204C302.387 164.268 302.004 164.364 301.654 164.459ZM308.443 164.109C308.06 164.045 307.678 163.981 307.295 163.949L315.009 77.9219C317.559 78.145 320.14 78.4956 322.658 78.91L308.443 164.109ZM304.395 163.949L296.363 77.9538C298.912 77.7307 301.494 77.5713 304.044 77.5394L305.574 163.917C305.192 163.885 304.777 163.917 304.395 163.949Z" fill="#FFB900"/>
<path d="M510.139 280.703C509.055 280.703 507.972 280.671 506.888 280.639L509.597 194.293C509.756 194.293 509.948 194.293 510.107 194.293H510.139V280.703ZM526.681 279.364L512.657 194.134C512.816 194.102 512.976 194.07 513.135 194.038L529.933 278.758C528.881 278.982 527.765 279.173 526.681 279.364ZM490.409 278.79C489.325 278.567 488.21 278.344 487.158 278.089L506.665 193.942C506.824 193.974 506.983 194.006 507.143 194.038L490.409 278.79ZM545.965 274.169L515.494 193.337C515.653 193.273 515.812 193.209 515.94 193.146L549.057 272.926C548.037 273.372 547.017 273.786 545.965 274.169ZM471.285 272.989C470.265 272.575 469.245 272.129 468.225 271.651L503.86 192.986C504.019 193.05 504.147 193.114 504.306 193.177L471.285 272.989ZM563.846 265.34L518.139 192.03C518.267 191.934 518.426 191.839 518.554 191.743L566.619 263.523C565.695 264.16 564.771 264.766 563.846 265.34ZM453.691 263.587C452.766 262.981 451.842 262.343 450.949 261.706L501.278 191.52C501.406 191.616 501.565 191.711 501.692 191.807L453.691 263.587ZM579.592 253.259L520.53 190.245C520.657 190.118 520.785 190.022 520.912 189.894L581.982 250.965C581.186 251.73 580.389 252.494 579.592 253.259ZM438.327 250.996C437.531 250.2 436.766 249.403 436.001 248.606L499.015 189.544C499.111 189.671 499.238 189.767 499.366 189.894L438.327 250.996ZM592.692 238.311L522.538 187.95C522.633 187.823 522.729 187.695 522.825 187.536L594.604 235.57C593.967 236.494 593.329 237.418 592.692 238.311ZM425.705 235.633C425.1 234.709 424.494 233.785 423.92 232.86L497.198 187.121C497.294 187.281 497.389 187.408 497.485 187.536L425.705 235.633ZM602.668 221.035L524.004 185.368C524.068 185.209 524.132 185.05 524.195 184.89L604.007 218.007C603.593 219.027 603.147 220.047 602.668 221.035ZM416.303 218.103C415.888 217.083 415.474 216.063 415.091 215.011L495.891 184.476C495.955 184.635 496.019 184.795 496.083 184.922L416.303 218.103ZM609.107 202.134L524.96 182.595C524.992 182.436 525.024 182.277 525.056 182.117L609.808 198.883C609.585 199.967 609.362 201.05 609.107 202.134ZM410.502 198.978C410.278 197.895 410.087 196.811 409.896 195.695L495.126 181.639C495.158 181.798 495.19 181.958 495.222 182.117L410.502 198.978ZM611.689 182.404L525.343 179.663C525.343 179.472 525.343 179.312 525.343 179.121V178.994H611.721V179.121C611.721 180.205 611.721 181.289 611.689 182.404ZM494.903 179.185H408.525V179.121C408.525 178.069 408.557 176.986 408.589 175.934L494.935 178.611C494.935 178.77 494.935 178.962 494.935 179.121V179.185H494.903ZM525.151 176.507C525.12 176.348 525.088 176.221 525.056 176.061L609.744 159.104C609.968 160.188 610.159 161.304 610.35 162.419L525.151 176.507ZM495.19 176.125L410.438 159.455C410.661 158.371 410.884 157.288 411.139 156.204L495.318 175.615C495.254 175.774 495.222 175.966 495.19 176.125ZM524.386 173.703C524.323 173.543 524.259 173.384 524.195 173.256L603.912 140.012C604.326 141.032 604.74 142.052 605.155 143.104L524.386 173.703ZM496.051 173.32L416.207 140.299C416.621 139.279 417.068 138.259 417.514 137.239L496.21 172.842C496.178 173.001 496.115 173.161 496.051 173.32ZM523.08 171.089C522.984 170.93 522.888 170.802 522.793 170.675L594.477 122.481C595.082 123.406 595.688 124.33 596.294 125.254L523.08 171.089ZM497.453 170.675L425.61 122.705C426.215 121.78 426.853 120.856 427.522 119.963L497.74 170.292C497.613 170.42 497.549 170.547 497.453 170.675ZM521.231 168.698C521.104 168.571 521.008 168.443 520.88 168.316L581.855 107.15C582.62 107.915 583.417 108.712 584.15 109.509L521.231 168.698ZM499.366 168.348L438.2 107.341C438.965 106.576 439.762 105.78 440.559 105.046L499.716 167.997C499.589 168.125 499.493 168.22 499.366 168.348ZM518.936 166.69C518.809 166.595 518.649 166.499 518.522 166.403L566.46 94.56C567.384 95.1656 568.309 95.8031 569.201 96.4406L518.936 166.69ZM501.692 166.435L453.563 94.7194C454.487 94.1138 455.412 93.5082 456.336 92.9345L502.107 166.18C501.979 166.244 501.82 166.34 501.692 166.435ZM516.386 165.192C516.227 165.129 516.067 165.065 515.94 165.001L548.866 85.1573C549.886 85.5716 550.905 86.0179 551.925 86.496L516.386 165.192ZM504.306 165.033L471.094 85.2848C472.114 84.8704 473.133 84.456 474.185 84.0736L504.752 164.874C504.593 164.905 504.465 164.969 504.306 165.033ZM513.613 164.268C513.454 164.236 513.294 164.204 513.135 164.172L529.741 79.3881C530.825 79.6112 531.941 79.8344 532.992 80.0893L513.613 164.268ZM507.079 164.172L490.186 79.4519C491.27 79.2288 492.353 79.0375 493.469 78.8463L507.589 164.077C507.43 164.109 507.238 164.14 507.079 164.172ZM510.617 163.885C510.458 163.885 510.298 163.885 510.107 163.885H510.043L509.98 77.5076H510.139C511.191 77.5076 512.243 77.5076 513.263 77.5394L510.617 163.885Z" fill="#00B979"/>
<path d="M714.386 280.703C713.494 280.703 712.57 280.703 711.677 280.671L713.972 194.325C714.546 194.325 715.151 194.325 715.725 194.261L722.801 280.352C720.028 280.575 717.191 280.703 714.386 280.703ZM706.131 280.352C702.434 280.065 698.704 279.555 695.039 278.822L711.454 194.006C711.996 194.102 712.57 194.197 713.111 194.229L706.131 280.352ZM728.347 279.746L716.554 194.165C717.096 194.102 717.637 193.974 718.179 193.847L739.375 277.579C735.742 278.503 732.044 279.236 728.347 279.746ZM689.557 277.643C685.923 276.718 682.321 275.603 678.847 274.296L709.095 193.4C709.605 193.592 710.115 193.751 710.657 193.879L689.557 277.643ZM744.762 276.081L718.976 193.655C719.486 193.496 719.996 193.305 720.506 193.082L755.28 272.161C751.87 273.627 748.332 274.965 744.762 276.081ZM673.62 272.161C670.209 270.662 666.831 268.973 663.611 267.093L706.832 192.285C707.31 192.572 707.82 192.827 708.298 193.05L673.62 272.161ZM760.348 269.738L721.271 192.699C721.749 192.444 722.259 192.157 722.705 191.871L770.038 264.128C766.914 266.168 763.663 268.049 760.348 269.738ZM658.862 264.16C655.739 262.12 652.711 259.889 649.842 257.53L704.761 190.851C705.207 191.201 705.653 191.552 706.131 191.839L658.862 264.16ZM774.628 260.941L723.407 191.392C723.853 191.042 724.299 190.691 724.713 190.309L783.234 253.833C780.493 256.351 777.592 258.742 774.628 260.941ZM645.635 253.897C642.894 251.379 640.28 248.701 637.857 245.897L702.944 189.098C703.326 189.512 703.709 189.926 704.123 190.309L645.635 253.897ZM787.218 249.945L725.319 189.703C725.702 189.289 726.084 188.874 726.435 188.428L794.581 241.53C792.286 244.43 789.832 247.267 787.218 249.945ZM634.288 241.594C631.993 238.661 629.857 235.569 627.913 232.414L701.414 187.058C701.701 187.536 702.019 187.982 702.37 188.428L634.288 241.594ZM797.864 237.036L726.913 187.759C727.231 187.313 727.518 186.834 727.773 186.325L803.697 227.505C801.975 230.757 799.999 233.976 797.864 237.036ZM625.108 227.569C623.323 224.286 621.729 220.908 620.327 217.433L700.298 184.826C700.521 185.336 700.744 185.846 700.999 186.325L625.108 227.569ZM806.278 222.469L728.188 185.56C728.411 185.081 728.634 184.54 728.793 184.03L810.486 212.047C809.306 215.617 807.872 219.123 806.278 222.469ZM618.319 212.174C617.108 208.636 616.088 205.003 615.259 201.369L699.533 182.468C699.661 183.01 699.788 183.52 699.979 184.03L618.319 212.174ZM812.175 206.724L729.048 183.265C729.208 182.755 729.303 182.213 729.399 181.671L814.629 195.791C814.024 199.457 813.195 203.122 812.175 206.724ZM614.175 195.887C613.57 192.221 613.155 188.492 612.932 184.795L699.183 180.014C699.214 180.587 699.278 181.161 699.374 181.703L614.175 195.887ZM815.394 190.213L729.526 180.81C729.59 180.237 729.622 179.663 729.622 179.089V178.962H816V179.089C816 182.818 815.809 186.548 815.394 190.213ZM699.183 179.153H612.805V179.089C612.805 175.424 612.996 171.726 613.41 168.093L699.278 177.4C699.214 177.974 699.183 178.547 699.183 179.121V179.153ZM729.59 178.197C729.558 177.623 729.494 177.049 729.399 176.507L814.597 162.196C815.203 165.862 815.617 169.591 815.841 173.288L729.59 178.197ZM699.374 176.571L614.143 162.547C614.749 158.881 615.578 155.184 616.566 151.582L699.724 174.946C699.597 175.487 699.469 176.029 699.374 176.571ZM729.239 175.711C729.112 175.169 728.985 174.659 728.793 174.149L810.422 145.94C811.633 149.478 812.685 153.112 813.482 156.746L729.239 175.711ZM699.979 174.181L618.255 146.227C619.466 142.689 620.869 139.215 622.462 135.836L700.617 172.651C700.362 173.129 700.171 173.639 699.979 174.181ZM728.506 173.352C728.283 172.842 728.06 172.332 727.805 171.854L803.665 130.545C805.45 133.828 807.075 137.239 808.478 140.681L728.506 173.352ZM700.967 171.918L624.98 130.832C626.734 127.549 628.71 124.362 630.845 121.302L701.86 170.483C701.541 170.929 701.254 171.408 700.967 171.918ZM727.391 171.153C727.104 170.674 726.785 170.196 726.435 169.782L794.453 116.553C796.748 119.485 798.884 122.577 800.86 125.733L727.391 171.153ZM702.37 169.782L634.192 116.776C636.455 113.844 638.941 111.007 641.523 108.361L703.517 168.507C703.071 168.921 702.721 169.336 702.37 169.782ZM725.861 169.113C725.478 168.698 725.096 168.284 724.682 167.901L783.074 104.25C785.815 106.768 788.429 109.445 790.883 112.25L725.861 169.113ZM704.091 167.901L645.475 104.441C648.216 101.923 651.085 99.5323 654.081 97.333L705.366 166.818C704.952 167.168 704.505 167.519 704.091 167.901ZM724.044 167.328C723.598 166.977 723.152 166.627 722.674 166.34L769.847 93.9863C772.97 96.0262 775.998 98.2255 778.867 100.584L724.044 167.328ZM706.099 166.34L658.671 94.1456C661.795 92.1057 665.046 90.2252 668.361 88.5358L707.534 165.511C707.055 165.766 706.545 166.053 706.099 166.34ZM721.972 165.893C721.494 165.607 720.984 165.352 720.474 165.16L755.089 85.9859C758.5 87.484 761.878 89.1733 765.097 91.022L721.972 165.893ZM708.298 165.16L673.429 86.1134C676.839 84.6154 680.377 83.2767 683.947 82.1611L709.828 164.555C709.287 164.746 708.777 164.937 708.298 165.16ZM719.709 164.81C719.199 164.618 718.657 164.459 718.147 164.332L739.152 80.5355C742.786 81.428 746.388 82.5755 749.894 83.8504L719.709 164.81ZM710.593 164.364L689.334 80.6312C692.935 79.7068 696.633 78.9737 700.33 78.4637L712.219 164.013C711.677 164.109 711.135 164.204 710.593 164.364ZM717.351 164.172C716.809 164.077 716.235 163.981 715.693 163.949L722.578 77.8263C726.275 78.1131 730.005 78.6231 733.67 79.3243L717.351 164.172ZM713.08 163.949L705.876 77.8581C709.542 77.5394 713.303 77.4438 717 77.5394L714.801 163.885C714.227 163.885 713.653 163.885 713.08 163.949Z" fill="#0099FF"/>
<path d="M101.582 484.28C100.689 484.28 99.7649 484.28 98.8724 484.248L101.167 397.902C101.741 397.902 102.347 397.902 102.92 397.839L109.996 483.93C107.223 484.185 104.387 484.28 101.582 484.28ZM93.3264 483.962C89.629 483.675 85.8998 483.165 82.2343 482.432L98.6493 397.616C99.1911 397.711 99.7649 397.807 100.307 397.839L93.3264 483.962ZM115.542 483.324L103.749 397.743C104.291 397.679 104.833 397.552 105.375 397.424L126.571 481.157C122.937 482.113 119.24 482.814 115.542 483.324ZM76.752 481.22C73.1184 480.296 69.5167 479.18 66.0424 477.874L96.2906 396.946C96.8006 397.137 97.3425 397.297 97.8524 397.424L76.752 481.22ZM131.957 479.659L106.171 397.233C106.681 397.074 107.191 396.882 107.701 396.659L142.476 475.706C139.065 477.236 135.527 478.543 131.957 479.659ZM60.8151 475.77C57.4046 474.272 54.026 472.583 50.8068 470.702L94.0276 395.894C94.5057 396.181 95.0157 396.436 95.5257 396.659L60.8151 475.77ZM147.544 473.316L108.466 396.277C108.944 396.022 109.454 395.735 109.901 395.448L157.233 467.706C154.11 469.746 150.858 471.658 147.544 473.316ZM46.0576 467.77C42.9339 465.73 39.9059 463.499 37.0373 461.14L91.9558 394.46C92.402 394.811 92.8483 395.161 93.3264 395.448L46.0576 467.77ZM161.823 464.519L110.57 394.97C111.016 394.651 111.463 394.269 111.877 393.886L170.397 457.411C167.688 459.929 164.787 462.319 161.823 464.519ZM32.83 457.474C30.0888 454.956 27.4752 452.279 25.0528 449.474L90.139 392.675C90.5215 393.09 90.904 393.504 91.3183 393.886L32.83 457.474ZM174.413 453.522L112.514 393.313C112.897 392.898 113.279 392.484 113.63 392.038L181.776 445.139C179.481 448.04 177.027 450.877 174.413 453.522ZM21.4829 445.171C19.188 442.239 17.0525 439.147 15.1082 435.992L88.609 390.635C88.8959 391.113 89.2146 391.591 89.5653 392.006L21.4829 445.171ZM185.059 440.613L114.14 391.336C114.459 390.89 114.746 390.412 115.001 389.902L190.924 431.083C189.171 434.334 187.195 437.553 185.059 440.613ZM12.3033 431.179C10.5183 427.896 8.92465 424.485 7.49033 421.043L87.4935 388.436C87.6847 388.946 87.9397 389.456 88.1947 389.934L12.3033 431.179ZM193.474 426.079L115.383 389.169C115.606 388.691 115.829 388.149 115.989 387.639L197.681 415.656C196.502 419.194 195.067 422.7 193.474 426.079ZM5.51416 415.784C4.30296 412.246 3.283 408.612 2.45428 404.978L86.7285 386.077C86.856 386.619 86.9835 387.129 87.1747 387.671L5.51416 415.784ZM199.37 410.301L116.244 386.842C116.403 386.332 116.499 385.79 116.594 385.249L201.825 399.369C201.219 403.034 200.39 406.731 199.37 410.301ZM1.37057 399.464C0.76497 395.799 0.350611 392.07 0.127495 388.34L86.3779 383.559C86.4098 384.133 86.4735 384.675 86.5691 385.249L1.37057 399.464ZM202.59 393.823L116.722 384.42C116.785 383.878 116.817 383.304 116.817 382.762C116.817 382.699 116.817 382.635 116.817 382.571H160.006H203.195V382.38V382.699C203.195 386.396 203.004 390.157 202.59 393.823ZM0 383.017V382.699C0 379.033 0.191243 375.336 0.605601 371.702L86.4735 381.009C86.4098 381.583 86.3779 382.157 86.3779 382.731V382.794H43.1889L0 382.762V383.017ZM116.785 381.774C116.754 381.201 116.69 380.627 116.594 380.085L201.793 365.774C202.398 369.439 202.813 373.168 203.036 376.866L116.785 381.774ZM86.5691 380.149L1.3387 366.124C1.9443 362.459 2.77302 358.761 3.7611 355.16L86.9197 378.523C86.7922 379.065 86.6647 379.607 86.5691 380.149ZM116.435 379.288C116.307 378.746 116.18 378.236 115.989 377.726L197.617 349.518C198.828 353.056 199.88 356.69 200.677 360.323L116.435 379.288ZM87.1747 377.758L5.45041 349.837C6.66162 346.299 8.06406 342.793 9.65775 339.414L87.7803 376.228C87.5572 376.738 87.366 377.248 87.1747 377.758ZM115.702 376.961C115.479 376.451 115.256 375.941 115.001 375.463L190.86 334.123C192.645 337.406 194.271 340.817 195.673 344.259L115.702 376.961ZM88.1628 375.495L12.2076 334.41C13.9607 331.127 15.9369 327.94 18.0724 324.88L89.0872 374.061C88.7365 374.539 88.4497 375.017 88.1628 375.495ZM114.586 374.73C114.299 374.252 113.981 373.806 113.63 373.36L181.649 320.13C183.943 323.063 186.079 326.155 188.055 329.31L114.586 374.73ZM89.5653 373.392L21.3554 320.354C23.6185 317.421 26.1046 314.584 28.6864 311.939L90.6808 372.085C90.2665 372.499 89.9159 372.945 89.5653 373.392ZM113.056 372.69C112.674 372.276 112.291 371.862 111.877 371.479L170.27 307.827C173.011 310.345 175.624 313.023 178.079 315.828L113.056 372.69ZM91.2864 371.511L32.7025 308.05C35.4436 305.532 38.3123 303.142 41.3084 300.942L92.5933 370.427C92.147 370.746 91.7008 371.129 91.2864 371.511ZM111.239 370.905C110.793 370.555 110.347 370.204 109.869 369.917L157.074 297.564C160.197 299.604 163.225 301.803 166.094 304.162L111.239 370.905ZM93.2945 369.949L45.8663 297.723C48.99 295.683 52.2411 293.803 55.556 292.113L94.7288 369.089C94.2507 369.344 93.7407 369.63 93.2945 369.949ZM109.136 369.471C108.658 369.184 108.148 368.929 107.67 368.738L142.284 289.595C145.695 291.094 149.074 292.783 152.293 294.663L109.136 369.471ZM95.4619 368.738L60.592 289.691C64.0025 288.193 67.5405 286.854 71.1104 285.739L96.9918 368.132C96.4819 368.324 95.9719 368.515 95.4619 368.738ZM106.905 368.419C106.395 368.228 105.853 368.069 105.343 367.941L126.348 284.145C129.981 285.037 133.583 286.185 137.089 287.46L106.905 368.419ZM97.7887 367.941L76.497 284.209C80.0987 283.284 83.7961 282.551 87.4935 282.041L99.3824 367.59C98.8724 367.686 98.3305 367.814 97.7887 367.941ZM104.546 367.75C104.004 367.654 103.43 367.559 102.888 367.527L109.773 281.436C113.471 281.723 117.2 282.233 120.865 282.934L104.546 367.75ZM100.275 367.527L93.0714 281.468C96.7369 281.149 100.498 281.053 104.195 281.149L101.996 367.495C101.422 367.463 100.849 367.495 100.275 367.527Z" fill="#00B979"/>
<path d="M510.139 484.28C509.246 484.28 508.322 484.28 507.43 484.248L509.725 397.902C510.298 397.902 510.904 397.902 511.478 397.839L518.554 483.93C515.749 484.185 512.944 484.28 510.139 484.28ZM501.852 483.962C498.154 483.675 494.425 483.165 490.76 482.432L507.175 397.616C507.717 397.711 508.29 397.807 508.832 397.839L501.852 483.962ZM524.1 483.324L512.306 397.743C512.848 397.679 513.39 397.552 513.932 397.424L535.128 481.157C531.494 482.113 527.797 482.814 524.1 483.324ZM485.277 481.22C481.644 480.296 478.042 479.181 474.568 477.874L504.816 396.978C505.326 397.169 505.868 397.329 506.378 397.456L485.277 481.22ZM540.515 479.659L514.729 397.233C515.239 397.074 515.749 396.883 516.259 396.659L551.033 475.738C547.591 477.236 544.053 478.543 540.515 479.659ZM469.341 475.77C465.93 474.272 462.551 472.583 459.332 470.702L502.553 395.894C503.031 396.181 503.541 396.436 504.019 396.659L469.341 475.77ZM556.069 473.316L516.992 396.309C517.47 396.054 517.98 395.767 518.426 395.48L565.759 467.738C562.635 469.746 559.384 471.658 556.069 473.316ZM454.583 467.77C451.459 465.73 448.431 463.499 445.563 461.14L500.481 394.46C500.927 394.811 501.374 395.161 501.852 395.448L454.583 467.77ZM570.348 464.519L519.127 394.97C519.574 394.651 520.02 394.269 520.434 393.886L578.954 457.411C576.245 459.929 573.345 462.319 570.348 464.519ZM441.355 457.474C438.614 454.956 436.001 452.279 433.578 449.474L498.664 392.675C499.047 393.09 499.429 393.504 499.844 393.886L441.355 457.474ZM582.97 453.522L521.04 393.313C521.422 392.898 521.805 392.484 522.155 392.038L590.301 445.139C588.007 448.04 585.552 450.877 582.97 453.522ZM430.008 445.171C427.713 442.239 425.578 439.147 423.634 435.992L497.134 390.635C497.421 391.113 497.74 391.56 498.091 392.006L430.008 445.171ZM593.616 440.613L522.665 391.336C522.984 390.89 523.271 390.412 523.526 389.902L599.449 431.083C597.696 434.334 595.72 437.553 593.616 440.613ZM420.829 431.147C419.044 427.864 417.45 424.485 416.048 421.011L496.019 388.404C496.242 388.914 496.465 389.424 496.72 389.902L420.829 431.147ZM602.031 426.079L523.94 389.169C524.163 388.691 524.386 388.149 524.546 387.639L606.238 415.656C605.027 419.194 603.625 422.7 602.031 426.079ZM414.071 415.784C412.86 412.246 411.84 408.612 411.012 404.978L495.286 386.077C495.413 386.619 495.541 387.129 495.732 387.639L414.071 415.784ZM607.928 410.301L524.801 386.842C524.96 386.332 525.056 385.79 525.151 385.249L610.382 399.369C609.744 403.034 608.916 406.731 607.928 410.301ZM409.928 399.464C409.322 395.799 408.908 392.07 408.685 388.372L494.935 383.591C494.967 384.165 495.031 384.739 495.126 385.28L409.928 399.464ZM611.115 393.823L525.247 384.42C525.311 383.878 525.343 383.304 525.343 382.762C525.343 382.699 525.343 382.635 525.343 382.571H568.532H611.721V382.38V382.699C611.721 386.396 611.529 390.157 611.115 393.823ZM494.903 382.762H408.525V382.699C408.525 379.033 408.717 375.336 409.131 371.702L494.999 381.009C494.935 381.583 494.903 382.157 494.903 382.731V382.762ZM525.311 381.774C525.279 381.201 525.215 380.627 525.12 380.085L610.318 365.774C610.924 369.439 611.338 373.168 611.561 376.866L525.311 381.774ZM495.126 380.149L409.896 366.124C410.502 362.459 411.33 358.761 412.318 355.16L495.477 378.523C495.318 379.065 495.222 379.607 495.126 380.149ZM524.992 379.288C524.865 378.746 524.737 378.236 524.546 377.726L606.175 349.518C607.386 353.056 608.438 356.69 609.234 360.323L524.992 379.288ZM495.732 377.758L414.008 349.805C415.219 346.267 416.621 342.793 418.215 339.414L496.369 376.228C496.115 376.738 495.891 377.248 495.732 377.758ZM524.227 376.961C524.004 376.451 523.781 375.941 523.526 375.463L599.385 334.123C601.17 337.406 602.796 340.817 604.198 344.259L524.227 376.961ZM496.72 375.495L420.733 334.41C422.486 331.127 424.462 327.94 426.598 324.88L497.613 374.061C497.262 374.539 496.975 375.017 496.72 375.495ZM523.112 374.73C522.825 374.252 522.506 373.806 522.155 373.36L590.174 320.131C592.469 323.063 594.604 326.155 596.581 329.31L523.112 374.73ZM498.091 373.392L429.881 320.386C432.144 317.453 434.63 314.616 437.212 311.971L499.206 372.117C498.824 372.499 498.441 372.945 498.091 373.392ZM521.613 372.69C521.231 372.276 520.849 371.862 520.434 371.479L578.827 307.827C581.568 310.345 584.182 313.023 586.636 315.828L521.613 372.69ZM499.812 371.511L441.228 308.05C443.969 305.532 446.838 303.142 449.834 300.943L501.119 370.427C500.672 370.746 500.226 371.129 499.812 371.511ZM519.765 370.905C519.319 370.555 518.872 370.204 518.394 369.917L565.599 297.564C568.723 299.604 571.751 301.803 574.62 304.162L519.765 370.905ZM501.82 369.949L454.424 297.755C457.547 295.715 460.798 293.835 464.113 292.145L503.286 369.12C502.776 369.344 502.298 369.63 501.82 369.949ZM517.693 369.471C517.215 369.184 516.705 368.929 516.227 368.738L550.842 289.595C554.252 291.094 557.631 292.783 560.85 294.663L517.693 369.471ZM504.019 368.738L469.149 289.691C472.56 288.193 476.098 286.854 479.668 285.739L505.549 368.132C505.039 368.324 504.529 368.515 504.019 368.738ZM515.43 368.419C514.92 368.228 514.378 368.069 513.868 367.941L534.873 284.145C538.507 285.038 542.108 286.185 545.614 287.46L515.43 368.419ZM506.346 367.941L485.054 284.209C488.656 283.284 492.353 282.551 496.051 282.041L507.94 367.591C507.43 367.686 506.856 367.814 506.346 367.941ZM513.071 367.75C512.529 367.654 511.956 367.559 511.414 367.527L518.299 281.436C521.996 281.723 525.725 282.233 529.391 282.934L513.071 367.75ZM508.8 367.527L501.629 281.436C505.294 281.117 509.055 281.021 512.753 281.117L510.553 367.463C509.98 367.463 509.374 367.495 508.8 367.527Z" fill="#FF7C2E"/>
<path d="M714.45 484.28H714.418C713.717 484.28 712.984 484.28 712.283 484.248L714.068 397.902C714.195 397.902 714.291 397.902 714.418 397.902H714.45V484.28ZM725.478 483.707L716.139 397.839C716.267 397.839 716.363 397.807 716.458 397.807L727.678 483.452C726.945 483.515 726.212 483.611 725.478 483.707ZM701.254 483.452C700.521 483.356 699.788 483.26 699.055 483.133L712.06 397.743C712.155 397.775 712.283 397.775 712.378 397.775L701.254 483.452ZM738.579 481.38L718.052 397.488C718.147 397.456 718.275 397.424 718.371 397.393L740.714 480.838C740.013 481.029 739.28 481.22 738.579 481.38ZM688.186 480.87C687.485 480.679 686.752 480.487 686.051 480.264L710.115 397.297C710.211 397.329 710.338 397.361 710.434 397.393L688.186 480.87ZM751.264 477.364L719.901 396.883C719.996 396.851 720.092 396.819 720.187 396.755L753.304 476.535C752.667 476.822 751.965 477.109 751.264 477.364ZM675.564 476.599C674.895 476.312 674.194 476.025 673.524 475.738L708.267 396.659C708.362 396.691 708.49 396.755 708.585 396.787L675.564 476.599ZM763.313 471.754L721.685 396.054C721.781 395.99 721.877 395.958 721.972 395.894L765.257 470.638C764.619 471.021 763.982 471.403 763.313 471.754ZM663.611 470.702C662.974 470.32 662.337 469.937 661.699 469.555L706.545 395.735C706.641 395.799 706.737 395.831 706.832 395.894L663.611 470.702ZM774.5 464.614L723.375 394.97C723.47 394.906 723.534 394.843 723.63 394.779L776.285 463.276C775.711 463.722 775.106 464.168 774.5 464.614ZM652.583 463.307C652.009 462.861 651.436 462.415 650.862 461.969L704.92 394.588C705.015 394.651 705.111 394.747 705.207 394.811L652.583 463.307ZM784.668 456.072L724.905 393.695C725 393.631 725.064 393.536 725.128 393.472L786.23 454.542C785.72 455.052 785.21 455.562 784.668 456.072ZM642.607 454.574C642.097 454.064 641.587 453.522 641.077 453.012L703.39 393.185C703.486 393.281 703.549 393.345 703.645 393.44L642.607 454.574ZM793.624 446.319L726.307 392.197C726.371 392.101 726.435 392.038 726.498 391.942L794.995 444.566C794.549 445.139 794.103 445.713 793.624 446.319ZM633.873 444.629C633.427 444.056 633.013 443.482 632.566 442.876L702.115 391.623C702.179 391.719 702.274 391.815 702.338 391.91L633.873 444.629ZM801.242 435.45L727.455 390.54C727.518 390.444 727.582 390.348 727.614 390.253L802.358 433.537C802.007 434.175 801.625 434.812 801.242 435.45ZM626.479 433.601C626.128 432.964 625.745 432.326 625.395 431.689L701.031 389.966C701.095 390.062 701.159 390.189 701.222 390.285L626.479 433.601ZM807.394 423.625L728.347 388.787C728.379 388.691 728.443 388.595 728.475 388.5L808.286 421.553C808 422.254 807.713 422.955 807.394 423.625ZM620.582 421.68C620.295 421.011 620.04 420.342 619.753 419.64L700.203 388.213C700.234 388.308 700.298 388.436 700.33 388.532L620.582 421.68ZM811.952 411.098L729.016 387.002C729.048 386.874 729.08 386.779 729.112 386.651L812.558 408.963C812.366 409.664 812.175 410.365 811.952 411.098ZM616.279 409.058C616.088 408.357 615.896 407.656 615.737 406.923L699.629 386.332C699.661 386.46 699.693 386.555 699.724 386.683L616.279 409.058ZM814.821 398.094L729.431 385.089C729.463 384.962 729.463 384.866 729.494 384.739L815.139 395.926C815.044 396.628 814.948 397.361 814.821 398.094ZM613.665 396.022C613.57 395.289 613.474 394.556 613.41 393.823L699.278 384.42C699.278 384.516 699.31 384.643 699.31 384.739L613.665 396.022ZM815.968 384.898L729.622 383.049C729.622 382.922 729.622 382.826 729.622 382.699V382.539H816V382.412V382.699C816 383.432 816 384.165 815.968 384.898ZM699.183 383.241C699.183 383.081 699.183 382.922 699.183 382.762H612.805C612.805 382.699 612.805 382.635 612.805 382.571C612.805 381.902 612.805 381.264 612.837 380.627L699.183 382.38C699.183 382.476 699.183 382.603 699.183 382.699V383.241ZM729.526 380.978C729.526 380.85 729.494 380.754 729.494 380.627L815.107 369.28C815.203 370.013 815.299 370.714 815.362 371.447L729.526 380.978ZM699.31 380.659L613.633 369.599C613.729 368.866 613.825 368.132 613.952 367.399L699.342 380.34C699.342 380.468 699.31 380.563 699.31 380.659ZM729.176 379.001C729.144 378.906 729.112 378.778 729.08 378.683L812.462 356.18C812.653 356.881 812.844 357.614 813.004 358.315L729.176 379.001ZM699.693 378.746L616.215 356.562C616.406 355.861 616.598 355.128 616.821 354.427L699.788 378.46C699.756 378.555 699.724 378.651 699.693 378.746ZM728.602 377.153C728.57 377.057 728.538 376.961 728.475 376.866L808.191 343.59C808.478 344.259 808.765 344.96 809.02 345.661L728.602 377.153ZM700.298 376.898L620.454 343.908C620.741 343.207 621.028 342.538 621.315 341.837L700.394 376.579C700.394 376.706 700.362 376.802 700.298 376.898ZM727.773 375.4C727.71 375.304 727.678 375.208 727.614 375.113L802.262 331.669C802.613 332.306 802.995 332.944 803.346 333.581L727.773 375.4ZM701.191 375.113L626.351 331.956C626.734 331.318 627.116 330.649 627.498 330.011L701.35 374.826C701.286 374.953 701.222 375.049 701.191 375.113ZM726.69 373.71C726.626 373.615 726.53 373.519 726.466 373.423L794.868 320.672C795.314 321.246 795.76 321.82 796.174 322.425L726.69 373.71ZM702.306 373.487L633.746 320.927C634.192 320.354 634.67 319.748 635.116 319.174L702.497 373.2C702.434 373.296 702.37 373.392 702.306 373.487ZM725.383 372.18C725.287 372.085 725.223 371.989 725.128 371.925L786.102 310.76C786.612 311.27 787.122 311.78 787.632 312.321L725.383 372.18ZM703.645 371.957L642.479 310.951C642.989 310.441 643.531 309.899 644.041 309.389L703.868 371.702C703.804 371.798 703.709 371.862 703.645 371.957ZM723.885 370.81C723.789 370.746 723.693 370.65 723.598 370.587L776.126 301.994C776.7 302.441 777.273 302.887 777.847 303.365L723.885 370.81ZM705.143 370.619L652.424 302.186C652.998 301.739 653.603 301.293 654.209 300.847L705.398 370.427C705.302 370.491 705.239 370.555 705.143 370.619ZM722.259 369.63C722.164 369.567 722.068 369.503 721.972 369.471L765.097 294.632C765.735 295.014 766.372 295.365 767.01 295.747L722.259 369.63ZM706.8 369.503L663.452 294.791C664.09 294.44 664.727 294.058 665.365 293.707L707.119 369.344C706.992 369.375 706.896 369.439 706.8 369.503ZM720.506 368.738C720.41 368.706 720.315 368.642 720.219 368.611L753.145 288.767C753.814 289.054 754.515 289.34 755.185 289.627L720.506 368.738ZM708.585 368.611L675.341 288.894C676.042 288.607 676.712 288.321 677.413 288.066L708.84 368.515C708.777 368.547 708.681 368.579 708.585 368.611ZM718.657 368.069C718.562 368.037 718.434 368.005 718.339 367.973L740.491 284.496C741.192 284.687 741.925 284.878 742.626 285.101L718.657 368.069ZM710.402 368.005L687.963 284.591C688.664 284.4 689.397 284.209 690.099 284.049L710.721 367.941C710.625 367.941 710.498 367.973 710.402 368.005ZM716.745 367.654C716.649 367.622 716.522 367.622 716.426 367.622L727.423 281.946C728.156 282.041 728.889 282.137 729.622 282.265L716.745 367.654ZM712.346 367.622L701.031 281.978C701.764 281.882 702.497 281.786 703.231 281.723L712.665 367.591C712.538 367.591 712.442 367.591 712.346 367.622ZM714.705 367.495C714.609 367.495 714.482 367.495 714.386 367.495L714.195 281.117H714.386C715.056 281.117 715.725 281.117 716.394 281.149L714.705 367.495Z" fill="#FFB900"/>
<path d="M101.645 280.703L101.614 194.325C101.9 194.325 102.187 194.325 102.474 194.293L107.128 280.543C105.311 280.639 103.462 280.703 101.645 280.703ZM96.195 280.543C94.3782 280.448 92.5295 280.288 90.7127 280.097L99.8923 194.197C100.179 194.229 100.434 194.261 100.721 194.261L96.195 280.543ZM112.578 280.097L103.303 194.229C103.59 194.197 103.845 194.166 104.132 194.134L118.06 279.396C116.244 279.651 114.395 279.906 112.578 280.097ZM85.2623 279.396C83.4455 279.109 81.6287 278.758 79.8438 278.376L98.2668 193.974C98.5218 194.038 98.8086 194.07 99.0636 194.134L85.2623 279.396ZM123.447 278.344L104.928 193.974C105.183 193.911 105.438 193.847 105.725 193.783L128.834 277.005C127.049 277.484 125.232 277.93 123.447 278.344ZM74.489 277.037C72.7359 276.559 70.951 276.017 69.1979 275.412L96.7369 193.528C96.9918 193.624 97.2468 193.687 97.5018 193.751L74.489 277.037ZM134.061 275.38L106.458 193.528C106.713 193.432 106.968 193.337 107.223 193.241L139.256 273.467C137.567 274.169 135.814 274.806 134.061 275.38ZM64.0344 273.531C62.3451 272.862 60.6239 272.129 58.9664 271.364L95.2388 192.986C95.4938 193.114 95.7488 193.209 95.9719 193.305L64.0344 273.531ZM144.324 271.3L107.988 192.954C108.243 192.827 108.466 192.731 108.721 192.604L149.265 268.878C147.639 269.706 145.982 270.535 144.324 271.3ZM54.026 268.878C52.4005 268.017 50.8068 267.093 49.245 266.168L93.8045 192.189C94.0276 192.317 94.2826 192.476 94.5057 192.604L54.026 268.878ZM154.014 266.136L109.423 192.157C109.646 192.03 109.901 191.871 110.124 191.711L158.668 263.172C157.138 264.192 155.576 265.212 154.014 266.136ZM44.5914 263.204C43.0933 262.184 41.5953 261.1 40.1291 259.985L92.4339 191.233C92.657 191.392 92.8801 191.552 93.1032 191.711L44.5914 263.204ZM163.098 259.985L110.793 191.233C111.016 191.074 111.239 190.883 111.431 190.723L167.369 256.542C165.999 257.722 164.564 258.869 163.098 259.985ZM35.8261 256.542C34.4237 255.363 33.0531 254.12 31.7463 252.877L91.1271 190.149C91.3183 190.341 91.5414 190.532 91.7327 190.691L35.8261 256.542ZM171.449 252.877L112.068 190.149C112.259 189.958 112.451 189.767 112.642 189.576L175.338 248.988C174.094 250.295 172.788 251.634 171.449 252.877ZM27.8577 249.02C26.6146 247.682 25.3715 246.311 24.1922 244.94L89.9796 188.97C90.1709 189.193 90.3302 189.384 90.5215 189.576L27.8577 249.02ZM179.003 244.909L113.216 188.938C113.407 188.715 113.566 188.492 113.726 188.301L182.445 240.637C181.362 242.072 180.182 243.506 179.003 244.909ZM20.7498 240.637C19.6342 239.203 18.5824 237.705 17.5306 236.175L88.9597 187.6C89.119 187.823 89.2784 188.046 89.4378 188.269L20.7498 240.637ZM185.665 236.175L114.204 187.631C114.363 187.408 114.522 187.153 114.65 186.93L188.629 231.553C187.705 233.083 186.685 234.645 185.665 236.175ZM14.5982 231.585C13.642 230.023 12.7495 228.398 11.8889 226.804L88.1309 186.229C88.2584 186.452 88.3859 186.707 88.5453 186.93L14.5982 231.585ZM191.338 226.74L115.064 186.197C115.192 185.974 115.319 185.719 115.415 185.464L193.792 221.8C193.027 223.457 192.199 225.115 191.338 226.74ZM9.43463 221.864C8.66966 220.206 7.93656 218.517 7.26722 216.828L87.4616 184.763C87.5572 185.018 87.6847 185.273 87.7803 185.496L9.43463 221.864ZM195.992 216.732L115.765 184.731C115.861 184.476 115.957 184.221 116.052 183.966L197.904 211.537C197.299 213.258 196.661 215.011 195.992 216.732ZM5.32292 211.632C4.74919 209.911 4.17546 208.126 3.69736 206.341L86.9197 183.201C86.9835 183.456 87.0791 183.711 87.1428 183.966L5.32292 211.632ZM199.498 206.246L116.244 183.201C116.307 182.946 116.371 182.691 116.435 182.436L200.805 200.923C200.454 202.676 200.008 204.493 199.498 206.246ZM2.39053 201.018C2.00805 199.233 1.65744 197.417 1.3387 195.6L86.5691 181.639C86.601 181.894 86.6647 182.181 86.7285 182.436L2.39053 201.018ZM201.888 195.472L116.626 181.607C116.658 181.32 116.722 181.065 116.722 180.779L202.59 190.022C202.398 191.839 202.175 193.687 201.888 195.472ZM0.605601 190.149C0.414359 188.333 0.25499 186.516 0.159369 184.699L86.4098 180.014C86.4098 180.3 86.4416 180.587 86.4735 180.842L0.605601 190.149ZM203.036 184.572L116.785 179.982C116.785 179.727 116.817 179.44 116.817 179.185C116.817 179.121 116.817 179.057 116.817 178.994H160.006H203.195V178.77V179.089C203.195 180.906 203.131 182.755 203.036 184.572ZM86.3779 179.153H0V179.089C0 177.304 0.0318738 175.519 0.127495 173.734L86.3779 178.261C86.3779 178.547 86.346 178.834 86.346 179.089V179.153H86.3779ZM116.785 178.229C116.754 177.942 116.754 177.655 116.722 177.368L202.59 167.965C202.781 169.75 202.94 171.599 203.036 173.416L116.785 178.229ZM86.4735 177.432L0.573728 168.284C0.76497 166.467 1.01996 164.619 1.30682 162.834L86.5691 176.603C86.5373 176.89 86.5054 177.145 86.4735 177.432ZM116.594 176.539C116.562 176.284 116.499 176.029 116.435 175.774L200.805 157.096C201.187 158.881 201.538 160.73 201.856 162.515L116.594 176.539ZM86.7285 175.806L2.32678 157.415C2.70927 155.63 3.1555 153.813 3.66548 152.06L86.9197 175.041C86.856 175.296 86.7922 175.551 86.7285 175.806ZM116.275 174.978C116.212 174.723 116.116 174.468 116.02 174.213L197.84 146.482C198.414 148.204 198.988 149.988 199.466 151.742L116.275 174.978ZM87.1428 174.244L5.25917 146.769C5.8329 145.016 6.47037 143.295 7.1716 141.574L87.4297 173.479C87.3341 173.734 87.2385 173.989 87.1428 174.244ZM115.734 173.448C115.638 173.193 115.542 172.938 115.415 172.714L193.729 136.251C194.494 137.908 195.227 139.598 195.928 141.319L115.734 173.448ZM87.7485 172.746L9.33901 136.506C10.104 134.848 10.9327 133.191 11.7933 131.565L88.0991 172.013C87.9716 172.268 87.8759 172.491 87.7485 172.746ZM115.064 171.981C114.937 171.726 114.809 171.503 114.65 171.248L188.565 126.529C189.521 128.091 190.414 129.685 191.274 131.31L115.064 171.981ZM88.5134 171.312L14.5026 126.784C15.4269 125.223 16.4469 123.661 17.4668 122.163L88.9597 170.643C88.8003 170.834 88.6728 171.057 88.5134 171.312ZM114.204 170.579C114.044 170.356 113.885 170.133 113.726 169.91L182.382 117.477C183.497 118.912 184.581 120.442 185.601 121.94L114.204 170.579ZM89.4378 169.941L20.6861 117.668C21.8016 116.202 22.9491 114.768 24.1284 113.397L89.9796 169.272C89.7884 169.495 89.629 169.718 89.4378 169.941ZM113.184 169.24C112.992 169.017 112.801 168.826 112.61 168.603L175.242 109.126C176.485 110.433 177.728 111.804 178.907 113.206L113.184 169.24ZM90.5215 168.667L27.762 109.286C29.0051 107.947 30.3119 106.64 31.6506 105.397L91.1271 168.029C90.9358 168.252 90.7127 168.443 90.5215 168.667ZM112.036 168.029C111.845 167.838 111.622 167.647 111.399 167.455L167.273 101.604C168.644 102.783 170.046 103.995 171.353 105.27L112.036 168.029ZM91.7645 167.487L35.7305 101.763C37.1329 100.584 38.5672 99.4367 40.0016 98.3211L92.402 167.009C92.1789 167.137 91.9558 167.328 91.7645 167.487ZM110.761 166.945C110.538 166.786 110.315 166.627 110.092 166.467L158.508 94.9425C160.006 95.9625 161.536 97.0462 162.971 98.1618L110.761 166.945ZM93.0714 166.499L44.4639 95.1019C45.962 94.0819 47.5238 93.0938 49.0856 92.1376L93.7726 166.053C93.5495 166.18 93.2945 166.34 93.0714 166.499ZM109.391 166.021C109.168 165.893 108.913 165.734 108.69 165.638L149.074 89.269C150.699 90.1296 152.325 91.0539 153.886 91.9783L109.391 166.021ZM94.4738 165.638L53.8666 89.3965C55.4922 88.5359 57.1178 87.7072 58.7752 86.9422L95.2069 165.256C94.9519 165.384 94.7288 165.511 94.4738 165.638ZM107.925 165.256C107.67 165.129 107.446 165.033 107.191 164.937L139.065 84.6473C140.786 85.3166 142.476 86.0497 144.133 86.8147L107.925 165.256ZM95.94 164.969L63.8431 84.7748C65.5324 84.1054 67.2855 83.4361 69.0386 82.8624L96.7369 164.682C96.45 164.746 96.195 164.842 95.94 164.969ZM106.426 164.65C106.171 164.555 105.916 164.491 105.662 164.427L128.579 81.1412C130.332 81.6193 132.117 82.1611 133.87 82.7349L106.426 164.65ZM97.4699 164.427L74.2977 81.2368C76.0508 80.7587 77.8676 80.2806 79.6525 79.8981L98.2668 164.236C98.0118 164.3 97.7249 164.364 97.4699 164.427ZM104.897 164.236C104.642 164.172 104.355 164.14 104.1 164.077L117.805 78.8144C119.622 79.1013 121.439 79.4519 123.224 79.8344L104.897 164.236ZM99.0636 164.077L85.0392 78.8463C86.8241 78.5594 88.6728 78.3044 90.4896 78.1132L99.8605 163.981C99.6055 164.013 99.3186 164.045 99.0636 164.077ZM103.271 163.981C102.984 163.949 102.729 163.917 102.442 163.917L106.905 77.6669C108.721 77.7626 110.57 77.8901 112.387 78.1132L103.271 163.981ZM100.721 163.917L95.9719 77.6669C97.7887 77.5713 99.6055 77.5076 101.422 77.5076L101.55 163.885C101.295 163.885 101.008 163.885 100.721 163.917Z" fill="#FF7C2E"/>
<path d="M305.893 484.28H305.861C304.777 484.28 303.694 484.248 302.61 484.217L305.351 397.871C305.51 397.871 305.702 397.871 305.861 397.871H305.893V484.28ZM322.435 482.942L308.411 397.711C308.57 397.679 308.73 397.647 308.889 397.616L325.686 482.336C324.603 482.559 323.519 482.75 322.435 482.942ZM286.163 482.368C285.079 482.145 283.996 481.922 282.912 481.667L302.387 397.52C302.546 397.552 302.705 397.584 302.865 397.616L286.163 482.368ZM341.719 477.778L311.248 396.946C311.407 396.883 311.566 396.819 311.694 396.755L344.811 476.535C343.791 476.981 342.739 477.396 341.719 477.778ZM267.039 476.599C266.019 476.184 264.967 475.738 263.979 475.26L299.614 396.596C299.773 396.659 299.901 396.723 300.06 396.787L267.039 476.599ZM359.568 468.949L313.861 395.639C313.989 395.544 314.148 395.448 314.276 395.353L362.341 467.132C361.449 467.77 360.493 468.375 359.568 468.949ZM249.444 467.196C248.52 466.59 247.596 465.953 246.703 465.315L297.032 395.129C297.159 395.225 297.319 395.321 297.446 395.416L249.444 467.196ZM375.346 456.837L316.252 393.823C316.379 393.695 316.507 393.6 316.634 393.472L377.704 454.542C376.939 455.307 376.143 456.072 375.346 456.837ZM234.081 454.574C233.284 453.777 232.519 452.98 231.754 452.183L294.769 393.121C294.865 393.249 294.992 393.345 295.12 393.472L234.081 454.574ZM388.446 441.92L318.292 391.56C318.387 391.432 318.483 391.305 318.579 391.145L390.358 439.179C389.721 440.103 389.083 440.996 388.446 441.92ZM221.459 439.243C220.854 438.318 220.248 437.394 219.674 436.47L292.92 390.699C293.016 390.858 293.111 390.986 293.207 391.113L221.459 439.243ZM398.422 424.645L319.758 388.978C319.822 388.818 319.885 388.659 319.949 388.5L399.729 421.585C399.315 422.605 398.869 423.625 398.422 424.645ZM212.025 421.68C211.61 420.66 211.196 419.609 210.813 418.589L291.613 388.053C291.677 388.213 291.741 388.372 291.805 388.5L212.025 421.68ZM404.829 405.743L320.682 386.205C320.714 386.045 320.746 385.886 320.778 385.727L405.53 402.492C405.307 403.544 405.084 404.66 404.829 405.743ZM206.224 402.588C206 401.504 205.809 400.421 205.618 399.305L290.848 385.249C290.88 385.408 290.912 385.567 290.944 385.727L206.224 402.588ZM407.411 385.982L321.065 383.241C321.065 383.049 321.065 382.89 321.065 382.699V382.571H364.254H407.443V382.38V382.667C407.475 383.782 407.443 384.898 407.411 385.982ZM204.279 383.304V382.699C204.279 381.647 204.311 380.563 204.343 379.511L288.617 382.125L290.657 382.093C290.657 382.125 290.657 382.157 290.657 382.189C290.657 382.348 290.657 382.476 290.657 382.635C290.657 382.667 290.657 382.731 290.657 382.762H204.279C204.279 382.954 204.279 383.113 204.279 383.304ZM320.873 380.117C320.842 379.958 320.81 379.83 320.778 379.671L405.466 362.714C405.69 363.798 405.881 364.913 406.072 366.029L320.873 380.117ZM290.944 379.703L206.192 363.033C206.415 361.949 206.638 360.865 206.893 359.781L291.072 379.193C291.008 379.384 290.976 379.543 290.944 379.703ZM320.109 377.312C320.045 377.153 319.981 376.993 319.917 376.866L399.634 343.622C400.048 344.641 400.462 345.693 400.877 346.713L320.109 377.312ZM291.773 376.898L211.961 343.908C212.375 342.888 212.821 341.868 213.268 340.848L291.964 376.451C291.9 376.579 291.837 376.738 291.773 376.898ZM318.802 374.667C318.706 374.507 318.61 374.38 318.515 374.252L390.199 326.091C390.805 327.015 391.41 327.94 391.984 328.864L318.802 374.667ZM293.175 374.284L221.332 326.314C221.937 325.39 222.575 324.465 223.244 323.573L293.462 373.902C293.366 373.997 293.271 374.157 293.175 374.284ZM316.953 372.276C316.826 372.148 316.73 372.021 316.602 371.894L377.577 310.728C378.342 311.493 379.139 312.29 379.872 313.086L316.953 372.276ZM295.088 371.957L233.954 310.951C234.719 310.186 235.516 309.389 236.312 308.656L295.47 371.575C295.343 371.702 295.215 371.83 295.088 371.957ZM314.69 370.268C314.562 370.172 314.435 370.077 314.276 369.981L362.214 298.106C363.138 298.711 364.062 299.349 364.955 299.986L314.69 370.268ZM297.414 370.013L249.285 298.297C250.209 297.691 251.134 297.086 252.058 296.512L297.861 369.758C297.701 369.854 297.574 369.949 297.414 370.013ZM312.108 368.802C311.949 368.738 311.821 368.674 311.662 368.611L344.619 288.767C345.639 289.181 346.659 289.627 347.679 290.105L312.108 368.802ZM300.028 368.611L266.816 288.894C267.836 288.48 268.856 288.066 269.907 287.683L300.474 368.451C300.347 368.483 300.187 368.547 300.028 368.611ZM309.335 367.877C309.176 367.846 309.016 367.814 308.857 367.782L325.463 283.029C326.547 283.253 327.663 283.476 328.714 283.731L309.335 367.877ZM302.833 367.782L285.94 283.061C287.024 282.838 288.107 282.647 289.223 282.456L303.343 367.686C303.152 367.718 302.992 367.75 302.833 367.782ZM306.371 367.495C306.212 367.495 306.052 367.495 305.861 367.495L305.67 281.117H305.861C306.913 281.117 307.933 281.117 308.985 281.149L306.371 367.495Z" fill="#0099FF"/>
</g>
</g>
<defs>
<clipPath id="clip0_10973_14920">
<rect width="816" height="562" fill="white"/>
</clipPath>
<clipPath id="clip1_10973_14920">
<rect width="816" height="406.773" fill="white" transform="translate(0 77.5076)"/>
</clipPath>
</defs>
</svg>
