<svg width="298" height="237" viewBox="0 0 298 237" fill="none" xmlns="http://www.w3.org/2000/svg">
<path d="M148.75 24C94.6261 24 50.75 67.4329 50.75 121.01C50.75 121.34 50.7517 121.67 50.755 122H148.75V24Z" fill="#F8DEC7"/>
<path d="M148.75 219C94.6261 219 50.75 176.01 50.75 122.98C50.75 122.653 50.7517 122.326 50.755 122H148.75V219Z" fill="#D7E7CD"/>
<path d="M148.75 24C202.874 24 246.75 67.4329 246.75 121.01C246.75 121.34 246.748 121.67 246.745 122H148.75V24Z" fill="#D0DCEB"/>
<path d="M148.75 219C202.874 219 246.75 176.01 246.75 122.98C246.75 122.653 246.748 122.326 246.745 122H148.75V219Z" fill="#EDC9C9"/>
<path d="M280.43 141L277.882 136.688C279.548 136.31 280.122 135.092 280.122 133.972C280.122 132.516 279.436 131.06 276.832 131.06H273.15V141H274.48V136.87H276.496L278.932 141H280.43ZM276.678 132.18C278.204 132.18 278.722 132.95 278.722 133.972C278.722 134.966 278.218 135.75 276.678 135.75H274.48V132.18H276.678ZM287.577 137.01C287.577 134.91 286.485 133.832 284.595 133.832C282.593 133.832 281.417 135.246 281.417 137.584C281.417 139.894 282.607 141.168 284.609 141.168C286.023 141.168 287.045 140.496 287.535 139.222L286.555 138.788C286.247 139.642 285.589 140.118 284.693 140.118C283.447 140.118 282.621 139.222 282.607 137.85H287.577V137.01ZM282.607 136.884C282.635 135.568 283.335 134.77 284.567 134.77C285.715 134.77 286.373 135.442 286.373 136.73V136.884H282.607Z" fill="black"/>
<path d="M161.48 0.0599995H160.15V10H161.48V0.0599995ZM164.139 10H165.329V5.912C165.329 4.638 165.931 3.854 166.911 3.854C167.751 3.854 168.227 4.428 168.227 5.45V10H169.417V5.856C169.417 4.582 169.991 3.854 170.985 3.854C171.867 3.854 172.315 4.414 172.315 5.506V10H173.505V5.408C173.505 3.784 172.721 2.832 171.377 2.832C170.425 2.832 169.711 3.294 169.249 4.232C168.927 3.322 168.227 2.832 167.261 2.832C166.323 2.832 165.651 3.294 165.259 4.218V3H164.139V10Z" fill="black"/>
<path d="M110.852 79.596V78.616H109.214V68.382H110.852V67.402H108.15V79.596H110.852ZM115.44 78.21C117.904 78.21 119.192 76.25 119.192 73.142C119.192 70.02 117.904 68.06 115.44 68.06C112.976 68.06 111.688 70.02 111.688 73.142C111.688 76.25 112.976 78.21 115.44 78.21ZM115.44 77.16C113.76 77.16 112.948 75.606 112.948 73.142C112.948 70.664 113.76 69.11 115.44 69.11C117.12 69.11 117.932 70.664 117.932 73.142C117.932 75.606 117.12 77.16 115.44 77.16ZM120.823 79.96C121.789 79.554 122.083 79.022 122.083 77.902V76.348H120.445V78H121.341V78.042C121.341 78.728 121.201 79.036 120.501 79.344L120.823 79.96ZM126.133 78V68.27H125.069C124.831 69.292 124.033 69.852 123.095 69.852H122.787V70.986H123.291C123.823 70.986 124.579 70.776 124.873 70.37V78H126.133ZM130.821 67.402H128.119V68.382H129.757V78.616H128.119V79.596H130.821V67.402Z" fill="black"/>
<path d="M170.852 79.596V78.616H169.214V68.382H170.852V67.402H168.15V79.596H170.852ZM175.058 78V68.27H173.994C173.756 69.292 172.958 69.852 172.02 69.852H171.712V70.986H172.216C172.748 70.986 173.504 70.776 173.798 70.37V78H175.058ZM178.102 79.96C179.068 79.554 179.362 79.022 179.362 77.902V76.348H177.724V78H178.62V78.042C178.62 78.728 178.48 79.036 177.78 79.344L178.102 79.96ZM183.412 78V68.27H182.348C182.11 69.292 181.312 69.852 180.374 69.852H180.066V70.986H180.57C181.102 70.986 181.858 70.776 182.152 70.37V78H183.412ZM188.1 67.402H185.398V68.382H187.036V78.616H185.398V79.596H188.1V67.402Z" fill="black"/>
<path d="M168.852 176.596V175.616H167.214V165.382H168.852V164.402H166.15V176.596H168.852ZM173.058 175V165.27H171.994C171.756 166.292 170.958 166.852 170.02 166.852H169.712V167.986H170.216C170.748 167.986 171.504 167.776 171.798 167.37V175H173.058ZM176.102 176.96C177.068 176.554 177.362 176.022 177.362 174.902V173.348H175.724V175H176.62V175.042C176.62 175.728 176.48 176.036 175.78 176.344L176.102 176.96ZM182.368 175.21C184.832 175.21 186.12 173.25 186.12 170.142C186.12 167.02 184.832 165.06 182.368 165.06C179.904 165.06 178.616 167.02 178.616 170.142C178.616 173.25 179.904 175.21 182.368 175.21ZM182.368 174.16C180.688 174.16 179.876 172.606 179.876 170.142C179.876 167.664 180.688 166.11 182.368 166.11C184.048 166.11 184.86 167.664 184.86 170.142C184.86 172.606 184.048 174.16 182.368 174.16ZM189.655 164.402H186.953V165.382H188.591V175.616H186.953V176.596H189.655V164.402Z" fill="black"/>
<path d="M108.852 176.596V175.616H107.214V165.382H108.852V164.402H106.15V176.596H108.852ZM113.44 175.21C115.904 175.21 117.192 173.25 117.192 170.142C117.192 167.02 115.904 165.06 113.44 165.06C110.976 165.06 109.688 167.02 109.688 170.142C109.688 173.25 110.976 175.21 113.44 175.21ZM113.44 174.16C111.76 174.16 110.948 172.606 110.948 170.142C110.948 167.664 111.76 166.11 113.44 166.11C115.12 166.11 115.932 167.664 115.932 170.142C115.932 172.606 115.12 174.16 113.44 174.16ZM118.823 176.96C119.789 176.554 120.083 176.022 120.083 174.902V173.348H118.445V175H119.341V175.042C119.341 175.728 119.201 176.036 118.501 176.344L118.823 176.96ZM125.089 175.21C127.553 175.21 128.841 173.25 128.841 170.142C128.841 167.02 127.553 165.06 125.089 165.06C122.625 165.06 121.337 167.02 121.337 170.142C121.337 173.25 122.625 175.21 125.089 175.21ZM125.089 174.16C123.409 174.16 122.597 172.606 122.597 170.142C122.597 167.664 123.409 166.11 125.089 166.11C126.769 166.11 127.581 167.664 127.581 170.142C127.581 172.606 126.769 174.16 125.089 174.16ZM132.375 164.402H129.673V165.382H131.311V175.616H129.673V176.596H132.375V164.402Z" fill="black"/>
<ellipse cx="148.75" cy="121.5" rx="98" ry="97.5" stroke="black" stroke-width="0.907407" stroke-dasharray="7.26 7.26"/>
<path d="M148.75 7.5L145.863 12.5H151.637L148.75 7.5ZM148.25 12V237H149.25V12H148.25Z" fill="black"/>
<path d="M297.5 122.25L292.5 119.363L292.5 125.137L297.5 122.25ZM293 121.75L1.686e-08 121.75L-1.68603e-08 122.75L293 122.75L293 121.75Z" fill="black"/>
<path d="M233.75 76.5L222.209 76.1292L227.658 86.3095L233.75 76.5ZM149.222 122.882L226.287 81.629L225.343 79.8658L148.278 121.118L149.222 122.882Z" fill="#2C4E7D"/>
<path d="M206.25 93L207.185 98.6973L211.651 95.0391L206.25 93ZM214.75 106.5L214.269 106.637L214.75 106.5ZM214.75 122C215.243 122.084 215.243 122.084 215.243 122.084C215.243 122.084 215.243 122.084 215.243 122.084C215.243 122.083 215.243 122.083 215.243 122.082C215.243 122.081 215.244 122.079 215.244 122.076C215.245 122.071 215.246 122.064 215.248 122.054C215.251 122.035 215.256 122.007 215.262 121.97C215.274 121.896 215.291 121.788 215.312 121.648C215.355 121.369 215.413 120.964 215.478 120.461C215.609 119.455 215.765 118.053 215.869 116.466C216.077 113.31 216.083 109.362 215.231 106.363L214.269 106.637C215.071 109.46 215.078 113.263 214.871 116.401C214.769 117.961 214.615 119.342 214.487 120.333C214.423 120.828 214.365 121.225 214.324 121.498C214.303 121.634 214.286 121.739 214.275 121.81C214.269 121.845 214.264 121.872 214.261 121.89C214.26 121.899 214.259 121.905 214.258 121.91C214.258 121.912 214.258 121.914 214.257 121.915C214.257 121.915 214.257 121.915 214.257 121.916C214.257 121.916 214.257 121.916 214.257 121.916C214.257 121.916 214.257 121.916 214.75 122ZM215.231 106.363C214.237 102.863 211.576 98.9092 209.499 96.1784L208.703 96.7838C210.775 99.5081 213.33 103.333 214.269 106.637L215.231 106.363Z" fill="black"/>
</svg>
